<?xml version="1.0" encoding="UTF-8" standalone="no"?>
<svg xmlns:rdf="http://www.w3.org/1999/02/22-rdf-syntax-ns#" xmlns="http://www.w3.org/2000/svg" xml:space="preserve" height="198" width="313" version="1.1" xmlns:cc="http://creativecommons.org/ns#" xmlns:dc="http://purl.org/dc/elements/1.1/" viewBox="0 0 313 198.2"><g style=""><path fill="#100f0d" d="m298 108c-7.22 3.8-13.2 2.73-19.7 9.36-5.4 5.51-11.3 12.3-15.4 13.5-1.77 0.535-6.37 1.98-9.52 3.96-3.1 1.93-4.01 1.87-6.79 4.39-3.32 2.94-5.19 5.08-11.3 7.22-3.8 1.28-8.24 1.93-12.2 3.1-2.94 0.856-5.24 2.09-7.86 3.58-3.96 2.25-8.77 7.54-15.4 8.72-13 2.41-9.58 2.14-18.8 6.37-2.3 1.02-7.06 2.19-10.4 2.19-5.56 0-9.95 0.91-14.9 3.53-3.58 1.93-7.22 5.4-14.2 6.31-8.67 1.12-9.15 0.0535-20 2.35-3.26 0.696-7.38 3.1-10.5 4.23-3.48 1.28-11.8 1.44-17.5 0.91-5.67-0.535-9.84-0.535-18.1 0.963-6.37 1.12-9.79 1.28-16 1.12-1.39-0.0535-2.46-1.02-3.32-2.46-1.07-1.77-1.18-3.26-0.963-5.19 0.482-4.07 0.428-4.23 1.39-7.97 0.268-1.12 1.71-8.56 1.98-9.68 1.6-7.12 2.09-14.3-3.53-17.5-1.77-1.02-6.1-1.66-9.26-1.12-9.52 1.66-7.49 3.26-13.6 1.12-1.02-0.374-3.58-0.856-5.08-0.749-3.05 0.107-7.38 2.25-11.2 2.84-2.68 0.428-3.37-2.57-3.32-4.71 0.107-3.32 0.482-6.53 0.321-10.2-0.374-9.74-2.09-10.3-3.26-16.1-1.07-5.3-0.749-14.3-1.02-14.1 0.268-7.44 3.64-15.5 5.56-18.2 2.03-2.89 2.46-4.12 3.96-7.65 1.6-3.74 1.39-7.06 0.588-11.3 0-0.107-1.02-3.21-0.642-3.21-0.268-1.98 0.214-4.17 0.856-5.51 1.02-2.19 1.82-3.26 3.48-3.96 1.02-0.428 2.09-0.963 3.16-1.07 3.53-0.268 4.23 2.03 10.9-0.749 3.42-1.44 6.79 0.482 8.51 1.12 4.6 1.66 3.8 1.66 6.69 1.77 2.78 0.107 5.46-0.588 8.02-2.19 1.5-0.91 2.62-1.39 3.48-2.68 0.749-1.12 1.77-4.12 2.03-5.72 0.321-1.93 0.856-3.1 0.321-7.65-1.5-5.3-2-6.5-3-10.1-0.8-2.9-1.8-5.6-2.2-8.3 0-0.0535-0.107-3.21-0.107-3.21-0.374-2.62 1.44-4.55 3.74-4.55 8.19-0.0535 15.9 2.25 24.5 2.19 7.12-0.0535 10.2-1.5 18.6 1.55 2.94 1.07 4.65 3.48 9.26 4.76 8.72 2.46 15.6-3.42 23.1 0.107 6.21 2.89 4.87 1.18 10.7 4.87 2.73 1.71 7.76 4.65 15 5.72 5.03 0.749 12.9-1.34 21.2 4.6 4.6 3.32 8.83 4.71 14.7 5.3 6.96 0.696 7.6-0.268 13.1 3.69 4.01 2.94 2.94 2.25 6.96 5.3 1.82 1.39 3.26 2.78 5.94 3.96 1.55 0.696 7.38 1.5 7.17 1.5 5.19 0.268 6.63-0.16 10.8 1.28-0.107-0.107 5.3 3.48 4.39 2.84 2.46 1.6 5.35 5.78 7.7 9.26 2.94 2.68 3.21 4.23 10.4 5.51-1.39-0.268 6.53 2.46 7.7 3.16 3.1 1.71 3.91 2.78 6.69 5.94 2.84 3.26 4.01 4.12 9.74 7.97 2.25 1.5 2.62 2.03 6.9 5.08 1.77 1.23 4.01 3.26 4.76 4.92 2.03 4.23-0.802 5.72-5.19 8.02zm5.99-19.5c-2.68-2.41-4.87-3.74-5.56-4.33-3.96-3.16-0.642-0.642-4.44-3.1-2.73-1.71-3.48-3.1-6.26-4.65-4.98-2.84-5.51-3.64-9.52-8.45-3.48-6.37-8.88-7.28-14.3-8.51-5.24-1.18-8.99-5.35-9.9-6.79-2.78-4.55-7.33-6.74-9.74-8.08-7.44-4.07-16-3.37-22.7-9.36-10.1-7.17-12.8-5.83-23.4-6.15-5.88-0.16-13.5-3.91-16-5.99-2.09-1.77-4.55-2.89-6.69-3.58-7.49-2.3-12.6 1.66-23.1-3.42-3.05-1.5-5.83-3.53-8.83-5.3-1-0.77-2-1.3-5-1.94-6-1.18-11-0.43-17 0.16-4 0.26-5-1.4-8-2.95-3-1.44-6-2.51-9-3.15-4.9-0.86-10.1-0.27-15.4 0.8-10.5 2.09-20-3.21-30.2-2.25-1.7 0.16-5 2.3-6.2 4.71-1.5 3.21-1.5 5.08-1.28 8.29 0.321 4.33 0.802 4.65 1.66 7.44 1.82 6.1 2.78 9.42 4.23 13.5 1.71 4.76 1.66 10.6-2.41 12.5-1.93 0.91-5.19 0.91-7.01-0.482-2.84-2.19-4.39-5.19-7.6-5.83-4.28-0.856-9.42 3.53-14 4.76-4.55 1.18-5.14-1.28-8.29-2.73-2.09-0.963-4.12 0.428-5.3 1.12-2.14 1.18-2.62 3.64-3.16 6.26-0.374 2.09-0.588 4.01-0.0535 6.31 0.749 3.32 1.87 5.3 1.93 7.6 0.214 5.78-0.749 10.1-3.1 13.1-1.5 1.93-3.53 7.33-4.12 9.31-2.09 6.63-1.87 5.51-2.89 11.7-0.535 3.16-0.428 6.69-0.696 9.63-0.0535 0.535 0.374 7.22 0.696 9.26 0.802 4.98 1.71 8.13 2.78 12.3 1.5 6.05 2.14 9.79 1.98 14.4-0.16 4.76-3.16 9.26-0.321 12.6 1.77 2.09 6.42 3.96 10.2 2.3 3.85-1.71 6.63-3.69 9.63-4.12 5.51-0.749 9.1 1.6 11.5 1.34 2.14-0.268 5.83-2.35 7.6-2.51 1.39-0.107 4.44-0.268 5.51 0.535 1.71 1.28 2.73 2.68 2.46 7.01 0 0.0535-1.02 4.65-1.02 4.71-1.77 5.72-3.64 11.1-4.55 15-0.963 4.12-5.46 13.1 3.69 16.7 3.85 1.55 7.92 1.23 13-0.0535 2.57-0.642 3.64-0.749 6.05-1.18 0-0.16 3.58-0.107 3.58-0.268l3.21-0.16c5.67-0.642 7.01-0.268 12 0.428 4.71 0.588 9.2 1.5 13.9 0.963 2.35-0.268 4.65-0.696 6.9-1.44 6.53-2.09 9.58-4.92 17.4-5.99 6.53-0.91 6.53 0.214 12.3-0.0535 5.99-0.268 9.31-2.84 11.8-4.23 3.05-1.66 3.85-1.82 5.88-2.89 7.38-3.96 16.1-3.48 24.4-5.51 5.83-1.44 8.13-4.17 14.7-5.94 2.62-0.696 5.46-0.642 8.24-1.02 2.14-0.321 5.88-2.19 7.97-4.12 3.58-3.32 3.21-3.48 5.99-5.03 4.65-2.62 9.95-2.57 14.7-4.76 4.39-2.03 8.88-3.74 12.3-7.22 5.03-5.08 13-6.53 19.5-8.88 3.85-1.39 8.93-3.91 13.2-11.2 4.17-7.17 7.86-8.24 15.2-10.4 4.92-1.5 7.06-2.51 10.9-6.1 3.42-3.21 4.65-5.3 6.21-7.54 1.77-2.57 5.19-6.85 1.55-10.1-1.6-1.44-3.26-4.07-6.69-6.74m-82.5 52.8"/><path fill="#fff" d="m222 141c-3.26 2.57-7.54 4.28-11.4 6.15-4.76 1.98-12.8 4.76-20.5 5.56-7.06 0.91-17.7 1.07-26.2 0.374-8.77-0.91-20.1-4.39-24.9-6.74-5.83-2.78-8.93-4.92-12.5-8.61-3.74-3.91-5.83-7.22-7.6-12.8-2.68-8.24-1.02-18.6 3.48-26.1 3.05-5.3 7.01-8.67 12.1-12.3l-1.93-1.98-22.8 13.1v3.37h6.1v13.2l-4.12 3.85h-41.4v-11c-0.268-0.107 5.03-6.05 5.03-6.05h1.98v-42.5h-6.42v-7.86l5.35-6.26h39.3v9.95l-6.05 6.1v16.5l37.5-21.5v-6.74l4.28-4.33h40v9.84l-4.87 4.65-10 0.0535-16.6 9.9 2.94 3c18-5.94 35.1-7.12 58.3 3.1l6.53-4.07h10.9v29l-5.14 5.03h-10.2c-7-12.1-20-23.5-46-18l13.6 14.6h3v12l-5.03 4.76h-39.2l-0.214-11 2.89-3.05-1.71-1.87c-5.72 4.39-9.58 13.9 4.01 24.5 18.6 13.3 65.3 5.4 70.1-11.7h15.4c-0.16 11.2-8.83 20.1-17.1 26.1zm77-46.3c-4.28-3.05-4.65-3.58-6.9-5.08-5.78-3.85-6.9-4.71-9.74-7.97-2.78-3.16-3.53-4.23-6.69-5.94-1.18-0.696-9.15-3.42-7.7-3.16-7.28-1.28-7.54-2.84-10.4-5.51-2.41-3.48-5.24-7.65-7.7-9.26 0.963 0.588-4.44-2.94-4.39-2.84-4.12-1.44-5.56-1.07-10.8-1.28 0.16 0-5.67-0.802-7.17-1.5-2.68-1.18-4.12-2.57-5.94-3.96-4.07-3.05-2.94-2.35-6.96-5.3-5.46-3.96-6.15-3-13.1-3.69-5.88-0.588-10.1-1.98-14.7-5.3-8.19-5.94-16.2-3.85-21.2-4.6-7.22-1.07-12.3-4.01-15-5.72-5.83-3.69-4.49-1.98-10.7-4.87-7.44-3.53-14.4 2.35-23.1-0.107-4.6-1.28-6.31-3.69-9.26-4.76-8.9-2.6-11.9-1.2-19.1-1.1-8.6 0-16.3-2.3-24.5-2.2-2.3 0-4.07 1.93-3.74 4.55 0 0 0.107 3.16 0.107 3.21 0.428 2.62 1.39 5.4 2.19 8.29 1.02 3.53 1.55 4.71 3 10.3 0.535 4.49 0 5.72-0.321 7.65-0.268 1.55-1.28 4.6-2.03 5.72-0.856 1.28-1.98 1.77-3.48 2.68-2.57 1.55-5.24 2.25-8.02 2.19-2.89-0.107-2.14-0.107-6.69-1.77-1.66-0.642-5.08-2.57-8.51-1.12-6.58 2.78-7.33 0.482-10.9 0.749-1.07 0.0535-2.14 0.588-3.16 1.07-1.66 0.696-2.41 1.77-3.48 3.96-0.642 1.34-1.12 3.53-0.856 5.51-0.374 0 0.642 3.1 0.642 3.21 0.802 4.23 1.02 7.54-0.588 11.3-1.55 3.53-1.98 4.76-3.96 7.65-1.93 2.78-5.3 10.8-5.56 18.2 0.268-0.268-0.0535 8.77 1.02 14.1 1.18 5.88 2.89 6.37 3.26 16.1 0.16 3.69-0.214 6.9-0.321 10.2-0.0535 2.14 0.642 5.14 3.32 4.71 3.85-0.588 8.19-2.73 11.2-2.84 1.5-0.0535 4.07 0.428 5.14 0.749 6.1 2.14 4.07 0.535 13.6-1.12 3.16-0.588 7.54 0.107 9.26 1.12 5.62 3.26 5.14 10.4 3.53 17.5-0.268 1.12-1.66 8.56-1.98 9.68-0.963 3.74-0.856 3.96-1.34 7.97-0.214 1.93-0.107 3.42 0.963 5.19 0.91 1.44 1.93 2.46 3.32 2.46 6.21 0.16 9.63 0 16-1.12 8.24-1.5 12.4-1.5 18.1-0.963 5.83 0.535 14.1 0.374 17.5-0.91 3.1-1.12 7.22-3.53 10.5-4.23 10.8-2.3 11.2-1.23 20-2.35 7.01-0.91 10.6-4.44 14.2-6.31 4.92-2.62 9.26-3.53 14.9-3.53 3.32 0 8.08-1.12 10.4-2.19 9.31-4.23 5.83-3.96 18.8-6.37 6.58-1.23 11.3-6.47 15.4-8.72 2.62-1.5 4.92-2.68 7.86-3.58 3.96-1.18 8.4-1.82 12.2-3.1 6.1-2.14 7.97-4.23 11.3-7.22 2.78-2.51 3.69-2.46 6.79-4.39 3.16-1.98 7.76-3.42 9.52-3.96 4.01-1.23 9.9-7.97 15.4-13.5 6.47-6.63 12.5-5.51 19.7-9.36 4.39-2.3 7.22-3.85 5.19-8.02-0.802-1.66-3-3.69-4.76-4.92"/><path d="m236 118c-1.44 7.6-4.87 10.6-9.2 15.6-5.72 5.3-6.9 5.99-12.6 9.04-9.84 4.92-20.1 7.06-31.8 7.33-16.4 0.642-30.9-2.78-39.8-6.53-5.46-1.98-13.6-7.06-18.6-15.7-4.12-8.4-2.09-17.3-0.642-21.7 1.82-5.3 4.76-10.8 13.3-16.6l10.8 11.6c-5.46 4.71-9.47 13.4-0.91 23.2 10.2 12.8 33.5 16.4 57.8 9.15 12.5-3.74 18-8.93 21.9-15.4h9.84zm-129-21.5v8.67h5.83v7.38h-35.9v-7.38h6.1v-51.3h-6.1v-6.42h35.9v6.42l-6.1 0.0535v27.9l49-27.9h-4.28v-6.42l37-0.0535v6.42l-8.24 0.107-25.1 14.8 33.8 36.4h1.18v7.44h-37.2v-7.49l5.19 0.0535-23.1-24.6-27.8 15.9zm114-18.6l6.1-4.01h8.56l-0.107 25.7-9.52 0.107c-9-14.6-31-19.7-52-14.8l-9.58-10.5c7.33-2.25 27.9-9.31 56.7 3.48zm-67.9 49.8c-13.6-10.6-9.74-20.1-4.01-24.5l1.71 1.87-2.89 3.05 0.214 11h39.2l5.03-4.82v-12h-3l-13.6-14.6c26.1-5.56 38.9 5.83 46.6 18.4h10.2l5.19-5.03v-29h-10.9l-6.53 4.01c-23-11.2-41-10-59-4.1l-2.94-3 16.6-9.9 10-0.0535 4.92-4.65v-9.84h-40l-4.23 4.33v6.74l-37.5 21.5v-16.5l6.05-6.1v-9.95h-39.3l-5.35 6.26v7.86h6.42v42.5h-1.98s-5.24 5.94-4.98 6.05v11h41.4l4.12-3.85v-13.2h-6.1v-3.37l22.8-13.1 1.93 1.98c-5.08 3.58-9.1 6.96-12.1 12.3-4.49 7.44-6.1 17.8-3.48 26.1 1.71 5.56 3.85 8.93 7.6 12.8 3.58 3.69 6.63 5.83 12.5 8.61 4.82 2.41 16.1 5.83 24.9 6.74 8.51 0.642 19.2 0.535 26.2-0.374 7.7-0.802 15.7-3.58 20.5-5.56 3.85-1.87 8.13-3.58 11.4-6.15 8.24-5.94 17-14.9 17.1-26.1h-15.4c-4.82 17.2-51.4 25-70.1 11.7" stroke="#000"/><g transform="matrix(.535 0 0 -.535 -6.5 312)" stroke="#e31837" fill="#e31837"><path d="m308 387-9.7 0.1v-14h69.6v13.9h-2.2l-63.1 68.1 46.9 27.6 15.4 0.2v12l-69.2-0.1v-12h8.1l-91.5-52.2v52.1l11.4 0.1v12h-67.1v-12h11.4v-95.9h-11.4v-13.8h67.1v13.8h-10.9v16.2l52 29.8 43.2-46m87-53"/><path d="m394 334c-45.2-13.4-88.7-6.7-108 17.1-16 18.4-8.5 34.6 1.7 43.4l-20.1 21.7c-16-10.9-21.4-21.1-24.9-31-2.7-8.2-6.5-24.9 1.2-40.5 9.4-16.2 24.6-25.6 34.8-29.3 16.7-7 43.7-13.4 74.3-12.2 21.9 0.5 41 4.5 59.4 13.7 10.7 5.7 12.9 7 23.6 16.9 8 9.2 14.5 14.9 17.2 29.1h-18.4c-7.4-12.2-17.6-21.9-41-28.8"/><path d="m436 397 17.8 0.2 0.2 48.1h-16l-11.4-7.5c-54.2 23.9-92.7 10.7-106 6.5l17.9-19.6c38.5 9.2 79.8-0.4 97.9-27.7"/></g></g></svg>
