<?xml version="1.0" encoding="UTF-8" standalone="no"?>
<svg xmlns:rdf="http://www.w3.org/1999/02/22-rdf-syntax-ns#" xmlns="http://www.w3.org/2000/svg" xml:space="preserve" height="170" viewBox="0 0 191.15544 169.99931" width="191.16" version="1.1" xmlns:cc="http://creativecommons.org/ns#" xmlns:dc="http://purl.org/dc/elements/1.1/"><g transform="matrix(1.25 0 0 -1.25 -286.73 580)"><g style="" transform="matrix(.25 0 0 .25 229.39 297)"><g><path d="m468.05 308.62c-5.7548-8.7266-51.066-73.544-54.187-77.75-0.2531 0.2015-8.0353 6.863-8.3111 7.1022 11.549 16.043 44.2 64.78 44.855 65.775 5.7939 1.4104 11.525 2.9467 17.152 4.7096 0.165 0.0504 0.3299 0.1008 0.4911 0.1637" fill="#fff"/><path d="m489.59 316.47c-8.2104-12.983-53.005-80.47-63.598-95.797-0.073 0.063-0.1889 0.1386-0.2506 0.1889-1.5501 1.4104-3.5511 3.1117-5.7674 4.9615 3.6129 5.1516 45.021 66.719 57.16 85.798 4.245 1.4998 8.3754 3.1355 12.455 4.8481" fill="#b1babf"/><path d="m373.21 195.81c-1.4998-3.7526-2.9341-10.199-2.3435-14.898 0.126-1.0187 0.3287-1.9519 0.568-2.8573v-0.0138c-3.5398-16.257-10.39-16.522-12.204-16.282-0.2897 0.039-0.4534 0.0894-0.4534 0.0894 6.761 5.9928 6.5469 16.848 13.449 31.935 0.3148 0.6926 0.6687 1.3978 1.0087 2.103 0-0.0252-0.0126-0.0504-0.0252-0.0756" fill="#fff"/><path d="m413.24 184.26c0.1901-3.0487-3.3748-7.5065-6.5368-8.6789-2.2919-0.9444-5.3279-1.4103-8.262-1.3965-0.9319 0-1.8486 0.0365-2.7439 0.1247 0.8311 1.399 1.8397 3.0978 2.958 4.9237 2.5185 4.119 5.644 8.9168 8.3501 12.455 1.8511-0.9192 4.5082-2.72 5.7548-5.3266 0.3274-0.6926 0.4798-1.36 0.4798-2.1017" fill="#b1babf"/><path d="m394.71 205.99c-2.3045 2.1155-3.7652 4.3822-4.6845 6.6237-0.0126-0.0114-8.7418-11.424-16.496-28.498 0.2015-0.8437 0.4647-1.6484 0.8059-2.38 2.3914-5.1013 4.5094-6.4991 8.7393-6.2459 0 0 9.8864 16.861 16.863 25.878-1.4368 1.1976-3.1607 2.7213-5.2271 4.6228" fill="#b1babf"/><path d="m390.03 212.61c-1.5892 4.6857-1.2769 9.4054-1.1711 10.276-0.1259-0.1889-0.2506-0.3777-0.3765-0.5666-2.6583-4.1304-5.2776-8.286-7.7709-12.516-2.3939-4.0573-7.0909-13.124-7.2659-13.477-0.0252-0.1889-1.1699-6.9524 0.0856-12.202 0.004 0.0113 0.008 0.0214 0.0126 0.0327 0.0466 0.1196 0.1133 0.277-0.0101-0.0453 7.7545 17.074 16.484 28.487 16.496 28.498" fill="#fff"/><path d="m433.59 192.99c-2.0891 9.18-13.762 18.134-16.458 20.099-5.7674 5.1-20.677 16.748-22.089 19.268-1.5225 2.7452-8.4232 12.102-17.868 13.99 0 0-1.574 0.2267-1.8032-0.9948-0.1134-0.743 0.2015-1.4356 1.3235-1.7378 1.1094-0.2896 4.5963-0.6422 8.4874-4.3067 3.8911-3.6644 5.275-8.5 5.202-12.581-0.1008-4.08 1.3474-9.8348 6.2963-13.55 4.9728-3.7148 10.842-9.9859 15.994-11.423 0.3148-0.0869 0.6145-0.1373 0.9293-0.1637 3.4139-0.3022 6.6502 2.7704 6.1339 4.4968 1.122-3.7287 0.1007-6.4361-1.5741-8.3753 5.7183-5.6289 8.4887-12.051 6.7005-17.832-2.2805-7.4296-10.579-17.416-25.754-17.214-10.804 0.1386-17.152 3.1482-19.922 4.8734 0.0126 0.0264 0.9318 2.0903 0.9948 2.2301-6.3341-1.5237-8.6511 7.8565-8.7518 8.2721-3.5398-16.257-10.39-16.522-12.204-16.282-0.2897 0.039-0.4534 0.0894-0.4534 0.0894s1.36-5.3166 6.6489-7.8603c-2.4064 0.719-5.0748-0.1511-6.5355-2.3674-1.7882-2.6948-1.0452-6.3341 1.6509-8.1223 2.7074-1.7755 6.3328-1.0451 8.1348 1.6635 1.7743 2.6936 1.0452 6.3328-1.6635 8.1084-0.1385 0.0881-0.2645 0.1385-0.4017 0.2141 0.7165-0.2645 1.4469-0.5025 2.3044-0.6422 7.0519-1.1712 9.3677 2.2301 9.3677 2.2301s-0.476 0.9684-0.806 2.3296c0 0-6.975-4.9123-14.683 2.8837 0.2657-0.0881 2.8081-0.9696 7.1916-0.2518 6.5343 0.9709 7.4296 3.0235 7.8704 3.4 0.0113 0.0755 0.0239 0.1259 0.0516 0.1889 5.6528-3.0726 11.899-4.5069 20.789-4.6845 9.9733-0.1876 19.52 2.9341 25.136 7.8326 5.605 4.8872 12.241 15.264 9.7592 26.219" fill="#b1babf"/><path d="m471.72 269.66c-13.877-20.992-27.074-40.347-37.816-55.873 12.429-10.276 11.686-23.221 11.686-25.676-0.2393-13.765-7.5682-24.039-14.28-30.046-8.3489-7.1148-19.758-10.565-31.796-10.653-0.3526 0-8.9659 0.2645-11.925 0.9445-1.2718-1.8637-3.7274-4.1304-7.7193-5.7549-0.4394-1.2592-1.0451-2.5185-1.8385-3.7148-3.2866-4.9363-8.7392-7.6815-14.293-7.6815 0 0-5.6289 0.1637-9.52 2.8447-4.9866 3.2879-7.7318 8.7531-7.7318 14.319v0.1512c0.0126 2.657 0.6548 5.3518 1.9392 7.7948-0.5792 1.3726-2.6066 9.5703-2.6066 9.5703l5.3015 4.6719c0.4281 0.2518 1.7377 2.2289 3.2111 7.2785 1.5615 4.9237 3.4252 12.24 7.3289 20.765 4.974 10.83 11.875 22.037 16.912 29.794-0.4911 2.4807-3.0978 3.6266-4.9741 4.08-2.1029 0.5666-4.697 1.7881-6.7609 4.1933-2.1672 2.5185-3.8282 6.0696-2.8976 10.653 0.9193 4.5208 3.7526 7.7823 7.0645 9.306v0.0126c3.7526 1.9518 8.3866 1.02 8.3866 1.02 11.044-1.02 19.204-11.27 19.204-11.27 10.993 15.338 36.569 53.38 37.11 54.211-33.522-6.4096-68.151-7.2785-96.913-2.5059-52.297 8.6763-92.53 36.518-118.52 49.212-25.991 12.681-75.505 25.676-126.58 12.681-51.064-12.99-84.787-60.04-84.787-60.04 15.25 107.44 81.801 125.55 88.186 127.36 9.6963 9.0792 22.415 36.783-7.7067 55.47-10.288 6.3845-18.927 14.469-18.927 14.469 6.3089-0.7429 21.105 1.2089 29.316 4.4578 9.86 3.8911 18.927 5.1882 18.927 5.1882-7.7822 7.417-19.67 11.132-19.67 11.132 11.875 0.743 30.436 4.823 41.933 10.024 11.497 5.1882 17.806 14.469 15.942 18.549-1.8511 4.0926-12.24 1.8511-12.24 1.8511 3.7148 5.5659 12.618 7.7948 12.618 7.7948-25.601 1.4859-44.25-12.454-44.25-12.454 2.8459 6.1075 12.202 17.088 12.202 17.088-3.5511-1.1711-13.386-4.2437-14.003-4.4326 40.082 30.953 84.824 58.165 147.51 58.568 62.673 0.4155 123.73-27.679 164.42-40.699 40.712-13.021 62.309-19.594 106.27-13.096 21.042 3.123 39.466 11.749 52.964 19.833 0 0 9.4445 24.014 10.164 58.493 0 0 11.32-20.299 11.37-51.907 0.12-108.46-52.44-187.68-69.24-216.52-16.05-28.37-37.16-62.34-62.96-101.44zm115.59 398.34s1.4242-26.079-3.5007-49.955c-4.76-23.07-7.3793-31.859-7.3793-31.859-10.074-5.9059-26.382-13.172-50.219-17.138-44.49-7.417-84.862 4.5333-128.94 21.836-44.087 17.302-103.07 35.939-157.8 29.656-53.065-6.0948-91.032-27.59-111.22-41.606-20.186-14.003-23.901-17.705-41.203-22.654 0 0 13.6-5.3519 20.602-5.3519 0 0-3.2993-13.612-2.0652-18.133 0 0 28.837 13.184 32.136 7.0015 3.2992-6.183-10.301-10.313-19.77-12.769-9.4696-2.4807-34.201-2.0526-34.201-2.0526s11.598-8.9785 15.69-15.212c0 0-21.861-9.52-46.177-6.2208 0 0-0.80593-9.0037 19.179-23.75-4.2563-1.5237-9.6459-3.9919-12.983-7.5556 0 0 20.941 4.3193 34.101-10.338 3.463-4.3444 4.5963-8.2355 4.2059-13.147-0.71778-8.903-4.1304-12.303-12.517-17.844-4.7978-1.9518-9.8978-4.3948-14.821-7.4044-23.157-14.24-40.094-35.9-51.982-60.64-5.15-10.72-9.268-23.17-12.177-34.47-2.9088-11.36-3.9791-21.44-4.6591-27.74-0.68005-6.28-1.6119-26.09-1.6119-26.09s10.389 14.557 15.262 21.533c4.8482 6.9512 35.574 45.585 80.328 56.78 14.318 3.6393 28.573 5.163 42.198 5.163 32.753 0.0252 62.006-8.8652 79.321-17.34 25.135-12.164 66.426-40.876 120.56-49.854 12.745-2.1029 26.482-3.1481 40.724-3.1481 13.663 0 27.804 0.9948 41.933 2.9215-7.9837-11.913-15.64-23.044-22.918-33.358-7.3792 7.0267-17.39 7.757-17.39 7.757-12.139 1.146-18.22-6.2459-18.22-6.2459-2.4568-2.657-4.2953-6.1074-5.0131-10.175-0.8563-3.7652 0.1637-8.1487 0.8702-10.376 2.3158-7.3541 8.5995-10.704 11.042-11.774-17.743-23.636-22.893-50.85-22.893-50.862l-8.0971-7.14 2.9215-11.837c-4.5081-14.519 2.5689-25.412 11.749-29.92 9.3185-4.5837 18.02-1.9267 18.02-1.9267 5.4778 1.5363 10.439 4.9867 13.814 10.049 0.5175 0.7682 0.9696 1.5489 1.3726 2.3296 1.8889 1.02 3.5133 2.166 4.8985 3.4 2.5563-0.2896 9.1044-0.4911 9.1044-0.4911 13.424 0.1134 26.545 3.9163 36.556 12.416 7.883 7.0519 16.559 19.078 16.862 35.511 0 3.0852 0.5667 15.527-9.7089 26.369 64.841 95.2 106.94 156.49 133.81 218.85 71.198 165.29 10.464 234.21 10.2 234.8" fill="#b1babf"/><path d="m373.58 184.25c-0.0125-0.0251-0.0251-0.0629-0.0377-0.0881-0.0126-0.0126-0.0126-0.0252-0.0126-0.0378l0.0378 0.0756c0 0.0252 0.0125 0.0377 0.0125 0.0503zm129.5 149.02c-28.535-13.298-94.38-35.347-159.95-23.107-22.818 4.2563-52.851 11.384-92.568 35.461-26.054 15.778-54.186 30.864-119.77 30.575-54.324-0.2644-89.219-24.883-100.33-34.038 29.479 96.182 116.62 82.116 116.62 82.116-15.904 7.6312-34.995 4.7097-34.995 4.7097 27.301 42.953-16.685 63.064-16.685 63.064 3.7022 0 20.4 4.8229 28.925 7.7948 8.5377 2.9593 24.203 5.0118 24.203 5.0118-5.4652 5.0245-22.352 9.0793-22.352 9.0793 15.955 0 30.398 7.7319 40.447 18.196 3.5007 3.6393 13.084 21.861 2.2163 28.925-9.9985 6.4978-29.832-0.7178-29.844-0.7304 0.0252 0.0252 59.374 63.97 181.85 36.644 58.102-12.97 123.6-46.996 184.07-47.361 20.324-0.1259 65.167 6.4726 91.926 33.408-1.4104-51.176-10.943-122.85-93.764-249.75zm-77.092-112.6c-0.0755 0.063-0.1889 0.1385-0.2518 0.1889-1.5489 1.4104-3.5499 3.1104-5.7674 4.9615 3.614 5.1504 45.018 66.716 57.158 85.806 4.245 1.4985 8.3741 3.1356 12.454 4.8482-8.2091-12.983-53.002-80.479-63.593-95.804zm-2.1659-53.896c-5.6163-4.8985-15.162-8.0215-25.135-7.8326-8.8904 0.1763-15.136 1.6119-20.79 4.6845-0.0252-0.063-0.0378-0.1134-0.0491-0.1889-0.442-0.3778-1.3361-2.4304-7.8704-3.4-4.3835-0.7178-6.9259 0.1637-7.1916 0.2518 7.7067-7.7948 14.683-2.8837 14.683-2.8837 0.3286-1.36 0.8059-2.3296 0.8059-2.3296s-2.3158-3.4013-9.3689-2.2289c-0.8563 0.1385-1.5867 0.3778-2.3045 0.6422 0.1386-0.0755 0.2645-0.1259 0.403-0.214 2.7074-1.7756 3.4378-5.4149 1.6635-8.1097-1.802-2.7074-5.4287-3.4377-8.1348-1.6622-2.6961 1.7882-3.4391 5.4274-1.6509 8.1222 1.4607 2.2163 4.1304 3.0852 6.5355 2.3674-5.2888 2.5437-6.6488 7.8578-6.6488 7.8578 6.7622 5.9941 6.5481 16.849 13.449 31.935 0.3149 0.6926 0.6675 1.3978 1.0075 2.103 0-0.0252-0.0126-0.0504-0.0252-0.0756-1.4986-3.7526-2.9341-10.2-2.3423-14.897 0.126-1.02 0.3287-1.9519 0.5667-2.8585v-0.0126c0.1008-0.4156 2.4178-9.797 8.7519-8.2733-0.063-0.1386-0.9823-2.2037-0.9949-2.2289 2.7704-1.7252 9.1171-4.7348 19.922-4.8734 15.174-0.2014 23.473 9.7832 25.752 17.214 1.7894 5.78-0.9822 12.202-6.6993 17.831 1.6748 1.9393 2.6948 4.6454 1.5741 8.3741 0.5163-1.7252-2.72-4.7978-6.1326-4.4956-0.3148 0.0252-0.617 0.0756-0.9318 0.1637-5.1504 1.4356-11.019 7.7067-15.993 11.422-4.9489 3.7148-6.3971 9.4697-6.2963 13.55 0.0755 4.08-1.3097 8.9155-5.2008 12.58-3.8911 3.6631-7.378 4.017-8.4874 4.3066-1.1207 0.301-1.4355 0.9948-1.3222 1.7378 0.2279 1.2215 1.802 0.9948 1.802 0.9948 9.4444-1.8889 16.344-11.246 17.868-13.99 1.4104-2.5185 16.32-14.167 22.087-19.267 2.6948-1.9645 14.368-10.918 16.458-20.098 2.4808-10.956-4.1542-21.332-9.7592-26.218zm-16.824 24.908c1.8511-0.9193 4.5081-2.72 5.7548-5.3267 0.3274-0.6926 0.4785-1.36 0.4785-2.103 0.1902-3.0474-3.3748-7.5051-6.5355-8.6763-2.2919-0.9444-5.3267-1.4103-8.2608-1.3977-0.9318 0-1.8511 0.0377-2.7452 0.1259 0.8311 1.3978 1.8386 3.0978 2.9593 4.9237 2.5185 4.1178 5.6427 8.9155 8.3489 12.454zm-26.293 18.121c2.4945 4.2311 5.1125 8.3867 7.7696 12.517 0.1259 0.1877 0.2518 0.3778 0.3778 0.5667-0.1134-0.8689-0.4156-5.5911 1.1711-10.276 0.9192-2.2415 2.38-4.5082 4.6844-6.6237 2.0652-1.9015 3.7904-3.4252 5.2259-4.6215-6.975-9.0163-16.861-25.878-16.861-25.878-4.2312-0.2519-6.3467 1.1459-8.738 6.2459-0.3413 0.7304-0.6057 1.5363-0.8072 2.38v0.0126c-1.2593 5.2511-0.1134 12.013-0.0869 12.202 0.175 0.3526 4.8721 9.4193 7.2647 13.474zm69.7 93.953c5.7925 1.4104 11.522 2.9467 17.151 4.7097 0.1637 0.0503 0.3286 0.1007 0.4911 0.1637-5.7548-8.7267-51.063-73.553-54.186-77.759-0.2518 0.2015-8.034 6.863-8.3098 7.1022 11.546 16.043 44.199 64.789 44.854 65.784zm142.15 335.78c-0.719-34.478-10.164-58.493-10.164-58.493-13.498-8.0844-31.922-16.71-52.964-19.833-43.96-6.4978-65.557 0.0756-106.27 13.096-40.687 13.021-101.75 41.115-164.42 40.699-62.686-0.403-107.43-27.616-147.51-58.568 0.617 0.1889 10.452 3.2615 14.003 4.4326 0 0-9.3563-10.981-12.202-17.088 0 0 18.65 13.94 44.25 12.454 0 0-8.903-2.2289-12.618-7.7948 0 0 10.389 2.2415 12.24-1.8511 1.8637-4.08-4.4452-13.361-15.942-18.549-11.497-5.2007-30.058-9.2807-41.933-10.024 0 0 11.887-3.7148 19.67-11.132 0 0-9.0667-1.2971-18.927-5.1882-8.2104-3.2489-23.007-5.2007-29.316-4.4578 0 0 8.6385-8.0844 18.927-14.469 30.121-18.687 17.403-46.391 7.7067-55.47-6.3844-1.8134-72.936-19.922-88.186-127.36 0 0 33.723 47.046 84.786 60.042 51.076 12.996 100.59 0 126.58-12.681 25.991-12.693 66.224-40.536 118.52-49.212 28.762-4.7726 63.391-3.9037 96.913 2.5059-0.5415-0.8311-26.117-38.873-37.11-54.211 0 0-8.16 10.25-19.204 11.27 0 0-4.634 0.9318-8.3866-1.02v-0.0126c-3.3119-1.5237-6.1452-4.7852-7.0645-9.306-0.9306-4.5837 0.7304-8.1348 2.8976-10.653 2.0639-2.4052 4.658-3.6267 6.7609-4.1933 1.8763-0.4534 4.483-1.5993 4.9741-4.08-5.037-7.7571-11.938-18.964-16.912-29.794-3.9037-8.5252-5.7674-15.842-7.3289-20.765-1.4734-5.0496-2.783-7.0267-3.2111-7.2785l-5.3015-4.6719s2.0274-8.1977 2.6066-9.5703c-1.2844-2.443-1.9266-5.1378-1.9392-7.7948v-0.1512c0-5.5659 2.7452-11.031 7.7318-14.319 3.8911-2.681 9.52-2.8447 9.52-2.8447 5.5534 0 11.006 2.7452 14.293 7.6815 0.7934 1.1963 1.3991 2.4556 1.8385 3.7148 3.9919 1.6245 6.4475 3.8912 7.7193 5.7549 2.9593-0.68 11.573-0.9445 11.925-0.9445 12.038 0.0882 23.447 3.5385 31.796 10.653 6.7118 6.0067 14.041 16.281 14.28 30.046 0 2.4555 0.743 15.401-11.686 25.676 10.741 15.527 23.938 34.881 37.816 55.873 25.802 39.1 46.907 73.075 62.963 101.44 16.798 28.838 69.36 108.06 69.247 216.53-0.0503 31.607-11.37 51.907-11.37 51.907zm-219.01-455.37c-0.0126-0.0126-0.0126-0.0252-0.0126-0.0378l0.0378 0.0756c0 0.0252 0.0125 0.0377 0.0125 0.0503-0.0125-0.0251-0.0251-0.0629-0.0377-0.0881"/><path d="m459.97 403.04c-29.317-20.74-75.217-27.074-75.217-27.074-0.5163-1.9897-3.5511-4.08-3.5511-4.08s4.697-1.7378 16.232-10.414c11.522-8.6763 8.3993-8.2482 12.076-10.729 3.677-2.4681 5.7674-1.7756 5.7674-1.7756 1.1082-2.2288 1.2479-5.5407 1.2479-5.5407 1.5351-1.4481 9.0529-8.6259 2.064-16.056-7.0015-7.4297-15.086-0.5289-15.086-0.5289-2.8585-0.6045-5.6414 0.34-5.6414 0.34s-14.96-9.4193-29.818 0.8437c-12.09 8.3363-11.36 18.221-10.653 21.634-4.0812-2.3422-8.4635-4.1681-12.958-5.5785-12.128-3.8029-27.604-5.377-42.98-0.2644-10.099 3.4-18.461 9.2933-25.059 15.829-6.6111 6.5481-11.497 13.776-14.683 20.287-0.4786 0.9948-0.9319 1.9771-1.3349 2.9341-1.0577-2.5185-6.12-12.078-21.798-11.396-18.045 0.7808-24.304 17.315-24.304 17.315s-2.783 0.9319-4.6971 3.123c0 0-10.603-0.6296-11.711 9.52-1.0955 10.15 9.243 11.333 11.346 11.56 0 0 2.0904 2.5689 4.3193 3.677 0 0 1.2593-1.8259 5.6793-2.0652 4.42-0.2392 1.6748 1.3097 16.106 1.2719 14.431-0.0252 19.216-1.4859 19.216-1.4859s-1.1585 3.5007-0.3652 5.4022c0 0-32.778 32.741-43.646 66.967-10.867 34.227-7.543 46.92 5.654 83.01 0 0 9.7845-61.49 39.818-100.12 17.138-22.05 36.418-39.239 49.829-49.942 0.3022 0 0.617-0.0126 0.9193-0.0126-2.8586 3.186-5.0371 6.926-6.12 11.208-2.6823 10.578-7.0771 20.412-9.0919 28.245-2.0148 7.8452 2.4682 23.523 2.4682 23.523-6.0193 9.6459-3.0852 25.525-3.0852 25.525s3.2615 1.5489 5.7422 4.5585c2.4681 3.0222 1.6118 11.938 3.6267 25.059 2.0148 13.121 10.553 26.696 29.467 34.416 18.813 7.6815 47.071-2.3926 47.323-2.4807 0.2518-0.0756 28.875-9.0793 39.251-26.558 10.427-17.567 9.0415-33.559 2.7326-45.233-6.3076-11.686-12.378-18.272-12.215-22.176 0.1511-3.8912 1.8259-7.0897 1.8259-7.0897s-7.2281-14.444-17.869-18.524c0 0-5.8807-15.199-12.227-20.236-6.3215-5.037-15.766-10.225-24.291-17.05-3.3622-2.6949-7.2281-4.3571-11.346-5.2008 0.277-0.2015 0.5415-0.4029 0.8185-0.6044 17.138 0.4533 42.777 2.5311 69.612 9.7466 47.26 12.719 92.153 55.861 92.153 55.861-11.231-36.745-16.244-48.884-45.546-69.637zm44.954 146.58c-60.47 0.3652-125.96 34.39-184.07 47.361-122.48 27.326-181.82-36.619-181.85-36.644 0.0126 0.0126 19.846 7.2282 29.844 0.7304 10.867-7.0645 1.2844-25.286-2.2163-28.925-10.049-10.464-24.493-18.196-40.447-18.196 0 0 16.887-4.0548 22.352-9.0793 0 0-15.665-2.0525-24.203-5.0118-8.5252-2.9719-25.223-7.7948-28.925-7.7948 0 0 43.986-20.11 16.685-63.064 0 0 19.09 2.9215 34.995-4.7097 0 0-87.141 14.066-116.62-82.116 11.107 9.1549 46.001 33.773 100.33 34.038 65.582 0.2897 93.714-14.796 119.77-30.575 39.717-24.077 69.75-31.204 92.568-35.461 65.571-12.24 131.42 9.8096 159.95 23.107 82.821 126.9 92.354 198.57 93.764 249.75-26.759-26.936-71.602-33.534-91.926-33.408" stroke="#d50a0a" fill="#d50a0a"/></g><g><path d="m352.17 469.6 0.7064 2.0778c0.7052 2.1282-0.8689 3.0865-0.957 6.5242-0.126 1.7756-0.2506 3.502 0.4407 5.5534 0.5553 1.6635-0.374 3.5058-2.1105 4.2701-0.1184 0.0479-0.2342 0.097-0.3564 0.1373-0.102 0.039-0.2141 0.063-0.3274 0.0881-1.8524 0.4672-3.7287-0.4533-4.2827-2.1155-0.6926-2.0652-1.8637-3.3496-3.0222-4.6845-2.1534-2.6948-3.9932-2.5059-4.6971-4.6353l-0.7052-2.0765c-0.4042-1.1976 0.024-2.4568 0.9067-3.3761 0.4281-0.4407 0.9318-0.8185 1.5615-1.0326 1.9644-0.6548 4.0435 0.2645 4.6341 2.0526 0.1007 0.2909 0.4268 0.4533 0.7417 0.3539 0.3148-0.1146 0.4923-0.442 0.3916-0.7443-0.6045-1.7743 0.4924-3.7651 2.4417-4.42 0.6296-0.2014 1.2592-0.2014 1.8524-0.1259 1.2718 0.1902 2.3812 0.9445 2.7817 2.1533"/><path d="m360.92 490.6c0.0126-2.3309 0.8072-11.335 4.7499-13.691h0.0126c0.0239-0.0113 0.0491-0.0239 0.0881-0.0365 3.9403-2.696 12.149-3.9553 16.056-3.4755 0.515 0.0617 1.4859 0.3639 1.5098 0.3639l0.0139-0.0126c1.7252 0.9696 3.2741 1.7 4.6844 3.1733 1.8763 1.9531 3.361 4.3596 4.4314 6.8265 0.4672 1.0968 0.8588 2.2163 1.1736 3.3622 0 0 0.8311 3.8168 2.4417 4.3822 0.1776 0.0252 0.34 0.0517 0.505 0.0756l0.112-0.0114-0.0113 0.0366s-5.0131 1.2592-10.718 0.6057c-0.5428-0.0643-1.083-0.1398-1.6383-0.2267-6.3593-1.1585-12.292-2.1294-16.357-0.7568-1.336 0.442-2.4945 1.1975-3.478 2.0161-0.0126 0.0251-0.0365 0.0377-0.0491 0.0491-0.2657 0.2279-0.5163 0.4546-0.7556 0.6812v0.0126c-1.3487 1.2958-2.2289 2.5185-2.4178 2.7956-0.0264 0.0378-0.0755 0.1007-0.0755 0.1007-0.0139-0.0629-0.2897-3.9541-0.2783-6.2711"/><path d="m314.98 518.71c0.9445-1.4229-0.6926-4.9627-0.6926-4.9627-0.4155-1.0326-0.7442-2.0904-1.0212-3.1607-0.9445-3.6645-1.2971-8.2104 0.2141-11.862 0.0629-0.1259 1.0212-1.7881 0.9708-1.8385-0.0881-0.0755-0.1775-0.1511-0.2782-0.2141 0.1007 0.063 0.1901 0.126 0.2782 0.2015 0.0126 0 0.5919-0.8185 0.9684-1.1963 2.822-2.7326 10.137-6.6753 14.911-6.9146 0.0378 0 0.0768-0.0252 0.1133-0.0252 4.5573-0.5037 10.606 6.1969 12.027 8.0606 1.4117 1.8498 3.5763 5.1629 3.5763 5.1629s-1.6635-0.554-3.7538-0.8072v-0.0113c-0.3262-0.0378-0.6662-0.063-1.0175-0.0755-0.0277-0.0139-0.0516-0.0139-0.0642-0.0139-1.2731-0.0617-2.6697 0.039-3.9919 0.4798-4.0674 1.36-8.2129 5.717-12.593 10.478-0.379 0.4017-0.7694 0.7921-1.1736 1.1711-4.0296 3.8407-8.6007 5.843-8.8891 5.9563 0.0239-0.0265 0.0378-0.0391 0.0378-0.0504l0.0251-0.0126c0.1121-0.1133 0.2393-0.2392 0.3526-0.3652"/></g><g fill="#b1babf"><path d="m325.95 416.85c0.0101-0.004 0.029-0.006 0.0491-0.0113 0.0139-0.008 0.029-0.0151 0.0441-0.0176 2.4593-0.8236 4.7915-1.4394 7.2508-1.7164 2.4594-0.2758 5.0522-0.2116 8.0404 0.3173 6.0255 1.0691 12.926 7.2597 15.519 9.0944 2.6016 1.8335 12.428 8.3262 14.653 9.8953 2.2289 1.574 4.0901 2.8887 6.3757 6.7496 2.2931 3.876 6.164 12.878 6.164 12.878s-3.716 0.7329-4.9451 0.8828c0 0-0.0176-0.034-0.0566-0.1008-0.5478-0.9683-4.9791-8.7858-6.5935-10.419 0 0-0.0491-0.006-0.1348-0.0214 0.9672-0.5566 3.7753-2.317 4.2526-4.391 0 0-4.7197-4.3432-10.531-6.9033-5.8191-2.5613-14.62-8.1096-18.088-10.422-1.3134-0.8739-3.0991-1.6282-5.3556-2.0438-1.4079 2.511-6.3039 5.61-12.579 7.718-6.5595 2.2037-12.582 2.6293-15.039 1.2643-1.7907 1.8348-2.8837 3.667-3.4441 5.2826-1.365 3.9339-5.0471 13.673-8.1361 19.22-3.094 5.5508-4.2399 11.862-4.2399 11.862 1.972 1.6509 6.4122 0.8815 6.4122 0.8815-0.0429 0.3022-0.0517 0.7228-0.0466 1.2265 0.0466 3.2816 0.9482 10.102 1.0766 11.059 0.0101 0.0743 0.0177 0.1108 0.0177 0.1108-1.0654 0.6221-4.4843 2.2805-4.4843 2.2805s-0.01-0.0365-0.0239-0.1082c-0.2607-1.0629-2.3422-9.6888-2.8195-13.881-0.5112-4.4628 0.1776-6.6312 1.0137-9.2303 0.8311-2.5954 4.7474-13.701 5.7108-16.728 0.1234-0.3791 0.2556-0.8538 0.4055-1.4016 1.0414-3.8332 2.8484-11.292 6.4914-15.216 4.1317-4.4515 8.121-6.4562 13.041-8.1122"/><path d="m339.32 515.73c4.4074-5.0874 11.346-11.458 15.527-12.807 4.1569-1.4494 13.524-0.5541 20.123 0.8437 6.6388 1.0703 16.486-0.0378 16.486 0.1007-4.0674 5.037-17.919 3.6015-25.728 3.2376-6.7635-0.5289-8.7909 0.4772-9.2556 0.6535-0.4533 0.1259-2.6834 0.5541-7.7847 5.0622-5.9928 5.0006-16.18 14.495-22.453 12.934 0-0.1637 8.4635-5.2007 13.085-10.025"/><path d="m313.47 491.76c-0.1637 0.2267-2.2175 3.1734 0.403 4.7097 0.1007 0.0617 0.2002 0.1259 0.301 0.2014 0.1007 0.063 0.1901 0.1386 0.2782 0.2141 0.0504 0.0504-0.9079 1.7126-0.9708 1.8385-1.5112 3.6519-1.1586 8.1978-0.2141 11.862 0.277 1.0703 0.6057 2.1281 1.0212 3.1607 0 0 1.6371 3.5398 0.6926 4.9627-0.1133 0.126-0.2405 0.2519-0.3526 0.3652l-0.0251 0.0126-0.0769 0.0504s-5.1503-9.4319-5.6037-14.319c-0.4659-4.8985-0.7933-9.4696 4.5472-13.058"/><path d="m330.44 488.74s0.0882-1.5237-3.1607-3.6883c0 0 5.2398-1.6748 9.1787 0.4898 3.9566 2.166 9.1813 12.051 15.833 9.8991 6.5985-2.3045 4.8104-13.336 6.6489-17.442 1.7743-3.9931 6.7106-5.8191 7.0128-5.9198-1.2592 3.6657-0.2745 4.8355-0.2745 4.8355h-0.0126c-3.9427 2.3561-4.7373 11.36-4.7499 13.691-0.0114 2.317 0.2644 6.2082 0.2783 6.2711-2.9605-1.5237-13.778 2.103-15.15 5.0874 0 0-2.1646-3.3131-3.5763-5.1629-1.4217-1.8637-7.4699-8.5643-12.027-8.0606"/><path d="m396.08 491.5c-1.6106-0.5654-2.4417-4.3822-2.4417-4.3822-0.3148-1.1459-0.7064-2.2654-1.1736-3.3622-1.0704-2.4669-2.5551-4.8734-4.4314-6.8265-1.4103-1.4733-2.9592-2.2037-4.6844-3.1733 0.0504-0.2267 0.1133-0.4407 0.2015-0.6536 1.195-2.9353-2.545-4.0182-2.545-4.0182 6.4499-0.3526 8.9282 3.5007 11.524 7.6827 2.5941 4.1681 4.1681 14.798 4.1681 14.798l-0.112 0.0114c-0.165-0.0239-0.3274-0.0504-0.505-0.0756"/><path d="m307.2 483c2.5311-1.1069 5.037-2.2918 7.4422-3.6518 3.6027-2.04 7.4825-4.4452 8.9798-8.5391 0.0125-0.0365 0.0125-0.0755 0.0365-0.1133 0.4042-1.0326 0.4407-2.3158 0.1649-3.3736 0 0.1373-0.0629 0.3149-0.1523 0.5025-0.3274 0.6435-0.8928 1.1081-1.2593 1.7126 0 0.0126-0.0126 0.0252-0.0365 0.0516-0.8072 0.918-1.6748 1.7617-2.6961 2.4556v-0.0391l-0.0239 0.0504s-0.7808-2.7313-2.0022-4.7461c-0.6939-1.1586-1.4368-2.443-2.2176-4.2072 0-0.0252-0.0126-0.0504-0.0239-0.0743-1.5237-3.9566 0.2518-8.1374 0.6674-8.1613 0.4911-0.0378 1.5363 0.4395 3.5133 5.9928 0.0504 0.1272 0.1499 0.3917 0.2141 0.6813 0.0504 0.2644-0.0378 0.7442-0.1511 1.1333 0 0 0.0126 0.0265 0.0239 0.063 0.2405 0.9079 1.4003 0.8311 2.1307 0.7429 0.2506-0.0251 0.5012-0.0629 0.7429-0.1259 0.4395 1.0956 0.9936 2.6079 1.2593 3.8785 0.8311 3.0852 0.7304 7.4309-2.8459 11.524-3.5914 4.0939-12.822 7.1413-16.272 8.8778-3.4629 1.7378-6.5733 10.088-6.1577 15.855 0 0-0.3275-3.2111-0.3275-6.4474 0-1.297 0.0378-2.6079 0.1763-3.7022 0.0756-0.5541 0.1763-1.0578 0.2897-1.4872 0.9948-3.4252 1.1081-5.5911 8.5252-8.8526"/><path d="m358.44 450.22c0.2644-0.1511 0.6913-0.3148 0.855-0.5805 0.3778-0.5415 0.4785-0.7555 0.4785-0.7555-0.3651-0.063-0.7303-0.1134-1.0942-0.1763-0.2015 0.0126-1.1095-0.3148-1.1095-0.5906-1.7617-5.6428-1.2214-6.6376-0.8059-6.902 0.3539-0.2254 4.2828 2.0274 5.4539 6.1074 0 0.0252 0.6548 3.4264 0.792 4.7738 0.2418 2.1786 1.1472 4.6593 1.2593 4.9615l-0.0239-0.0126c0 0.0126 0.0239 0.0366 0.0239 0.0366-3.9906 0.1901-6.2195-1.384-6.2195-1.384s-1.1333-1.9783-1.4481-4.6215c0-0.0125 1.535-0.6925 1.8385-0.8563"/><path d="m385.82 460.4c-3.8168 0.7064-13.008 3.8294-18.336 2.7325-4.3822-0.9066-7.0141-3.3874-8.4748-5.8933 0.0126 0.0126 0.0239 0.0378 0.0503 0.0378 0.024 0.0252 0.0365 0.0252 0.0504 0.0516 2.9467 3.3988 8.2985 3.2602 12.342 2.7439 3.1595-0.3903 6.2963-1.0577 9.3941-1.7994 7.8955-1.865 9.292-0.2154 12.138 1.9254 2.4455 1.8385 4.4464 4.6718 5.9323 7.3175 0.0366 0.0491 0.0643 0.0869 0.0882 0.1373-3.575-4.2173-9.8222-7.8704-13.184-7.2533"/><path d="m353.54 476.7v0.0264l-0.0151 0.0504c-0.1247 1.7378-0.2506 3.0474 0.2909 4.6844 0.8575 2.5639-0.7241 5.4224-3.5713 6.562 1.7365-0.7643 2.6658-2.6066 2.1105-4.2701-0.6913-2.0514-0.5667-3.7778-0.4407-5.5534 0.0881-3.4377 1.6622-4.396 0.957-6.5242l-0.7064-2.0778c-0.4005-1.2088-1.5099-1.9631-2.7817-2.1533 0-0.0239-0.0126-0.0504-0.024-0.0755-0.6699-1.9771-2.7326-2.5047-2.7326-2.5047v-0.0139c3.0714-1.02 6.2963 0.3023 7.1892 2.9857l0.6686 1.9897c0.5289 1.4595 0.1134 2.8824-0.2292 3.7778-0.3387 0.957-0.6535 1.7-0.7152 3.0965"/><path d="m336.86 474.74 0.7052 2.0765c0.7039 2.1294 2.5437 1.9405 4.6971 4.6353 1.1585 1.3349 2.3296 2.6193 3.0222 4.6845 0.554 1.6622 2.4303 2.5827 4.2827 2.1155-2.9983 0.8437-5.9815-0.5037-6.8529-3.0474-0.5402-1.637-1.4456-2.6192-2.6192-3.915v-0.0126l-0.0366-0.0516c-0.894-1.0704-1.5879-1.4734-2.4429-2.0274-0.8336-0.5037-2.0035-1.3966-2.4682-2.8837l-0.6699-1.9897c-0.8928-2.6709 0.8714-5.6679 3.9302-6.6992 0 0-1.3336 1.6609-0.6674 3.6506 0 0.0264 0.0138 0.0629 0.0264 0.0881-0.8827 0.9193-1.3109 2.1785-0.9067 3.3761"/></g><g><path d="m299.16 465.97s1.1459-6.3114 4.2399-11.862c3.089-5.5471 6.7711-15.286 8.1361-19.22 0.5604-1.6156 1.6534-3.4478 3.4441-5.2826 2.4568 1.365 8.4798 0.9394 15.039-1.2643 6.2749-2.108 11.171-5.207 12.579-7.718 2.2565 0.4156 4.0422 1.1699 5.3556 2.0438 3.468 2.312 12.269 7.8603 18.088 10.422 5.8115 2.5601 10.531 6.9033 10.531 6.9033-0.4773 2.074-3.2854 3.8344-4.2526 4.391-0.578-0.1058-2.8774-0.5654-4.0283-1.4141-1.3159-0.9697-6.0999-8.0883-12.365-10.764 0.5931 3.5222-1.6861 5.3481-2.2717 5.2864-0.5805-0.0693-1.0427-1.4519-1.1635-1.8007-0.1209-0.3539-1.3311-2.7352-1.7441-3.8521-0.4131-1.1182-0.2871-1.2077-0.2871-1.2077-1.0062 0.0278-2.0123 0.0844-3.0084 0.1625 0.9596 1.8083 1.8146 3.6065 2.6218 5.3984 0.583 1.496-1.0137 1.8234-1.0137 1.8234l-0.009 0.0101c-0.8929 0.1373-1.7844 0.2871-2.676 0.4546-0.0352 0.005-0.0592 0-0.0969 0.002-1.1183 0.199-1.797-0.5012-1.9406-0.9293-0.1108-0.2833-0.2165-0.5642-0.3362-0.8437-0.408-0.9898-0.8512-1.9758-1.2769-2.9618-0.0201-0.0567-0.034-0.1209-0.0642-0.1725-0.5062-1.2467-0.0755-2.2893-0.0755-2.2893-0.3501 0.0239-1.1812-0.003-2.579 0.2732-0.6636 0.1322-1.5476 0.5239-1.5476 0.5239 0.4923 0.4029 0.792 1.1698 0.792 1.1698l0.0101-0.004c0.8903 2.1786 2.2667 5.5609 2.2667 5.5609s0.544 1.4557-0.4055 1.7366c-1.2832 0.3198-2.5601 0.6711-3.8307 1.0527-0.9633 0.204-1.3839-0.5881-1.4897-0.8462-0.1964-0.5113-0.5415-1.2983-0.6586-1.6547-0.4898-1.3927-0.9746-2.7779-1.4569-4.1581 0-0.0214 0-0.0365-0.005-0.0541-0.2997-0.8903-0.0629-1.7265-0.0629-1.7265s-1.2354 0.2506-1.8839 0.4206c-0.6548 0.1726-1.6282 0.8563-1.6282 0.8563 0.1574 0.1625 0.3463 0.6045 0.481 0.9193 0.5906 2.0664 1.1472 4.6542 1.6434 6.8138 0.0365 0.3023 0.044 1.2001-0.8651 1.5817-1.083 0.3954-2.1647 0.8109-3.2275 1.2492-0.9445 0.2971-1.3575-0.4798-1.5048-0.9395-0.4282-1.9556-0.9306-4.2915-1.2543-5.989-0.136-1.1912 0.403-2.0249 0.403-2.0249-0.4987 0.1234-1.5098 0.5591-2.3221 0.9029-0.5314 0.2242-1.7113 0.9986-1.7113 0.9986 0.6044 0.0542 0.9495 1.3411 0.9495 1.3411 0.6737 1.394 1.1207 2.6016 1.6471 3.9226 0.0201 0.0642 0.0491 0.1184 0.0692 0.1826 0.0152 0.039 0.0202 0.068 0.0441 0.1196 0.5214 1.4003-0.4546 2.1445-0.617 2.2629-1.4041 0.7014-2.9882 1.5275-3.0033 1.5275-0.8035 0.4307-1.3424-0.1373-1.5124-0.6888-0.5579-1.5766-1.4293-3.0071-1.7315-4.7411-0.1398-0.9822-0.0592-1.6711-0.0592-1.6711-1.9153 0.913-2.6192 2.3549-2.6192 2.3549 0.4571 0.5477 1.0678 2.4807 1.0817 4.289 0.0201 1.8095 0.1334 3.4982-0.7128 4.0976-0.8462 0.6007-2.2578-0.9205-2.9844-1.9946-0.7203-1.0729-0.8878-1.6975-0.8878-1.6975v-0.1398c-3.3937 5.911-2.9215 14.502-3.3786 16.078-0.4697 1.5665-2.4618 3.6607-2.4618 3.6607s-4.4402 0.7694-6.4122-0.8815" fill="#fff"/><path d="m349.89 488.16c0.1222-0.0403 0.238-0.0894 0.3564-0.1373-0.1159 0.0504-0.2342 0.097-0.3564 0.1373" fill="#fff"/><path d="m442.58 411.74-0.2455-0.1964s-32.276-19.214-81.312-22.725c1.5691-2.3296 2.9568-4.6391 4.1203-6.8995 15.257 0.8563 30.697 2.9781 45.289 7.0241 9.3286 2.5878 18.511 5.872 27.27 10.007 8.8173 4.1631 17.465 9.1397 25.069 15.276 4.959 4.0019 9.6057 8.3161 13.868 13.053 5.8643 6.5154 11.221 14.274 14.114 22.614 0 0 0.2355 0.6888 0.2305 0.6863-0.2355-0.549-9.5716-21.994-48.405-38.841" fill="#b1babf"/><path d="m352.55 399.26c1.9619-2.0299 3.7551-4.0963 5.3909-6.193 0 0 5.2146 0.3828 5.9349 0.442 8.9949 0.7556 17.986 1.8499 26.873 3.4542 21.983 3.9691 38.605 9.5867 46.499 12.556 1.8461 0.7279 3.6078 1.4734 5.3342 2.2226 38.833 16.846 48.169 38.292 48.405 38.841-0.0466-0.0932-1.6031-1.3776-4.1065-3.4063-1.0728-0.884-2.2477-1.8398-3.5813-2.895-14.592-11.524-45.026-32.248-94.582-41.154-12.011-2.1583-24.248-3.3408-36.167-3.8672" fill="#fff"/><path d="m359.86 362.13c-10.031-6.3228-32.42-12.172-53.981-4.9401-21.162 7.106-35.223 25.195-39.726 36.209-0.5276 1.1434-0.6649 4.2298 2.4266 5.6603 0 0-1.9531-0.2783-3.7123-1.7214 0 0-0.1549-0.2279-0.3136-0.7001-2.3686-7.0657 11.972-37.143 39.048-46.232 27.092-9.0931 56.392 5.4388 59.037 13.315 0.1813 0.573 0.2178 1.0339 0.2178 1.0339-0.6145 1.9279-1.7906 3.1292-1.7906 3.1292 1.506-2.8421-0.0391-4.9262-1.2064-5.7535" fill="#d71e25"/><path d="m339.34 381.45c-0.0151-0.34-0.0327-0.6825-0.0516-1.0238-0.8916 0.4521-1.7932 0.9029-2.7112 1.3487-0.3387-2.0513-0.8387-4.0762-1.5224-6.0621-1.355 0.7871-2.7402 1.5426-4.1342 2.268 0.6133 1.9027 1.0943 3.8281 1.4608 5.7661-1.4923 0.6775-3.0172 1.3424-4.5724 1.9922-0.4105-1.8398-0.9029-3.6783-1.4784-5.5093-1.428 0.6598-2.8711 1.2933-4.3218 1.8876 0.5667 1.7806 1.0805 3.56 1.5477 5.3305-1.5225 0.5868-3.0701 1.1572-4.6429 1.7088-0.5365-1.7189-1.0918-3.4554-1.6673-5.202-1.4796 0.5314-2.9605 1.0313-4.459 1.496 0.5931 1.7403 1.1963 3.4592 1.8058 5.1529-1.5867 0.5049-3.1658 0.9797-4.7361 1.4267-0.6939-1.6912-1.3575-3.4151-1.977-5.1743-1.5124 0.4042-3.0475 0.7694-4.5812 1.1069 0.6384 1.797 1.3537 3.5486 2.1294 5.2574-1.6358 0.4143-3.2577 0.7996-4.8595 1.1535-0.8689-1.7554-1.6383-3.5687-2.2906-5.4425-1.5489 0.2682-3.1104 0.4949-4.6706 0.6888 0.6447 1.9733 1.4607 3.871 2.414 5.6918-1.0074 0.1927-2.006 0.374-2.992 0.5453 0.2141 0.3236 0.4319 0.6447 0.6523 0.9633-9.1951 1.6409-17.545 2.3209-24.295 2.38 5.5924 1.2417 15.155 1.826 26.42 0.4849 0.0857 0.1082 0.1688 0.2191 0.2569 0.3248 0.8551-0.1007 1.7202-0.214 2.5941-0.3387 0.7732 1.1207 1.5967 2.2087 2.4669 3.2615 1.4569-0.1876 2.8799-0.4017 4.2727-0.6359-0.7921-1.0855-1.5489-2.2037-2.268-3.3509 1.5439-0.2808 3.1079-0.6007 4.6895-0.9571 0.6447 1.18 1.3159 2.3372 2.0085 3.4643 1.3285-0.2859 2.6369-0.5932 3.9226-0.9218-0.5906-1.1674-1.1686-2.3624-1.734-3.5763 1.4721-0.3929 2.953-0.8211 4.4427-1.2857 0.4684 1.2479 0.9394 2.4795 1.4091 3.6883 1.2492-0.3878 2.4883-0.8021 3.7186-1.2454-0.3564-1.2479-0.7228-2.5122-1.1019-3.7903 1.4683-0.5226 2.9064-1.0717 4.3193-1.6396 0.2796 1.3033 0.5377 2.5979 0.7694 3.8785 1.2316-0.5112 2.4543-1.0527 3.6896-1.6307-0.1272-1.3046-0.2883-2.6193-0.4823-3.9365 1.4734-0.6585 2.9114-1.3373 4.3117-2.0324 0.1121 1.326 0.1814 2.652 0.204 3.9717 1.2568-0.6523 2.5186-1.3424 3.7942-2.0702 0.0592-1.3311 0.063-2.6608 0.007-3.9868 0.7707-0.4206 1.525-0.8437 2.268-1.2706 0.007-0.2078 0.01-0.4156 0.0151-0.6246 9.5099-5.5748 16.587-11.576 20.195-15.874-5.2876 3.8999-12.162 8.2305-20.236 12.343zm-15.762 28.498c-24.955 8.3716-52.031-3.9981-57.984-11.516-0.2418-0.306-0.4697-0.6271-0.6611-0.9659-0.0201-0.0352-0.0441-0.1057-0.073-0.1322 1.7592 1.4431 3.7123 1.7214 3.7123 1.7214-3.0915-1.4305-2.9542-4.5169-2.4266-5.6603 4.5031-11.014 18.564-29.103 39.726-36.209 21.561-7.2319 43.949-1.3827 53.981 4.9401 1.1673 0.8273 2.7124 2.9114 1.2064 5.7535 0 0 1.1761-1.2013 1.7906-3.1292 0.2607 1.8725-0.1473 4.5245-1.1874 7.6286-4.0209 11.964-17.421 30.635-38.084 37.569" stroke="#ff7900" fill="#ff7900"/><path d="m269.39 399.2c6.7496-0.0591 15.1-0.7391 24.295-2.38 0.6813 0.986 1.389 1.9418 2.1256 2.8649-11.265 1.3411-20.828 0.7568-26.42-0.4849"/><path d="m339.39 384.98c0.0264-1.1699 0.0113-2.3473-0.0416-3.531 8.0744-4.1127 14.949-8.4433 20.236-12.343-3.6078 4.2978-10.685 10.299-20.195 15.874"/><path d="m339.39 384.98c-0.005 0.209-0.008 0.4168-0.0151 0.6246-0.743 0.4269-1.4973 0.85-2.268 1.2706 0.0555 1.326 0.0517 2.6557-0.007 3.9868-1.2756 0.7278-2.5374 1.4179-3.7942 2.0702-0.0226-1.3197-0.0919-2.6457-0.204-3.9717-1.4003 0.6951-2.8383 1.3739-4.3117 2.0324 0.194 1.3172 0.3551 2.6319 0.4823 3.9365-1.2353 0.578-2.458 1.1195-3.6896 1.6307-0.2317-1.2806-0.4898-2.5752-0.7694-3.8785-1.4129 0.5679-2.851 1.117-4.3193 1.6396 0.3791 1.2781 0.7455 2.5424 1.1019 3.7903-1.2303 0.4433-2.4694 0.8576-3.7186 1.2454-0.4697-1.2088-0.9407-2.4404-1.4091-3.6883-1.4897 0.4646-2.9706 0.8928-4.4427 1.2857 0.5654 1.2139 1.1434 2.4089 1.734 3.5763-1.2857 0.3286-2.5941 0.6359-3.9226 0.9218-0.6926-1.1271-1.3638-2.2843-2.0085-3.4643-1.5816 0.3564-3.1456 0.6763-4.6895 0.9571 0.7191 1.1472 1.4759 2.2654 2.268 3.3509-1.3928 0.2342-2.8158 0.4483-4.2727 0.6359-0.8702-1.0528-1.6937-2.1408-2.4669-3.2615-0.8739 0.1247-1.739 0.238-2.5941 0.3387-0.0881-0.1057-0.1712-0.2166-0.2569-0.3248-0.7366-0.9231-1.4443-1.8789-2.1256-2.8649-0.2204-0.3186-0.4382-0.6397-0.6523-0.9633 0.986-0.1713 1.9846-0.3526 2.992-0.5453-0.9533-1.8208-1.7693-3.7185-2.414-5.6918 1.5602-0.1939 3.1217-0.4206 4.6706-0.6888 0.6523 1.8738 1.4217 3.6871 2.2906 5.4425 1.6018-0.3539 3.2237-0.7392 4.8595-1.1535-0.7757-1.7088-1.491-3.4604-2.1294-5.2574 1.5337-0.3375 3.0688-0.7027 4.5812-1.1069 0.6195 1.7592 1.2831 3.4831 1.977 5.1743 1.5703-0.447 3.1494-0.9218 4.7361-1.4267-0.6095-1.6937-1.2127-3.4126-1.8058-5.1529 1.4985-0.4647 2.9794-0.9646 4.459-1.496 0.5755 1.7466 1.1308 3.4831 1.6673 5.202 1.5728-0.5516 3.1204-1.122 4.6429-1.7088-0.4672-1.7705-0.981-3.5499-1.5477-5.3305 1.4507-0.5943 2.8938-1.2278 4.3218-1.8876 0.5755 1.831 1.0679 3.6695 1.4784 5.5093 1.5552-0.6498 3.0801-1.3147 4.5724-1.9922-0.3665-1.938-0.8475-3.8634-1.4608-5.7661 1.394-0.7254 2.7792-1.4809 4.1342-2.268 0.6837 1.9859 1.1837 4.0108 1.5224 6.0621 0.918-0.4458 1.8196-0.8966 2.7112-1.3487 0.0189 0.3413 0.0365 0.6838 0.0516 1.0238 0.0529 1.1837 0.068 2.3611 0.0416 3.531" fill="#fff"/><path d="m230.05 482.65 1.3953-2.5085c0.9104-1.4809 2.0513-3.4604 3.5196-5.8631 7.0468-11.283 16.413-23.418 28.959-36.049 0.0403-0.0365 15.636-15.42 22.283-21.278 2.5726 0.7026 5.2737 1.2857 8.0693 1.739-9.2606 7.6588-18.385 16.04-26.728 25.078-42.17 45.682-50.226 88.159-52.937 99.568 0 0-4.012-25.062 15.438-60.687" fill="#fff"/></g><g fill="#b1babf"><path d="m269.34 416.28c0.4496-0.3992 4.1165-4.051 4.4817-3.8773 2.2868 1.0906 4.7852 2.098 7.4422 3.0235-37.185 32.437-51.329 67.423-51.329 67.423l0.1108-0.2002c-19.45 35.626-15.438 60.687-15.438 60.687s-0.2431-0.7165-0.2431-0.719c-1.6294-4.799-2.2427-10.036-2.5084-15.073-0.4508-8.5227 0.3488-17.096 2.1521-25.432 1.9153-8.8564 4.9778-17.389 8.7342-25.623 3.8433-8.4283 8.5957-16.43 13.888-24.027 6.5166-9.3588 13.951-18.068 22.013-26.131 3.4604-3.4604 7.0317-6.8076 10.696-10.051"/><path d="m231.45 480.14-1.3953 2.5085c0.4533-0.8312 0.9167-1.666 1.3953-2.5085"/><path d="m226 402.29c-0.3274-0.6712-0.5515-1.2996-0.5415-1.773 0.0202-0.7241 0.3589-1.3764 0.6889-1.8612 0 0 11.526-0.6145 18.772-2.6029 0.2884 1.0313 0.6624 2.2956 1.1585 3.8332 0.3098 0.9784 0.7304 1.8007 1.1976 2.5412-0.0239-0.0227-0.0491-0.0479-0.068-0.0706-3.0109 0.5201-14.921 0.6763-21.207-0.0667"/></g><g><path d="m226 402.29c6.2862 0.743 18.196 0.5868 21.207 0.0667 0.0189 0.0227 0.0441 0.0479 0.068 0.0718 1.7365 2.7465 4.3142 3.9705 6.1842 4.5913-3.1154 0.4936-6.771 0.9104-9.9116 1.1912-1.5602 0.1398-3.123 0.2519-4.687 0.3274-0.991 0.0492-1.982 0.0794-2.9743 0.0995-2.0589-0.3979-4.4213-1.1371-6.0747-2.2226-1.9179-1.2454-3.1582-2.798-3.8118-4.1253" fill="#fff"/><path d="m223.35 402.12c0.0718 0.0806 0.3363 0.5793 0.3841 0.6687 0.7241 1.3688 2.1445 2.6722 3.4756 3.4479 0.0138 0.009 0.0264 0.0214 0.039 0.0264 2.3271 1.3978 5.9815 2.2453 8.291 2.3724 0.0667 0.008-0.8148 0.0252-1.2568 0.0227-2.8686-0.0138-5.7346-0.2959-8.5743-0.6926-2.516-0.3501-4.9312-0.7895-7.2583-0.7681-0.7405 0.002-1.4532 0.0566-2.142 0.1876-0.0101 0.001-0.0277 0-0.0391 0.002 0.0114-0.002 0.029-0.001 0.0391-0.002-0.6549 0.1234-1.2908 0.3073-1.9166 0.5742 0.0277-0.1032 1.3826-5.8392 8.9583-5.8392" fill="#fff"/><path d="m261.92 419.47c-0.4118-0.1146-0.6964-0.4496-0.5831-1.1019 0.1083-0.651 0.7745-2.5487-0.1964-5.4601-0.9747-2.924-3.1582-4.8091-5.3128-5.751-2.1471-0.9407-4.7915-3.0726-5.5345-6.5545-0.7329-3.4806-2.618-8.0643-2.0954-11.09 0.199-1.1522 1.3399-2.7464 3.9705-2.6344-1.797-1.4884-3.4932-1.3776-4.8734-0.748-2.1772-4.0182-5.4538-5.6742-11.415-4.5157-6.1023 1.1837-13.829 7.0343-15.432 16.913 0.002 0.2103 2.9417 0.1951 3.2124 0.1951h0.0403c-0.3602 0.4697-0.748 1.151-0.7732 1.8902-0.0101 0.4118 0.1625 0.9419 0.4256 1.5098-7.5757 0-8.9306 5.736-8.9583 5.8392 0 0-2.404-1.9304-2.506-5.2259-0.2606 1.36-1.3486 2.4707-2.7892 2.686-1.8247 0.2808-3.5373-0.9759-3.8118-2.8069-0.2758-1.8284 0.9885-3.541 2.8132-3.8168 1.8259-0.2733 3.5372 0.981 3.813 2.8094 0.006 0.0441 0.008 0.0869 0.0126 0.1322 0.0428-0.3903 0.1171-0.7971 0.233-1.2177 0.3173-1.1661 0.7505-1.9946 1.195-2.6243 1.0679-1.5086 2.2289-1.7277 2.2289-1.7277 0.0126-0.002 0.1637 0.2141 0.1763 0.2279 0.0793 0.0932 0.7581 0.8022 0.8462 0.7443-0.7669 0.4961-4.0334 2.9731-2.0463 8.3829 0 0-0.1133-4.8834 3.9251-7.4826 0.4433-2.0211 3.6116-14.101 15.457-17.86 12.933-4.109 17.916 2.0563 19.077 4.3784 0.5263 1.0628 1.8498 4.3583 1.8498 4.3583 1.122 3.2124 3.9642 15.71 5.032 17.166 1.0628 1.4608 4.2702 7.31 2.9719 12.684 0 0-0.2632 0.8815-0.952 0.7002" fill="#b1babf"/><path d="m377.79 365.3c1.1144-1.6181 2.448-4.2676 2.1848-7.4938 2.7011-1.3991 12.299-8.4534 16.864-12.846 0.2795 1.4557 0.2254 3.4428-0.5566 5.5923-0.6637 1.865-2.0954 3.8735-3.4995 5.4363-0.1813 0.1347-0.3639 0.2694-0.5478 0.4054-1.4368 1.0314-2.9127 2.0123-4.4011 2.9681-2.0841 1.3386-4.2021 2.623-6.3479 3.8609-1.0175 0.5856-2.0463 1.156-3.0714 1.7327-0.2165 0.1222-0.4155 0.2254-0.6245 0.3438" fill="#fff"/><path d="m398.25 348.89c0.5528-1.3688 0.8588-3.0663 0.7694-4.5446-0.0239-0.408-0.0831-0.772-0.1574-1.1132 0.005-0.005 0.0151-0.0252 0.0201-0.0328 0.2657-0.2002 0.5264-0.3878 0.7845-0.5603 0.4206-0.2821 0.8589-0.5314 1.3059-0.7644 0.709-0.3652 1.4507-0.6473 2.2251-0.8362 0.5528-0.1334 1.1711-0.2178 1.7416-0.2178 1.6609 0 3.2048 0.646 4.5182 1.6307 0.0201 0.0139 0.0403 0.0265 0.0592 0.0429-0.6397 0.1548-1.2442 0.3802-1.8272 0.6661-0.6372 0.3123-1.2517 0.7102-1.8574 1.161-0.7997 0.5957-3.1595 2.822-3.7299 3.4-0.7758 0.7833-1.5603 1.5577-2.3448 2.3322-0.952 0.9356-3.0197 2.8484-3.9843 3.5788-0.2115 0.1599-2.7477 2.1936-2.7477 2.1936 0.0919-0.0768 4.3016-4.5157 5.2247-6.936" fill="#fff"/></g><g fill="#b1babf"><path d="m403.19 341.04c-0.7744 0.1889-1.5161 0.471-2.2251 0.8362-0.447 0.233-0.8853 0.4823-1.3059 0.7644-0.2581 0.1725-0.5188 0.3601-0.7845 0.5603-0.01 0.008-0.0201 0.0151-0.0302 0.0227-0.1322-0.6082-0.3148-1.1371-0.573-1.4582-0.4621-0.5755-1.1874-0.884-1.7503-1.0465 0.0113-0.004 0.0239-0.0163 0.0365-0.0264 0.8437-0.6762 1.7113-1.2731 2.4354-2.0879-7.2357-6.907-16.926-6.9158-22.512-4.1794-5.4601 2.6784-7.0695 5.9789-6.3781 10.514-1.4759 0.3274-2.9001 1.2366-3.4303 3.5096 0.0492-0.0441 0.1121-0.0705 0.1638-0.1134 1.258-1.0162 3.3105-1.3889 4.5824-0.1813 1.1459 1.0893 2.0362 2.8799 2.8384 4.8028 0.7329 1.7642 1.3675 3.5725 2.1772 5.3028 0.3262 0.7014 0.5604 1.467 0.6851 2.2314 0.3651 2.152-0.0857 4.4426-1.146 6.3429-1.1409 2.0475-1.7554 4.8708-0.7643 7.7923 0.9885 2.9025 2.6583 4.017 3.1355 4.4691 0.4874 0.4483 0.4571 0.8928 0.199 1.2353-0.4395 0.5553-1.1749 0.0113-1.1749 0.0113-4.2827-3.502-5.2511-10.103-5.2813-11.911-0.0265-1.8083-5.3028-13.484-6.3429-16.718-0.0441-0.1348-0.9445-2.9089-1.1535-4.5938-0.3199-2.579-0.2216-10.474 12.569-15.004 11.712-4.1455 21.488 3.6242 23.067 4.9779 3.2904-0.2443 5.6817 1.4708 6.8428 2.6167 0.5314 0.5213 0.8412 0.9243 0.8412 0.9243-1.2643-4.1518-3.9012-5.1743-5.5143-5.4035-0.5239-0.073-0.9445-0.0667-1.1711-0.0466 0.034-0.1057 0.0491-0.1889 0.0743-0.2833 0.1863-0.6951 0.1473-1.1132 0.1473-1.1132s0.3815-0.1826 1.0401-0.2241c0.9269-0.0567 2.4153 0.17 4.3218 1.6332 0.3236 0.2531 0.5705 0.5239 0.8286 0.7896-0.7455-1.5741-0.17-3.468 1.3839-4.3117 1.6094-0.8752 3.6229-0.2733 4.4918 1.3348 0.8752 1.6043 0.2758 3.6204-1.3335 4.4893-1.185 0.6472-2.5828 0.4848-3.5826-0.2783 0.9709 1.6043 1.0842 3.2488 1.03 4.2827-0.007 0.1763-0.1183 0.9759-0.1322 0.981-0.0126-0.0114-0.0302-0.0189-0.0453-0.0303-1.3134-0.9847-2.8573-1.6307-4.5182-1.6307-0.5705 0-1.1888 0.0844-1.7416 0.2178"/><path d="m379.38 355.16c-0.5428-1.5275-0.9999-2.7616-1.3965-3.7551 6.431-2.8951 12.531-6.5003 16.545-9.2493 0.5654 0.1902 1.224 0.5025 1.6773 1.0704 0.2896 0.3715 0.4911 1.0061 0.6347 1.7378-4.5648 4.3923-14.163 11.447-16.864 12.846 0 0-0.2531-1.6673-0.5969-2.6495"/><path d="m361.05 565.52c-35.851 6.1074-42.764-20.79-42.89-27.326-0.0881-4.7726 0.2267-7.9963 0.0756-9.9103-5.2133-2.1786-10.792-2.9719-10.792-2.9719 0.3023 3.0222 0.2897 9.6963 1.5867 14.96 1.2215 4.9489 9.4822 26.558 38.521 26.684 3.0096 0 6.2333-0.2141 9.6963-0.7052 1.2466-0.214 2.4555-0.4533 3.6266-0.6926 0.063-0.0126 0.1134-0.0251 0.1763-0.0377"/></g><g><path d="m490.76 449.89c-2.8963-8.3363-8.2481-16.093-14.116-22.604-4.2689-4.7474-8.9155-9.0541-13.864-13.058-7.6059-6.1326-16.257-11.119-25.072-15.275-8.7644-4.1429-17.944-7.417-27.276-10.011-14.595-4.0422-30.033-6.1703-45.283-7.0266-1.1711 2.2666-2.5563 4.5711-4.1178 6.9007 49.023 3.5133 81.312 22.73 81.312 22.73l0.238 0.2015c-1.7252-0.7555-3.4882-1.4985-5.3393-2.2289-7.883-2.9718-24.505-8.5881-46.492-12.555-8.8903-1.6118-17.881-2.6948-26.872-3.4504-0.7178-0.0642-5.9312-0.4533-5.9312-0.4533-1.637 2.103-3.4365 4.1682-5.4022 6.1956 11.925 0.5289 24.165 1.7126 36.178 3.8659 49.552 8.9155 79.988 29.63 94.57 41.153 1.3348 1.0578 2.5185 2.0148 3.5889 2.8963 2.5059 2.0274 4.0548 3.3118 4.1052 3.4126l-0.0126-0.0378-0.2141-0.6548zm-109.28-86.67c2.1533-1.2341 4.2689-2.5186 6.3467-3.8534 1.4985-0.957 2.9718-1.9392 4.4074-2.9718 0.1763-0.1385 0.3664-0.2645 0.5415-0.4042 1.4103-1.5603 2.8459-3.5751 3.5007-5.4388 0.782-2.1407 0.8437-4.1304 0.5541-5.5911-0.1373-0.7304-0.34-1.36-0.6297-1.7378-0.452-0.5666-1.1081-0.8815-1.6748-1.0703-4.017 2.7451-10.111 6.3592-16.547 9.2555 0.3903 0.9948 0.8563 2.2289 1.399 3.7526 0.3387 0.9822 0.5906 2.6444 0.5906 2.6444 0.2644 3.2225-1.0704 5.8808-2.1785 7.4926 0.2015-0.1133 0.4029-0.214 0.617-0.34 1.0326-0.5792 2.0526-1.1459 3.0726-1.7377zm14.293-9.583c0.957-0.7304 3.0348-2.6444 3.9793-3.5763 0.7807-0.7807 1.574-1.5489 2.3434-2.3296 0.5793-0.5793 2.9328-2.8082 3.7388-3.4 0.6044-0.4534 1.2089-0.8563 1.8511-1.1711 0.5792-0.2771 1.1837-0.5037 1.8259-0.6674l-0.0126-0.0126c0.0126 0 0.1259-0.7934 0.1259-0.9709 0.063-1.0314-0.0503-2.681-1.02-4.2802 0.9961 0.7555 2.3926 0.9192 3.5763 0.277 1.6119-0.8689 2.2163-2.8963 1.3349-4.4968-0.8689-1.6106-2.8837-2.2037-4.4943-1.3336-1.5502 0.8437-2.1294 2.7326-1.3865 4.3067-0.2518-0.2645-0.5024-0.5289-0.8172-0.7808-1.9154-1.4607-3.4013-1.6874-4.3332-1.637-0.6548 0.0378-1.0325 0.2267-1.0325 0.2267s0.0377 0.4155-0.1512 1.1069c-0.0251 0.102-0.0377 0.1775-0.0755 0.2909 0.2267-0.0252 0.6548-0.0252 1.1711 0.0503 1.6118 0.2267 4.2563 1.2467 5.503 5.3897-0.063-0.0882-0.3526-0.4534-0.8312-0.9193-1.1585-1.1459-3.5511-2.8585-6.8377-2.6193-1.5741-1.3474-11.357-9.1183-23.07-4.974-12.781 4.5333-12.882 12.429-12.567 15.01 0.2141 1.6748 1.1082 4.4565 1.1586 4.5837 1.0338 3.2363 6.3088 14.91 6.334 16.723 0.0378 1.8133 1.0074 8.4118 5.2889 11.913 0 0 0.7304 0.5415 1.1711-0.0126 0.2645-0.34 0.2897-0.7933-0.2015-1.2341-0.4785-0.4533-2.1407-1.5615-3.1355-4.4703-0.9822-2.9215-0.3778-5.7423 0.7681-7.7949 1.0578-1.9014 1.5124-4.1933 1.146-6.3466-0.126-0.7556-0.3526-1.5237-0.68-2.2289-0.8186-1.7252-1.4482-3.5385-2.1786-5.3015-0.8059-1.9267-1.7-3.7148-2.8459-4.7978-1.2718-1.2089-3.3232-0.8437-4.5824 0.1763-0.0504 0.0504-0.1146 0.0756-0.165 0.1134 0.5415-2.2667 1.9645-3.186 3.4378-3.5008-0.6926-4.5459 0.9192-7.8464 6.3718-10.515 5.5912-2.7452 15.275-2.7326 22.516 4.1681-0.7178 0.8186-1.5867 1.423-2.4304 2.0904-0.0126 0.0126-0.0252 0.0252-0.0378 0.0252 0.5541 0.1624 1.2845 0.4773 1.7504 1.0452 0.2519 0.3274 0.4408 0.8563 0.5667 1.4607 0.0126 0 0.0252-0.0126 0.0378-0.0126-0.0126 0-0.0252 0.0252-0.0252 0.0252 0.0755 0.34 0.1385 0.7052 0.1637 1.1208 0.0881 1.4733-0.2267 3.1733-0.7808 4.5333-0.8563 2.2793-4.6088 6.3215-5.1503 6.8755 0.3652-0.2896 2.4933-1.9782 2.6822-2.1281zm-32.917 11.119s-0.0378-0.466-0.2267-1.0326c-2.6445-7.883-31.935-22.415-59.034-13.323-27.074 9.0919-41.417 39.163-39.05 46.24 0.1637 0.4659 0.3148 0.6926 0.3148 0.6926 0.0378 0.0252 0.0504 0.1007 0.0756 0.1385 0.1888 0.34 0.4155 0.6548 0.6674 0.9571 5.9437 7.5177 33.018 19.896 57.976 11.522 20.664-6.9385 34.063-25.601 38.093-37.564 1.0325-3.1104 1.4481-5.7674 1.1837-7.6311zm-102.96 41.329c-1.0704-1.4607-3.9163-13.952-5.037-17.164 0 0-1.3222-3.2992-1.8385-4.357-1.1711-2.3296-6.1452-8.5-19.078-4.3822-11.85 3.7526-15.023 15.842-15.464 17.856-4.0422 2.5941-3.9289 7.48-3.9289 7.48-1.9645-5.3771 1.2593-7.8578 2.04-8.3741-0.1259 0-0.7556-0.6548-0.8311-0.743-0.0126-0.0251-0.1637-0.2392-0.1763-0.2392 0 0-1.1711 0.2267-2.2289 1.7378-0.4533 0.6296-0.8815 1.4481-1.1963 2.6192-0.1133 0.4156-0.1889 0.8311-0.2393 1.2215 0-0.0504 0-0.0881-0.0126-0.1385-0.277-1.8259-1.9896-3.0852-3.8029-2.8082-1.8259 0.2771-3.0978 1.9897-2.8208 3.8156 0.2771 1.8385 1.9897 3.0852 3.8156 2.8081 1.4356-0.214 2.5311-1.3222 2.783-2.6822 0.1007 3.2993 2.5059 5.2259 2.5059 5.2259 0.6296-0.2644 1.2718-0.4533 1.9141-0.5792 0.6926-0.1259 1.4103-0.1763 2.1533-0.1889 2.317-0.0126 4.7348 0.4156 7.2533 0.7681 2.846 0.403 5.7045 0.68 8.5756 0.6926 0.4407 0.0126 1.3222-0.0126 1.2592-0.0251-2.317-0.126-5.9688-0.9697-8.2985-2.3675-0.0126 0-0.0252-0.0125-0.0378-0.0251-1.3348-0.7808-2.7451-2.0778-3.4755-3.4504-0.0504-0.0882-0.3148-0.5793-0.3778-0.6674-0.2644-0.5667-0.4407-1.0956-0.4281-1.5111 0.0252-0.7304 0.4155-1.423 0.7681-1.8889h-0.0378c-0.2644 0-3.2111 0.0126-3.2111-0.1889 1.5993-9.8852 9.3311-15.741 15.426-16.912 5.9688-1.1585 9.2429 0.4912 11.421 4.5082 1.3852-0.6296 3.0726-0.743 4.8734 0.743-2.6319-0.1008-3.7778 1.4859-3.9667 2.6444-0.5289 3.0222 1.36 7.6059 2.0904 11.082 0.7429 3.4881 3.3874 5.6163 5.5407 6.5607 2.1533 0.9445 4.3319 2.8208 5.3015 5.7548 0.9822 2.9089 0.3148 4.8104 0.2015 5.4526-0.1134 0.6548 0.1763 0.9948 0.5792 1.1082 0.6926 0.1763 0.9571-0.7052 0.9571-0.7052 1.297-5.377-1.9141-11.22-2.9719-12.681zm-21.042 2.4556c1.5741-0.0756 3.1356-0.1889 4.697-0.3274 3.1356-0.277 6.7874-0.6926 9.9104-1.1963-1.8763-0.617-4.4452-1.8385-6.183-4.5837-0.4659-0.743-0.894-1.5615-1.2088-2.5437-0.4912-1.5363-0.8689-2.8082-1.146-3.8407-7.2533 1.9896-18.776 2.6066-18.776 2.6066-0.3274 0.4911-0.6674 1.1334-0.6926 1.8637-0.0126 0.4659 0.2141 1.0956 0.5415 1.7756 0.6548 1.3222 1.8888 2.8711 3.8155 4.1178 1.6496 1.0955 4.0171 1.8259 6.0696 2.2288 0.9949-0.0251 1.9897-0.0503 2.9719-0.1007zm-2.2163 43.923c-5.3015 7.5933-10.049 15.59-13.89 24.027-3.7652 8.2356-6.8252 16.761-8.7393 25.626-1.8007 8.3237-2.6067 16.899-2.1533 25.424 0.2644 5.037 0.8815 10.276 2.5059 15.073l0.2519 0.7178c2.7074-11.409 10.767-53.884 52.927-99.57 8.3489-9.0289 17.478-17.416 26.734-25.072-2.7956-0.4533-5.4904-1.0326-8.0719-1.7377-6.6488 5.8555-22.238 21.231-22.276 21.269-12.555 12.63-21.911 24.77-28.963 36.053-1.4733 2.4052-2.6067 4.3823-3.5133 5.8682-0.4912 0.8437-0.9445 1.6748-1.3978 2.5059l-0.1008 0.1763c0.4408-1.0704 14.708-35.473 51.315-67.396-2.657-0.9319-5.1503-1.9393-7.4422-3.0349-0.3652-0.1637-4.0296 3.4882-4.4829 3.8786-3.6645 3.2488-7.2408 6.5985-10.691 10.061-8.0593 8.0593-15.502 16.773-22.012 26.13zm69.788-12.278c-0.1511 0.5415-0.2896 1.02-0.4155 1.3978-0.957 3.0222-4.8733 14.129-5.7045 16.723-0.7429 2.2793-1.3474 4.2311-1.1459 7.6689 0.0252 0.4911 0.063 1.0074 0.1259 1.5615 0.4786 4.1933 2.5563 12.819 2.8208 13.89 0.0126 0.063 0.0252 0.1008 0.0252 0.1008s3.4252-1.6497 4.4829-2.2793c0 0 0-0.0378-0.0126-0.1133-0.1259-0.9571-1.0325-7.7697-1.0829-11.056 0-0.5037 0.0126-0.9193 0.0504-1.2215 0 0 1.9896-2.0904 2.4555-3.6644 0.4659-1.5741-0.0126-10.162 3.3874-16.081v0.1385s0.1637 0.6297 0.8815 1.7c0.7304 1.083 2.1407 2.5941 2.9844 2.0023 0.8437-0.6045 0.7304-2.2919 0.7178-4.1052-0.0126-1.8008-0.6296-3.74-1.0829-4.2815 0 0 0.7051-1.4482 2.6192-2.3548 0 0-0.0755 0.68 0.063 1.6622 0.3022 1.7378 1.1711 3.1733 1.7252 4.7474 0.1763 0.5541 0.7051 1.1207 1.5111 0.6926 0.0126 0 1.5992-0.8311 3.0096-1.5363 0.1637-0.1133 1.1333-0.8563 0.617-2.2541-0.0251-0.0629-0.0377-0.0881-0.0503-0.1259-0.0126-0.063-0.0504-0.1133-0.063-0.1763-0.5289-1.3222-0.9822-2.5311-1.6496-3.9289 0 0-0.34-1.2844-0.9445-1.3348 0 0 1.1711-0.7807 1.7126-1.0074 0.806-0.34 1.8146-0.7807 2.3171-0.8941 0 0-0.5415 0.8311-0.403 2.0148 0.3274 1.7 0.8185 4.0423 1.2467 5.9941 0.1511 0.4533 0.5666 1.2341 1.5111 0.9445 1.0578-0.4408 2.1407-0.8563 3.2237-1.2593 0.9192-0.3778 0.9066-1.2719 0.8689-1.5741-0.4911-2.1659-1.0578-4.7474-1.6371-6.8126-0.1385-0.3148-0.3261-0.7681-0.4911-0.9192 0 0 0.9822-0.6926 1.6371-0.8563 0.6422-0.1763 1.8763-0.4282 1.8763-0.4282s-0.2393 0.8437 0.0629 1.7252c0.0126 0.0252 0.0126 0.0378 0.0126 0.063 0.4785 1.3726 0.957 2.7577 1.4482 4.1555 0.1259 0.3526 0.4659 1.146 0.6674 1.6497 0.1007 0.2644 0.5163 1.0577 1.4859 0.8437 1.2718-0.3778 2.5437-0.7304 3.8281-1.0452 0.9445-0.2771 0.403-1.7378 0.403-1.7378s-1.3726-3.3748-2.2667-5.5533c0 0-0.3022-0.7682-0.7933-1.1711 0 0 0.8815-0.3904 1.5363-0.5289 1.4104-0.2771 2.2415-0.2519 2.5815-0.2771 0 0-0.4282 1.0452 0.0755 2.2919 0.0378 0.0503 0.0504 0.1133 0.063 0.1763 0.4281 0.9822 0.8689 1.977 1.2844 2.9592 0.1146 0.2771 0.2267 0.5667 0.34 0.8437 0.1398 0.4282 0.8186 1.1334 1.9393 0.9319h0.0894c0.8941-0.1763 1.7869-0.3148 2.681-0.4533l0.0126-0.0126s1.5866-0.3274 1.0074-1.826c-0.806-1.7881-1.6622-3.5889-2.6193-5.4022 0.9948-0.0755 2.0022-0.1259 3.0109-0.1637 0 0-0.1272 0.0882 0.2884 1.2089 0.4029 1.1207 1.6118 3.5007 1.7378 3.8533 0.1271 0.3526 0.5792 1.7378 1.1585 1.8008 0.5931 0.0629 2.8711-1.763 2.2792-5.2889 6.2585 2.6822 11.044 9.797 12.366 10.767 1.1459 0.8562 3.4503 1.3096 4.0296 1.4103 0.0755 0.0252 0.1272 0.0252 0.1272 0.0252 1.6106 1.637 6.0432 9.457 6.5972 10.427 0.0378 0.0629 0.0504 0.1007 0.0504 0.1007 1.2341-0.1511 4.9489-0.8815 4.9489-0.8815s-3.8659-9.0037-6.1578-12.882c-2.2906-3.8659-4.1555-5.1755-6.3832-6.7496-2.2175-1.5741-12.052-8.0593-14.646-9.8978-2.5941-1.8385-9.4948-8.0215-15.525-9.0918-2.9857-0.5289-5.5798-0.5919-8.0354-0.3149-2.4681 0.2771-4.7977 0.8815-7.2533 1.7126-0.0126 0-0.0252 0.0126-0.0504 0.0126-0.0126 0.0126-0.0377 0.0126-0.0377 0.0126-4.9237 1.6622-8.9143 3.6645-13.046 8.1096-3.6392 3.9289-5.4526 11.384-6.4852 15.224zm-8.0466 53.153c-0.1385 1.0956-0.1763 2.4052-0.1763 3.7022 0 3.2363 0.3274 6.4475 0.3274 6.4475s4.3444 2.7955 6.5607 6.8881c2.2415 4.08 4.08 12.152 4.08 12.152 8.3741 0.9444 16.207 9.86 16.686 10.414-2.0791-2.0022-4.7991-3.5007-7.6198-4.6592-5.2133-2.1786-10.792-2.9719-10.792-2.9719 0.3023 3.0222 0.2897 9.6963 1.5867 14.96 1.2215 4.9489 9.4822 26.558 38.521 26.684 3.0096 0 6.2333-0.2141 9.6963-0.7052 1.2466-0.214 2.4555-0.4533 3.6266-0.6926 0.063-0.0126 0.1134-0.0251 0.1763-0.0377 6.6111-1.3726 11.913-2.9719 13.298-3.4126 0.1385-0.0504 0.2644-0.0882 0.403-0.1385 0.68-0.2141 1.6118-0.5163 2.7338-0.9319 0.3148-0.1259 0.6536-0.2519 1.0187-0.3904 0.466-0.1763 0.9571-0.3652 1.4734-0.5792 0.68-0.2645 1.3978-0.5667 2.1533-0.9067 0.743-0.34 1.5237-0.6926 2.3309-1.083l1.4595-0.617c37.538-18.058 29.265-46.58 27.112-52.033-1.9518-4.8985-5.8303-9.7341-7.5291-12.492-1.9909 2.1785-4.6718 5.4274-6.6879 9.0666-1.3222 2.3674-2.3422 4.886-2.7326 7.4045 0 0 0.7304-12.416 7.0267-18.385 0 0-3.3874-7.5682-4.0926-12.164-0.6926-4.6088 1.0955-9.457 1.0955-9.457s-0.4533-0.7304-1.1081-1.7378c-0.0252-0.0503-0.0617-0.0881-0.0882-0.1385-1.4859-2.6444-3.4868-5.4778-5.9437-7.3163-2.8446-2.1407-4.2311-3.7904-12.139-1.9267-3.0978 0.743-6.2334 1.4104-9.3941 1.8008-4.0422 0.5163-9.3941 0.6548-12.341-2.7452-0.0126-0.0252-0.0252-0.0252-0.0504-0.0504-0.3904-0.4659-0.7556-0.9822-1.0074-1.5866 0 0 2.2289 1.574 6.222 1.3851 0 0-0.0265-0.0251-0.0265-0.0377l0.0265 0.0126c-0.1146-0.3023-1.0213-2.783-1.2593-4.9615-0.1398-1.3474-0.7946-4.7474-0.7946-4.7852-1.1711-4.08-5.1-6.3215-5.4513-6.0948-0.4168 0.2644-0.9583 1.2592 0.8047 6.9007 0 0.2771 0.9066 0.6045 1.1081 0.5919 0.3652 0.0629 0.7304 0.1133 1.0956 0.1763 0 0-0.1008 0.214-0.4785 0.7429-0.1638 0.2771-0.5919 0.4408-0.8563 0.5919-0.3023 0.1637-1.8386 0.8437-1.8386 0.8563-0.7794 0.34-1.4481 0.6044-1.4481 0.6044 0.0126-0.1385 0.0126-0.3274-0.0252-0.5289-0.0504-0.3903-0.2267-1.02-0.2506-1.1081-0.0138-0.1385-0.0264-0.2393-0.0504-0.277-0.0894-0.3526-0.1901-0.7052-0.2783-1.0578-0.3513-1.2845-0.6661-2.3297-1.0703-3.5889-0.0126-0.0126-0.0378-0.0504-0.0504-0.0882-0.403-1.1963-1.6118-0.8059-1.6118-0.8059-0.0126 0-0.1373 0.0504-0.1373 0.0504-0.8827 0.4407-1.8524 0.9066-2.8598 1.3852 0 0-1.1333 0.5918-0.957 1.7629-0.0126 0.0252 0 0.0504 0.0126 0.0882 0.0126 0.0503 0 0.0881 0.0264 0.1259 0.0365 0.1007 0.0617 0.2267 0.0995 0.3148 0.3148 1.1334 0.9822 3.5637 1.0704 4.1304 0.1133 0.6674 0.554 1.8889 0.8311 2.3674-0.1889 0.1889-0.6674 0.7052-1.083 0.9067-0.3526 0.1763-0.7304 0.2518-1.2467 0.214-0.1888-0.1637-0.5037-0.6548-0.5162-0.9192-0.0126-0.1511-0.4143-1.4104-0.8563-2.7956-0.4521-1.3978-0.9697-2.9341-1.1963-3.6266-0.2506-0.7556-0.7934-0.9193-1.2341-0.9193-0.3652 0-0.6548 0.1133-0.6548 0.1133-0.8803 0.3526-2.0778 0.7808-3.0223 1.1334-0.0617 0.0126-0.1133 0.0503-0.1762 0.0629-1.1334 0.4282-1.0578 1.3978-0.9823 1.7882 0.4911 1.4607 1.1208 3.3118 1.5993 4.76 0.1007 0.34 0.2267 0.68 0.3274 1.0326 0 0.0126 0.0126 0.0252 0.0252 0.0503 0.0378 0.1511 0.4659 1.2341 1.1207 1.5615-0.4281 0.3274-1.2844 0.6674-1.9254 0.8941-0.7694 0.2518-2.142 0.4911-2.2175 0.5037 0.2266-0.4911 0.2783-1.3474 0.1637-1.7756-0.1637-0.5666-1.6749-5.8429-1.7378-6.0444-0.0756-0.2015-0.34-0.8311-0.7556-0.9822-0.4029-0.1511-1.5363 0.214-1.5363 0.214-0.0755 0.0126-0.1259 0.0252-0.1889 0.0378-0.957 0.2897-2.317 0.5037-3.2224 0.7556 0 0-1.4872 0.4281-1.0213 1.7881 0 0 0.9697 3.5511 1.4482 5.2385 0 0.0378 0.0126 0.1008 0.0252 0.1512 0.0378 0.1259 0.2518 0.8311 0.3274 1.9014 0.0755 1.0704-0.6422 1.3223-1.1711 1.3223-0.5025 0-1.0578-0.9067-1.1825-1.4356-0.1398-0.5667-0.4546-1.5111-0.4546-1.5111l-0.0377-0.0882v-0.0125c-0.0378-0.0756-0.0756-0.1637-0.1008-0.2393-0.5163-1.3726-0.9192-2.5059-1.3852-3.8785-0.4898-1.2971-1.9392-1.0326-1.9392-1.0326-1.083 0.2267-2.1282 0.4407-3.0978 0.617-0.0126 0-0.1385 0.0378-0.1385 0.0504 0 0-1.2089 0.4155-0.806 1.6118 0 0.0378 0 0.0756 0.0252 0.1134 0.4294 1.2466 0.7934 2.2541 1.2971 3.5007 0.1385 0.3274 0.6422 1.5237 0.9318 1.9896 0.3022 0.466 0.7052 0.7178 0.7052 0.7178 0.0139 0.2771-0.403 0.7934-1.1585 1.0578-0.0869 0.0252-0.1889 0.0504-0.3022 0.0756-0.2393 0.0629-0.4911 0.1007-0.743 0.1259-0.7304 0.0881-1.8889 0.1637-2.1281-0.743-0.0126-0.0378-0.0252-0.0629-0.0252-0.0629 0.1133-0.3904 0.2015-0.8689 0.1511-1.1334-0.063-0.2896-0.1637-0.554-0.2141-0.68-1.977-5.5533-3.0222-6.0318-3.5133-5.994-0.4156 0.0251-2.1911 4.2059-0.6674 8.16 0.0126 0.0251 0.0252 0.0503 0.0252 0.0755 0.7807 1.763 1.5237 3.0474 2.2162 4.2059 1.2215 2.0148 2.0023 4.7474 2.0023 4.7474l0.0252-0.0503v0.0377c1.02-0.6925 1.8888-1.5362 2.6948-2.4555 0.0264-0.0252 0.0377-0.0378 0.0377-0.0504 0.3652-0.6044 0.9332-1.0703 1.2593-1.7126 0.0882-0.1889 0.1511-0.3652 0.1511-0.5037 0.2771 1.0578 0.2393 2.3422-0.1624 3.3748-0.0265 0.0378-0.0265 0.0756-0.0391 0.1134-1.4985 4.0926-5.377 6.4978-8.9785 8.5378-2.4052 1.36-4.9111 2.5437-7.4422 3.6518-7.417 3.2615-7.5304 5.4274-8.5252 8.8526-0.1133 0.4281-0.2141 0.9318-0.2896 1.4859zm114.99-76.53c-26.835-7.2155-52.473-9.2933-69.612-9.7466-0.277 0.2015-0.5415 0.4029-0.8185 0.6044 4.1178 0.8437 7.9837 2.5059 11.346 5.2008 8.5252 6.8251 17.97 12.013 24.291 17.05 6.3467 5.0371 12.227 20.236 12.227 20.236 10.641 4.08 17.869 18.524 17.869 18.524s-1.6748 3.1985-1.8259 7.0897c-0.1637 3.9037 5.9072 10.49 12.215 22.176 6.3089 11.673 7.6941 27.666-2.7326 45.233-10.376 17.478-38.999 26.482-39.251 26.558-0.2519 0.0881-28.51 10.162-47.323 2.4807-18.914-7.7192-27.452-21.294-29.467-34.416-2.0149-13.122-1.1586-22.037-3.6267-25.059-2.4807-3.0096-5.7422-4.5585-5.7422-4.5585s-2.9341-15.879 3.0852-25.525c0 0-4.483-15.678-2.4682-23.523 2.0148-7.8326 6.4096-17.667 9.0919-28.245 1.0829-4.2815 3.2614-8.0215 6.12-11.208-0.3023 0-0.6171 0.0126-0.9193 0.0126-13.411 10.704-32.69 27.893-49.829 49.942-30.033 38.634-39.818 100.12-39.818 100.12-13.197-36.09-16.521-48.784-5.654-83.01 10.867-34.227 43.646-66.967 43.646-66.967-0.7933-1.9015 0.3652-5.4022 0.3652-5.4022s-4.7852 1.4607-19.216 1.4859c-14.431 0.0378-11.686-1.5111-16.106-1.2719-4.42 0.2393-5.6793 2.0652-5.6793 2.0652-2.2289-1.1081-4.3193-3.677-4.3193-3.677-2.1029-0.2267-12.441-1.4104-11.346-11.56 1.1082-10.15 11.711-9.52 11.711-9.52 1.9141-2.1911 4.6971-3.123 4.6971-3.123s6.2585-16.534 24.304-17.315c15.678-0.6812 20.74 8.8778 21.798 11.396 0.403-0.957 0.8563-1.9393 1.3349-2.9341 3.1859-6.5103 8.0718-13.738 14.683-20.287 6.5985-6.5356 14.96-12.429 25.059-15.829 15.376-5.1126 30.852-3.5385 42.98 0.2644 4.4942 1.4104 8.8765 3.2363 12.958 5.5785-0.7064-3.4126-1.4368-13.298 10.653-21.634 14.858-10.263 29.818-0.8437 29.818-0.8437s2.7829-0.9445 5.6414-0.34c0 0 8.0845-6.9008 15.086 0.5289 6.9889 7.4296-0.5289 14.607-2.064 16.056 0 0-0.1397 3.3119-1.2479 5.5407 0 0-2.0904-0.6925-5.7674 1.7756-3.677 2.4807-0.5541 2.0526-12.076 10.729-11.535 8.6763-16.232 10.414-16.232 10.414s3.0348 2.0903 3.5511 4.08c0 0 45.9 6.334 75.217 27.074 29.302 20.753 34.315 32.892 45.546 69.637 0 0-44.893-43.142-92.153-55.861"/><path d="m413.04 505.43c-1.9518-4.8985-5.8303-9.7341-7.5291-12.492-1.9909 2.1785-4.6718 5.4274-6.6879 9.0666 1.1081 1.6748 3.2615 3.9541 5.6541 7.2785 1.7 2.38 4.7978 8.8275 4.7978 16.71 0 8.9659-4.0045 19.808-18.599 28.686-0.0504 0.0378-0.1007 0.0756-0.1637 0.1008-0.1763 0.1133-0.3652 0.2266-0.5541 0.3274-1.8763 1.1333-3.74 2.1281-5.4891 2.9718l1.4595-0.617c37.538-18.058 29.265-46.58 27.112-52.033" fill="#b1babf"/><path d="m396.69 491.6 0.0113-0.0377s-1.574-10.628-4.1807-14.796c-2.5941-4.1808-5.0622-8.0341-11.521-7.6815 0 0 3.7388 1.083 2.5425 4.017-0.0882 0.2141-0.1511 0.4282-0.2015 0.6548l-0.0126 0.0126c-0.0252 0-0.9948-0.3022-1.5111-0.3652-3.9037-0.4785-12.114 0.7808-16.056 3.4756-0.0377 0.0126-0.0629 0.0252-0.0881 0.0378 0 0-0.9822-1.1711 0.277-4.8356-0.3022 0.1008-5.2385 1.9267-7.014 5.9185-1.8386 4.1052-0.0504 15.136-6.6489 17.441-6.6489 2.1533-11.875-7.7319-15.829-9.8978-3.9402-2.1659-9.18-0.4911-9.18-0.4911 3.2489 2.1659 3.1607 3.6896 3.1607 3.6896-0.0378 0-0.0755 0.0252-0.1133 0.0252-4.7726 0.2393-12.089 4.1808-14.91 6.9133-0.3778 0.3778-0.9571 1.1963-0.9697 1.1963-0.0881-0.0755-0.1763-0.1385-0.277-0.2014-0.1007-0.0756-0.2015-0.1386-0.3022-0.2015-2.6193-1.5363-0.5667-4.483-0.403-4.7097-5.3393 3.5889-5.0118 8.16-4.5459 13.059 0.4533 4.8859 5.6037 14.318 5.6037 14.318l0.0755-0.0503c0 0.0126-0.0126 0.0252-0.0377 0.0503 0.2896-0.1133 4.8607-2.1155 8.8903-5.9563 0.403-0.3777 0.7934-0.7681 1.1711-1.1711 4.3835-4.76 8.5265-9.117 12.593-10.477 1.3223-0.4407 2.72-0.5415 3.9919-0.4785 0.0126 0 0.0378 0 0.063 0.0126 0.3525 0.0126 0.6938 0.0378 1.02 0.0755v0.0126c2.0903 0.2519 3.7525 0.8059 3.7525 0.8059 1.3726-2.9844 12.19-6.6111 15.149-5.0874 0 0 0.0504-0.0629 0.0756-0.1007 0.1889-0.277 1.0704-1.4985 2.419-2.7956v-0.0125c0.238-0.2267 0.4899-0.4534 0.7543-0.68 0.0126-0.0126 0.0378-0.0252 0.0504-0.0504 0.9822-0.8185 2.1407-1.5741 3.4755-2.0148 4.0675-1.3726 9.9986-0.403 16.358 0.7555 0.5541 0.0882 1.0956 0.1637 1.6371 0.2267 5.717 0.6548 10.73-0.6045 10.73-0.6045zm-42.212-21.772-0.6674-1.9897c-0.8941-2.6822-4.1178-4.0044-7.1904-2.9844v0.0126s2.0652 0.5289 2.7326 2.5059c0.0126 0.0252 0.0252 0.0504 0.0252 0.0756-0.5919-0.0756-1.2215-0.0756-1.8511 0.1259-1.9519 0.6548-3.0462 2.6444-2.443 4.42 0.1007 0.3022-0.0755 0.6296-0.3904 0.7429-0.3148 0.1008-0.6422-0.0629-0.7429-0.3526-0.5919-1.7881-2.6684-2.7074-4.6341-2.0525-0.6296 0.214-1.1321 0.5918-1.5615 1.0325-0.0126-0.0251-0.0252-0.0629-0.0252-0.0881-0.6674-1.9896 0.6674-3.6519 0.6674-3.6519-3.06 1.0326-4.8229 4.0297-3.9288 6.6993l0.6674 1.9896c0.4659 1.486 1.637 2.38 2.4681 2.8837 0.8563 0.5541 1.5489 0.9571 2.443 2.0274l0.0377 0.0504v0.0126c1.1712 1.297 2.0778 2.2793 2.6193 3.9163 0.8689 2.5437 3.8533 3.8911 6.8504 3.0474 0.1133-0.0252 0.2279-0.0504 0.3274-0.0881 0.1259-0.0504 0.2392-0.0882 0.3652-0.1386 2.8459-1.1459 4.42-4.0044 3.5637-6.5607-0.5415-1.637-0.4156-2.9467-0.2897-4.6844l0.0126-0.0504v-0.0252c0.063-1.3978 0.3778-2.1407 0.7178-3.0978 0.34-0.894 0.7556-2.317 0.2267-3.7777zm-5.7926 42.991c5.1-4.5082 7.3289-4.9363 7.7822-5.0623 0.4659-0.1763 2.4946-1.1837 9.2556-0.6548 7.8074 0.3652 21.659 1.8008 25.739-3.2363 0-0.1385-9.86 0.9697-16.495-0.1007-6.5998-1.3978-15.969-2.2919-20.124-0.8437-4.1808 1.3474-11.119 7.7192-15.527 12.807-4.6215 4.8229-13.084 9.86-13.084 10.024 6.2711 1.5614 16.458-7.9334 22.453-12.933zm55.785-3.5386c1.7 2.38 4.7978 8.8275 4.7978 16.71 0 8.9659-4.0045 19.808-18.599 28.686-0.0504 0.0378-0.1007 0.0756-0.1637 0.1008-0.1763 0.1133-0.3652 0.2266-0.5541 0.3274-1.8763 1.1333-3.74 2.1281-5.4891 2.9718-0.8072 0.3904-1.5879 0.743-2.3309 1.083-0.7555 0.3274-1.4733 0.6296-2.1533 0.9067-0.5163 0.214-1.0074 0.4029-1.4734 0.5792-0.3525 0.1385-0.6925 0.2645-1.0187 0.3904-1.122 0.4156-2.0538 0.7178-2.7338 0.9319-0.1386 0.0503-0.2645 0.0881-0.403 0.1385-1.3852 0.4407-6.6867 2.04-13.298 3.4126-35.851 6.1074-42.764-20.79-42.89-27.326-0.0881-4.7726 0.2267-7.9963 0.0756-9.9103 2.8207 1.1585 5.5407 2.657 7.6198 4.6592-0.4798-0.554-8.3124-9.4696-16.686-10.414 0 0-1.8385-8.0719-4.08-12.152-2.2163-4.0926-6.5607-6.8881-6.5607-6.8881-0.4156-5.7675 2.6948-14.116 6.1578-15.854 3.4503-1.7378 12.681-4.7852 16.27-8.8778 3.5763-4.0926 3.677-8.437 2.8459-11.522-0.2644-1.2719-0.8185-2.783-1.2592-3.8785 0.1133-0.0252 0.2153-0.0504 0.3022-0.0756 0.7555-0.2644 1.1724-0.7807 1.1585-1.0578 0 0-0.403-0.2518-0.7052-0.7178-0.2896-0.4659-0.7933-1.6622-0.9318-1.9896-0.5037-1.2466-0.8677-2.2541-1.2971-3.5007-0.0252-0.0378-0.0252-0.0756-0.0252-0.1134-0.4029-1.1963 0.806-1.6118 0.806-1.6118 0-0.0126 0.1259-0.0504 0.1385-0.0504 0.9696-0.1763 2.0148-0.3903 3.0978-0.617 0 0 1.4494-0.2645 1.9392 1.0326 0.466 1.3726 0.8689 2.5059 1.3852 3.8785 0.0252 0.0756 0.063 0.1637 0.1008 0.2393v0.0125l0.0377 0.0882s0.3148 0.9444 0.4546 1.5111c0.1247 0.5289 0.68 1.4356 1.1825 1.4356 0.5289 0 1.2466-0.2519 1.1711-1.3223-0.0756-1.0703-0.2896-1.7755-0.3274-1.9014-0.0126-0.0504-0.0252-0.1134-0.0252-0.1512-0.4785-1.6874-1.4482-5.2385-1.4482-5.2385-0.4659-1.36 1.0213-1.7881 1.0213-1.7881 0.9054-0.2519 2.2654-0.4659 3.2224-0.7556 0.063-0.0126 0.1134-0.0252 0.1889-0.0378 0 0 1.1334-0.3651 1.5363-0.214 0.4156 0.1511 0.68 0.7807 0.7556 0.9822 0.0629 0.2015 1.5741 5.4778 1.7378 6.0444 0.1146 0.4282 0.0629 1.2845-0.1637 1.7756 0.0755-0.0126 1.4481-0.2519 2.2175-0.5037 0.641-0.2267 1.4973-0.5667 1.9254-0.8941-0.6548-0.3274-1.0829-1.4104-1.1207-1.5615-0.0126-0.0251-0.0252-0.0377-0.0252-0.0503-0.1007-0.3526-0.2267-0.6926-0.3274-1.0326-0.4785-1.4482-1.1082-3.2993-1.5993-4.76-0.0755-0.3904-0.1511-1.36 0.9823-1.7882 0.0629-0.0126 0.1145-0.0503 0.1762-0.0629 0.9445-0.3526 2.142-0.7808 3.0223-1.1334 0 0 0.2896-0.1133 0.6548-0.1133 0.4407 0 0.9835 0.1637 1.2341 0.9193 0.2266 0.6925 0.7442 2.2288 1.1963 3.6266 0.442 1.3852 0.8437 2.6445 0.8563 2.7956 0.0125 0.2644 0.3274 0.7555 0.5162 0.9192 0.5163 0.0378 0.8941-0.0377 1.2467-0.214 0.4156-0.2015 0.8941-0.7178 1.083-0.9067-0.2771-0.4785-0.7178-1.7-0.8311-2.3674-0.0882-0.5667-0.7556-2.997-1.0704-4.1304-0.0378-0.0881-0.063-0.2141-0.0995-0.3148-0.0264-0.0378-0.0138-0.0756-0.0264-0.1259-0.0126-0.0378-0.0252-0.063-0.0126-0.0882-0.1763-1.1711 0.957-1.7629 0.957-1.7629 1.0074-0.4786 1.9771-0.9445 2.8598-1.3852 0 0 0.1247-0.0504 0.1373-0.0504 0 0 1.2088-0.3904 1.6118 0.8059 0.0126 0.0378 0.0378 0.0756 0.0504 0.0882 0.4042 1.2592 0.719 2.3044 1.0703 3.5889 0.0882 0.3526 0.1889 0.7052 0.2783 1.0578 0.024 0.0377 0.0366 0.1385 0.0504 0.277 0.0239 0.0881 0.2002 0.7178 0.2506 1.1081 0.0378 0.2015 0.0378 0.3904 0.0252 0.5289 0 0 0.6687-0.2644 1.4481-0.6044 0.3149 2.6444 1.4482 4.6215 1.4482 4.6215 0.2518 0.6044 0.617 1.1207 1.0074 1.5866-0.0126 0-0.0252-0.0126-0.0252-0.0126 1.4482 2.4934 4.08 4.9615 8.4496 5.8682 5.3267 1.0955 14.519-2.0274 18.335-2.7326 3.3622-0.617 9.622 3.0348 13.197 7.2533 0.6548 1.0074 1.1081 1.7378 1.1081 1.7378s-1.7881 4.8482-1.0955 9.457c0.7052 4.5963 4.0926 12.164 4.0926 12.164-6.2963 5.9689-7.0267 18.385-7.0267 18.385 0.3904-2.5185 1.4104-5.0371 2.7326-7.4045 1.1081 1.6748 3.2615 3.9541 5.6541 7.2785" fill="#fff"/></g><path d="m389.59 399.29c-19.227-3.4818-36.524-15.326-48.869-33.464-7.5746-11.129-12.066-24.799-9.0454-27.533 1.3272-1.2011 1.8794-1.1312 1.1932 0.15102-1.1365 2.1235-0.60824 5.0562 1.6604 9.2186 12.107 22.212 33.777 38.803 56.817 43.5 18.126 3.6953 39.543 1.0889 55.028-6.6968 4.3115-2.1678 5.964-3.9145 6.0051-6.3474 0.0153-0.90615 0.0537-0.90939 0.55642-0.0469 1.2736 2.1848-2.6613 7.042-8.8967 10.982-7.1425 4.5131-17.559 8.2704-27.767 10.016-7.3745 1.2607-20.345 1.3678-26.682 0.22031z" transform="matrix(.8 0 0 -.8 0 668)" stroke="#d50a0a" stroke-width="1px" fill="#d50a0a"/></g></g></svg>
