<?xml version="1.0" encoding="utf-8"?>
<!-- Generator: Adobe Illustrator 16.0.0, SVG Export Plug-In . SVG Version: 6.00 Build 0)  -->
<!DOCTYPE svg PUBLIC "-//W3C//DTD SVG 1.1//EN" "http://www.w3.org/Graphics/SVG/1.1/DTD/svg11.dtd">
<svg version="1.1" id="Layer_1" xmlns="http://www.w3.org/2000/svg" xmlns:xlink="http://www.w3.org/1999/xlink" x="0px" y="0px"
	 width="284.59px" height="262.19px" viewBox="0 0 284.59 262.19" enable-background="new 0 0 284.59 262.19" xml:space="preserve">
<g>
	<path fill="#050505" d="M0,0c0,0,1.333,19.547,16.965,38.212L6.54,34.429c0,0,7.942,20.413,26.184,36.317l-10.881-3.726
		c0,0,9.922,29.988,37.607,50.119c0,0-0.998,22.378,21.452,48.036c0,0,21.814,21.801,21.964,37.189c0,0,48.413,8.332,93.375,59.822
		c0,0,22.785-54.471,87.964-46.375c0,0,5.748-30.721-26.7-59.547c0,0-3.025-67.246-91.646-95.182L90.021,43.649
		C90.021,43.649,32.984,25.858,0,0z"/>
	<path fill="#B0063A" d="M18.748,21.698c0,0,11.275,26.355,52.994,48.102L32.925,56.549c0,0,11.826,19.368,53.449,41.648
		L47.409,85.051c0,0,17.864,29.013,51.236,43.507l-21.904-1.208c0,0-0.326,12.484,31.229,47.486c0,0,9.926,14.174,6.909,16.4
		c0,0,19.725,4.891,50.916,31.158c0,0,36.646-11.26,0.68-77.438c0,0-16.348-31.168-37.009-53.857c0,0,37.771-1.223,77.224,38.136
		c0,0,19.307,24.605,42.063,19.873c0,0,0.443-50.693-78.91-77.326L82.136,51.297C82.136,51.299,45.552,39.401,18.748,21.698z"/>
	<path fill="none" stroke="#000000" d="M18.748,21.698c0,0,11.275,26.355,52.994,48.102L32.925,56.549
		c0,0,11.826,19.368,53.449,41.648L47.409,85.051c0,0,17.864,29.013,51.236,43.507l-21.904-1.208c0,0-0.326,12.484,31.229,47.486
		c0,0,9.926,14.174,6.909,16.4c0,0,19.725,4.891,50.916,31.158c0,0,36.646-11.26,0.68-77.438c0,0-16.348-31.168-37.009-53.857
		c0,0,37.771-1.223,77.224,38.136c0,0,19.307,24.605,42.063,19.873c0,0,0.443-50.693-78.91-77.326L82.136,51.297
		C82.136,51.299,45.552,39.401,18.748,21.698z"/>
	<path fill="#FFFFFF" d="M178.581,119.876c0,0-3.02,43.114,34.08,49.548c0,0,13.514-0.473,18.916-14.842l-5.006-1.17
		c0,0-7.113,14.244-19.443,8.299c0,0-7.717-1.941-12.875-16.404l12.506,0.969C206.759,146.275,186.7,133.771,178.581,119.876z"/>
	<path fill="none" stroke="#000000" d="M178.581,119.876c0,0-3.02,43.114,34.08,49.548c0,0,13.514-0.473,18.916-14.842l-5.006-1.17
		c0,0-7.113,14.244-19.443,8.299c0,0-7.717-1.941-12.875-16.404l12.506,0.969C206.759,146.275,186.7,133.771,178.581,119.876z"/>
	<path fill="#FDBD12" d="M216.839,190.125c0,0,38.691,1.049,61.269,20.742c0,0-32.149-5.971-57.202,9.264
		C220.905,220.133,225.696,205.303,216.839,190.125z"/>
	<path fill="none" stroke="#000000" d="M216.839,190.125c0,0,38.691,1.049,61.269,20.742c0,0-32.149-5.971-57.202,9.264
		C220.905,220.133,225.696,205.303,216.839,190.125z"/>
	<path fill="#FDBD12" d="M219.222,180.115c0,0,41.2,7.541,59.71,27.605c-0.904-23.475-31.95-48.848-29.45-46.674
		C249.481,161.043,239.313,177.377,219.222,180.115z"/>
	<path fill="none" stroke="#000000" d="M219.222,180.115c0,0,41.2,7.541,59.71,27.605c-0.904-23.475-31.95-48.848-29.45-46.674
		C249.481,161.043,239.313,177.377,219.222,180.115z"/>
</g>
</svg>
