<svg id="Layer_1" data-name="Layer 1" xmlns="http://www.w3.org/2000/svg" viewBox="0 0 50.68536 61.85599"><title>Untitled-7</title><path d="M45.39243,24.499a13.25637,13.25637,0,0,0-12.428-.519,19.99046,19.99046,0,0,0-.927-3.778c-.721-2.133-1.51-4.172-2.206-5.972-.915-2.364-1.611-4.389-1.994-5.744L25.36143,0l-2.57,8.491c-.393,1.35-1.071,3.386-1.981,5.751-.692,1.801-1.476,3.843-2.191,5.976a20.10383,20.10383,0,0,0-.919,3.783,13.25955,13.25955,0,0,0-12.428.545A9.94041,9.94041,0,0,0,.07943,34.4a8.60721,8.60721,0,0,0,6.34,7.292l2.565.705.627-2.584c.09-.351,1.016-3.585,3.929-3.526,2.02.041,3.697,1.827,4.536,2.982a6.42008,6.42008,0,0,0-.277,2.85l-1.141-1.521-2.063,1.538c-1.858,1.384-4.556,4.804-2.889,8.84a5.73871,5.73871,0,0,0,4.401,3.38,10.2987,10.2987,0,0,0,4.116-.102,14.2997,14.2997,0,0,0,3.283,5.648l1.871,1.954,1.864-1.959a14.33279,14.33279,0,0,0,3.271-5.656,10.32981,10.32981,0,0,0,4.116.091,5.737,5.737,0,0,0,4.393-3.39c1.659-4.04-1.049-7.454-2.91-8.834l-2.066-1.531-1.137,1.522a6.41914,6.41914,0,0,0-.285-2.85c.837-1.155,2.51-2.946,4.53-2.99194,2.914-.065,3.844,3.167,3.942,3.53595l.632,2.583,2.559-.73a8.59883,8.59883,0,0,0,6.322-7.308,9.93391,9.93391,0,0,0-5.216-9.83905"/><path d="M24.508,8.85468a47.39081,47.39081,0,0,1-2.059,6.017c-.686,1.785-1.463,3.807-2.166,5.904a15.23,15.23,0,0,0-.95,4.917,11.0401,11.0401,0,0,0,.104,1.326c-2.594-1.78-7.704-4.215-13.277-.95795a8.21275,8.21275,0,0,0-4.34,8.11,6.879,6.879,0,0,0,5.065,5.831l.817.224.203-.824c.051-.203,1.277-4.957,5.67-4.868,3.536.071,5.847,3.509,6.471,4.565a4.6226,4.6226,0,0,0-.543,2.176,5.04146,5.04146,0,0,0,1.126,3.054,2.29734,2.29734,0,0,1-1.468,1.025c-.88.072-1.77-.854-2.362-1.645l-.494-.659-.661.493c-1.351,1.007-3.575,3.716-2.317,6.764a3.98961,3.98961,0,0,0,3.122,2.329,8.92145,8.92145,0,0,0,5.025-.622,12.84323,12.84323,0,0,0,3.301,6.676l.598.626.597-.627a12.85736,12.85736,0,0,0,3.286-6.686,8.908,8.908,0,0,0,5.029.609,3.98649,3.98649,0,0,0,3.113-2.336c1.25-3.05-.978-5.754-2.331-6.758l-.662-.491-.492.661c-.591.791-1.479,1.721-2.36,1.65a2.29746,2.29746,0,0,1-1.469-1.021,5.04471,5.04471,0,0,0,1.118-3.046,4.61456,4.61456,0,0,0-.549-2.185c.622-1.058,2.927-4.503,6.46-4.582,4.394-.098,5.632,4.654,5.682,4.856l.205.822.817-.224a6.87928,6.87928,0,0,0,5.051-5.842,8.215,8.215,0,0,0-4.357-8.101c-5.585-3.247-10.693-.795-13.28.992a11.50229,11.50229,0,0,0,.097-1.29,15.22511,15.22511,0,0,0-.953-4.955c-.708-2.093-1.489-4.112-2.179-5.893a47.42207,47.42207,0,0,1-2.073-6.016l-.812-3.789" fill="#fff"/><path d="M25.377,58.11835a12.089,12.089,0,0,0,3.201-7.512c1.399,1.394,6.837,2.327,8.056-.644,1.338-3.262-2.059-5.782-2.059-5.782-3.292,4.413-5.501.094-5.501.094a3.94493,3.94493,0,0,0,.626-5.152c.164-.49,2.944-5.344,7.395-5.443,5.132-.116,6.501,5.483,6.501,5.483,5.381-1.492,6.42-8.992.5-12.433-7.513-4.368-14.058,2.287-14.058,2.287a12.23457,12.23457,0,0,0-.446-7.99c-1.665-4.931-3.706-9.337-4.276-12-.566,2.664-2.597,7.077-4.25,12.012a12.254,12.254,0,0,0-.428,7.99s-6.56-6.639-14.062-2.254c-5.913,3.456-4.856,10.952.528,12.431,0,0,1.357-5.601,6.488-5.497,4.452.089,7.243,4.936,7.408,5.425a3.94473,3.94473,0,0,0,.638,5.151s-2.2,4.326-5.5-.08c0,0-3.393,2.528-2.047,5.786,1.227,2.968,6.661,2.023,8.057.624a12.08456,12.08456,0,0,0,3.218,7.505"/><path d="M38.83384,26.49475c-6.113.007-11.126,6.95-11.126,6.95.217-1.136,2.831-6.248.466-12.357a60.35529,60.35529,0,0,1-2.849-8.57l-.011.07v-.068a60.55152,60.55152,0,0,1-2.828,8.577c-2.352,6.114.274,11.22.494,12.354,0,0-5.029-6.93005-11.143-6.922-6.113.006-11.202,6.964-5.554,11.072a7.79114,7.79114,0,0,1,7.352-5.144c4.19-.009,8.388,4.487,8.566,6.714a3.66885,3.66885,0,0,0,.748,4.976s-2.881,6.061-6.876,1.695c0,0-3.072,3.843.945,4.774,3.188.737,6.327-2.496,6.327-2.496s-.342,5.108,2.018,7.899v-.025l.012.024c2.355-2.797,2-7.905,2-7.905s3.147,3.227,6.335,2.481c4.014-.939.933-4.776.933-4.776-3.984,4.375-6.878-1.679-6.878-1.679a3.67011,3.67011,0,0,0,.735-4.977c.172-2.226,4.358-6.732,8.55-6.733a7.79318,7.79318,0,0,1,7.364,5.128c5.64-4.122.533-11.07-5.58-11.062" fill="#c6a876"/></svg>