<svg id="Layer_1" data-name="Layer 1" xmlns="http://www.w3.org/2000/svg" viewBox="0 0 112.96002 112.96008"><title>Untitled-6</title><path d="M0,56.5256A56.48,56.48,0,1,0,56.52557,0,56.46883,56.46883,0,0,0,0,56.5256Z"/><path d="M111.82085,56.5256A55.28388,55.28388,0,1,1,56.52558,1.25308,55.30682,55.30682,0,0,1,111.82085,56.5256Z" fill="#a5acaf"/><path d="M102.66193,56.6623A46.125,46.125,0,1,1,56.52558,10.52592,46.13277,46.13277,0,0,1,102.66193,56.6623Z" fill="#fff"/><path d="M56.66228,56.6623c.50123-18.933,18.43176-23.26184,22.87451-22.87453-11.04994-.63793-21.986-5.21739-22.73782-22.73783-1.27586,16.26734-7.883,20.824-22.87451,22.73783C44.58708,34.4257,55.52311,38.61785,56.66228,56.6623Z" fill="#ffb612"/><path d="M79.6735,80.03806c.50123-18.933,18.04444-23.51247,22.48719-23.12515C91.11075,56.5256,80.42535,51.19429,79.5368,33.78777,78.26093,50.05512,71.65374,54.7485,56.66228,56.6623,67.4616,57.16354,78.39763,61.99362,79.6735,80.03806Z" fill="#c60c30"/><path d="M57.0496,102.52528c.50123-18.933,18.15835-22.85174,22.6239-22.48721C68.60077,79.40013,57.55083,74.20551,56.799,56.6623c-1.27587,16.26734-7.63244,21.09743-22.6239,23.01123C44.72379,80.28868,55.77373,84.48083,57.0496,102.52528Z" fill="#00539b"/><path d="M43.83523,52.60686v6.85781h1.891V55.38643c0-.36454-.11392-1.00247,1.52649-.88855V52.33346H46.7515c-.63793.1367-.75185.38731-1.02525.88855v-.88855Z"/><path d="M51.9689,54.8852a2.18565,2.18565,0,0,0-3.18968-2.16442,2.57783,2.57783,0,0,0-1.00247.63794,1.30749,1.30749,0,0,0-.2734,1.02525,1.92276,1.92276,0,0,0,1.27587,2.02772c.524.11392,1.27587.25062,1.52649.63794.1367.25061.1367.36453,0,.50123-.11392.25062-.75185.25062-1.00247.1367a.68788.68788,0,0,1-.38732-.63793H47.38944a2.313,2.313,0,0,0,.25062,1.38978,2.124,2.124,0,0,0,1.02525.88856,2.67855,2.67855,0,0,0,2.415-.25062c.11392-.1367.50124-.38732.63794-.63794a1.832,1.832,0,0,0,.11392-1.6404,1.43115,1.43115,0,0,1-.11392-.524,1.79465,1.79465,0,0,0-1.41257-1.00247s-.50124-.1367-.38732-.1367c-.88855-.11392-.88855-.63793-.75185-.88855a.60078.60078,0,0,1,.63793-.38732c.25062,0,.50124.1367.50124.38732v.38732Z"/><path d="M22.23658,52.72077a2.35539,2.35539,0,0,0-.38732-1.6404,2.81133,2.81133,0,0,0-3.69091-1.02525,2.95219,2.95219,0,0,0-1.13917,1.02525,2.09973,2.09973,0,0,0-.38732,1.25309,3.32687,3.32687,0,0,0,1.52649,2.80235,5.52888,5.52888,0,0,1,1.7771,1.02526,1.52874,1.52874,0,0,1,.1367,1.25308c-.25062.524-1.02525.38732-1.27587.1367a3.42065,3.42065,0,0,1-.25062-1.13917H16.518a3.4123,3.4123,0,0,0,.25062,2.02773,1.54392,1.54392,0,0,0,1.13917,1.02525,3.127,3.127,0,0,0,3.55421-.524,2.46551,2.46551,0,0,0,.38732-.50123,4.27464,4.27464,0,0,0,.38732-2.27834,3.26669,3.26669,0,0,0-.38732-1.02526,3.89374,3.89374,0,0,0-1.66319-1.27587l-.25062-.11391c-1.00247-.38732-1.38979-1.02526-1.13917-1.66319a.84244.84244,0,0,1,1.13917-.25062c.25062.1367.25062.63794.25062.88855Z"/><path d="M23.23905,52.60686H22.4872v1.64041h.63793v3.69091c0,1.891,1.6404,1.6404,2.529,1.6404V57.55086c-.75185,0-.63793-.1367-.63793-.50123V54.384h.77464V52.72077h-.77464v-1.6404l-1.891,1.00247v.524Z"/><rect x="36.3395" y="49.91841" width="1.89102" height="9.79686"/><path d="M40.281,55.27251h1.38978C41.92143,53.99665,40.14432,53.85994,40.281,55.27251Zm0,2.27834c0,.63794,1.38978.77464,1.38978,0v-.25061h1.52649v.75185a1.41347,1.41347,0,0,1-1.13917,1.41257,4.27737,4.27737,0,0,1-2.16442,0,1.62382,1.62382,0,0,1-1.13917-1.66319V54.384a1.87177,1.87177,0,0,1,.88855-1.52648,2.29506,2.29506,0,0,1,2.415,0,1.74063,1.74063,0,0,1,1.13917,1.6404V56.6623H40.281Z"/><path d="M32.8992,55.27251H34.289A.74358.74358,0,1,0,32.8992,55.27251Zm-.1367,2.27834c0,.63794,1.41257.77464,1.41257,0v-.25061h1.52649v.75185a1.41347,1.41347,0,0,1-1.13917,1.41257,4.27738,4.27738,0,0,1-2.16442,0,1.62383,1.62383,0,0,1-1.13917-1.66319V54.384a1.87177,1.87177,0,0,1,.88855-1.52648,2.29506,2.29506,0,0,1,2.415,0,1.74064,1.74064,0,0,1,1.13917,1.6404V56.6623H32.76251Z"/><path d="M27.81851,55.27251H29.2083C29.45892,53.99665,27.56789,53.85994,27.81851,55.27251Zm0,2.27834c0,.63794,1.38978.77464,1.38978,0v-.25061h1.52649v.75185a1.41347,1.41347,0,0,1-1.13917,1.41257,4.27737,4.27737,0,0,1-2.16442,0A1.65,1.65,0,0,1,26.292,57.80147V54.384a1.929,1.929,0,0,1,.88855-1.52648,2.29106,2.29106,0,0,1,2.415,0,1.70906,1.70906,0,0,1,1.13917,1.6404V56.6623H27.81851Z"/></svg>