<svg xmlns="http://www.w3.org/2000/svg" xml:space="preserve" height="377" viewBox="0 0 350 377" width="350" version="1.1">
  <g transform="matrix(1.25 0 0 -1.25 -207 684)">
    <path d="m335 548c-45.7 0-85-27.7-102-67.3l-16.4 0v-3.6h15c-4.7-12.3-7.4-25.7-7.4-39.7 0-61.1 49.5-111 111-111 61.1 0 111 49.5 111 111 0 61.1-49.5 111-111 111M225 474l4.4-2.8 1 2.8M225 474l4.4-2.8 1 2.8" fill="#ffb612"/>
    <path d="m225 474 4.4-2.8 1 2.8h-5.3" fill="#fff"/>
    <path d="m335 342c52.6 0 95.2 42.6 95.2 95.2s-42.6 95.2-95.2 95.2-95.2-42.6-95.2-95.2 42.6-95.2 95.2-95.2" fill="#fff"/>
    <path d="m275 446s-7.8-18.8-7.4-33.7c0 0 2.4 5.6 3.3 4.6 0 0-7-23.5-1.7-36.9 0 0 1.1 3.7 3.1 6 0 0 2.9 4.6 4.1 8.4 0 0 0.6-1.6 0.9-4.4 0 0 2.6 3.3 3.2 5.5 0.4 1.8 1.6 3.7 2.4 6l0.9-0.5s5.3 6.4 7.3 12.3c0 0 1.6 0.2 0.8-4.4 0 0 4.4 4.3 4.5 10.9l0.9-1c3.7-4.6 3.7-11.7 3.6-16.1-0.9-14.1-8.1-21.7-17.1-29.9l0.8-0.7c13.4 2.5 22.3 3.9 35.9 0 5.2-1.5 17.7-7.2 23.8-11.1 0 0 13.5-5.9 23-5.9 0 0 0.4-0.2 0.4 0.3 0 0-1 3.5-0.1 16.6 0 0 1 6.1 1.8 10.3 0 0 1 2.8 1.1 8.6 0 0.5-0.5 4 1.9 3.6 5.1-0.7 8 0.4 12 1.1 0 0 4.2 1.2 5.9 1.4 0 0 4-0.6 5.2-0.2 1.4 0.5 2.8 1.6 4.6 3.3 0 0 2 2.1 0.7 7 0 0-1.3 4.4-0.6 5.8 0 0 1.2 3 2.9 4.7 0 0 1.2 2-0.5 3.1 0 0-0.9 1 0.6 1.4 0 0 1.1-0.1 1.9 0.3 0 0 0.4 0.2 0.5 1 0.1 0.9 0.5 5.3-2.5 9.1 0 0 0.8-0.2 1.5-0.5 0 0 3.6-0.3 5.5 0.6 1.6 0.9 4 2 3.7 7.5-0.9 4.5-2.7 7.2-4.5 12.3-2.1 5.4-2.5 8.1-7 11.8-2.7 1.2-3.9 3.3-1.9 5.3 1.6 2.4 1 6.7-1.8 9.6-2.7 2.7-4.7 6.9-5.7 9-1.3 2.3-2.8 4.7-4.2 6.2-1.3 1.7-3.4 2.7-7 7 0 0-2.1 1.9-2.5 4-3 4.7-11.5 11.4-21.2 12.1-2.8 0.3-2.8 0.3-4.8 0.6-3.4 1.2-14 1.6-21.2-0.5-2.3-0.5-7-1.4-7-1.4-2.5-0.8-6-1.5-9.8-3.8-2.8-1.5-7-5-10.2-7.2-3.4-3.4-10.9-8.3-15.1-11.2-8.1-6-15.1-13.9-19.2-18.8 0 0-10.3-12.9-15.3-35.1-0.3-3.4-1.2-6.6-0.7-10.4 0 0 4.5 9.8 8.7 12.9 0 0-0.6-1.8-0.9-4.7 0 0 2.1 4 3.1 4.6 0 0 1.6 1.7 3.8 4.4 0 0 4.7 6.2 6.1 6.9-1.7-3.3-2.1-5.4-2.3-8.8 0.7 0.7 1.2 1.2 1.4 1.6 0 0 0.4 0.9 0.9 0.7 0.2-0.6-0.1-1-0.1-1"/>
    <path d="m411 436c1.2 2.5 1 4.9-0.7 7.8-1 1.7-1.7 3.6-2.5 6-0.3 1-1 2.9-1.8 4.6-0.1 0.7-1.5 3.8-2.4 5.1-2.3 3.3-4.1 3.6-5.4 4.9 0 0-0.5 0-0.5 0-1.3-0.9-1.3-2.8-2.4-4.3-0.1-0.2-0.5-0.4-0.7-0.2-0.4 0.2-0.5 0.5-0.9 1.1-0.4 0.6-0.7 0.2-1.1-0.3-0.3 0-0.5-0.2-0.7-0.4-0.4-0.4-0.1-0.6 0.2-1 0.3-0.4 0-0.4 0.2-0.6-0.1-0.2-0.1-0.2-0.2-0.3-0.1-0.2-0.5-0.2-0.8-0.1-0.7 0.1-0.6 0.1-1.2 0.4-0.8 0.4-1.2 1.5-1.8 1.8-0.2 0.1-0.8 0.2-1.3-0.1-0.4-0.2-0.5-0.8-0.2-1.1 0.5-0.5 0.9-1 1.5-1.5 0.8-0.6 1.6-1 1.7-1.8 0.1-1-1.4-1.4-2.1-0.9-0.4 0.3-0.8 0.6-1.2 1-0.1 0.1-0.1 0.4-0.2 0.5-0.3 0.3-0.7 0.5-0.9 0.8-0.3 0.5-0.7 1-1.3 1.2-0.1 0-0.3 0.3-0.3 0.4-0.3 0.5 0 1-0.2 1.4-0.2 0.3-0.2 0.9-0.7 0.7-0.5-0.5-0.4-0.5-0.9-0.4-0.6 0.1-0.1 1.3-0.1 1.1 0-0.1 0 0 0.2 0.4-0.5 0.1-1.1 0.5-0.6 1.2 0.4 0.6 0.9-0.3 1 0.1 0.1 0.1 0.4 0.8 0.6 0.9 0.5 0.3 0.7-0.1 0.7-0.2-0.2-0.6 0.4-1 1.1-0.7 0.1 0 0 0.5 0.1 0.6 0.6 1 1.5 1.5 2.4 2.2 0.1 0.1 0.3 0.1 0.4 0.2 0.3 0.5 0.6 1.3 0 1.6-0.5 0.2-1.5 0-1.3 0.9 0.1 0.4 0.6 0.6 0.9 0.7 1.1 0.5 2.2 1 3.3 1.4 0.3 0.1 0.7 0.5 1.1 0.5 1.4 0.1 1.1 0.1 2.8-0.2 0.3-0.1 0.9-0.4 1.2-0.5 0.9-0.3 2.2-0.2 2.8 0.8 0.6 1 0.4 2.6-0.2 3.7-0.7 1.4-1.8 2.6-2.8 3.5-1.2 1.2-2.8 1.8-3.1 3.5-0.4 2-2 4.7-2.9 6.4-0.9 1.7-1.8 2.8-3 4.3-0.3 0.4-2 2.1-2.3 2.4-2 1.9-2.8 2.6-5 3.4-1.1 0.4-5.3 0.1-7.5 0.4-0.7 0.1-2.8 0.1-3.4 1.3-0.5 1-1.2 2.5-2.3 3.2-0.4 0.3-1 0.5-1.4 0.7-2 1-4 2.7-6.2 2.6-0.8 0 0-0.9 0.2-1 1-0.5 1.4-1.1 1.9-1.7 0.6-0.6 1.8-0.7 2.8-1.1 1-0.4 1.8-1 2.7-1.5 0.9-0.5 2-2 1.1-2.6-0.9-0.6-1.8 0.1-2.9-0.2-0.2-0.1-0.6-0.2-1.9-0.2-1.8-0.2-2.4 0.6-3.7 1.6-1.4 1-2.2 2.5-3.5 3.4-1.6 1.1-3.3 2.1-5.1 2.7-0.4 0.1-0.9-0.1-1.3 0.1-0.7 0.4-1.1 1.1-1.9 1.2-1.4 0.1-1.4 0.2-2.7 0-0.2 0-0.7-0.6-0.9-0.6-0.8 0-1.7 0.2-2.1-0.2-0.6-0.7 0.1-0.6 0.9-1 0.5-0.2 1.4-0.7 2-0.7 2.3 0 3.7 0.1 5.5-0.9 0.2-0.1 1-0.9 1.1-1.2-1.7 0-4.4 0.7-6.3 0.5 3.3 0.3-3.4-0.1-4.8 0-0.4 0-0.4-0.9 0.2-1.4 0.2-0.1 1.2 0.1 1.3-0.3 0.6 0.3 2.3 0.2 2.8 0 0.8-0.3 0.4-0.2 1.1-0.6 0.5-0.2 0.9-0.6 1.4-0.5 0.7 0.1 0.7 1.1 1.4 0.8 0.2-0.1 0.8-0.4 0.9-0.4 3.9 0.1 4-1.1 5.8-1.1 0.5 0 1.2 0.2 1.5 0 0.7-0.5 1.4-0.6 2.6-0.1 0 0 2.6-7 1.9-19.7-0.7-5.4-1-6.4-2.2-10.8 0 0-1.8-7-1.1-11.8 0.7-16.4-4.3-29.9-9.7-38.9-2-2.5-3.2-3.8-1.1-5.6 4.3-3.9 7.8-4.8 13.9-6.2 2.1-0.7 3.5-0.9 5.5-0.9 3.2 0 8.1-1.3 10.4-3 2.1-1.1 7.9-3.3 11.4-2.7 3-0.2 4-0.4 5.4-1 1-0.5 2-0.5 3.2-0.1 1 0.7 0.5 0.4 1.8 1.3 0.2 0.6 1.9 1.3 1.5 3.6-0.1 1.7-0.8 3.4-1.1 5-1 1.4-0.9 2.4-0.6 3.9 1 2 2.2 3.1 2.8 4.1 1.4 1.5 0.6 2.6-1.3 3.1-0.9 0.4-2.6 0.2-4.4 0.4-1 0-1.7 0.4-3.1 0.1 0 0-0.9-0.6-1.4-1.1l-0.7 0.4s0.6 1.8 1.9 2.9c1.3-0.2 3.2-0.4 4.2-0.1 1.2 0.5 2.5 0.7 3.5 1.1 1.7 0.2 2.5 0.1 4.5-0.1 0 0 1 4.4-2.5 7.7-0.8 0.8-1.5 1.8-2.8 1.9-4.3-0.5-6.7 1.2-7.3 1.7-1.1 0.1-1.4-0.4-2-1.1-1.5-2.5-3.2-3.3-3.2-3.3l-0.9 0.1s0.8 1.4 2.6 3.6c0.8 1.8 1.9 4.1 2.9 5.2 0.6 1.1 0.8 3.5 2.3 4.2 0.7 0 0.8 0.2 1.4-0.2-1.1-1.1-4.3-4.9-1-7.3 1.4-1.1 3.4-1.1 3.9 0.1 0.3 0.6 0.8 1.1 1.1 1.3 1.7 0.3 3.1-0.5 3.7-1 1.4-1.6 2.1-2.3 2.8-2.6 0.7-0.6 2.1-0.5 2.8-0.5 2.2 0.4 3.4 1.6 3.8 2.4" fill="#5b2b2f"/>
    <path d="m387 463c0.7-0.4 1-0.2 2.3-0.4 0 0 1.2-0.2 2.3 0.8 0.2 0.2 1.1 0.6 1.1 1-0.1 1.7 0.1-1.1-0.2 1.5-0.1 0.5-0.1 1.1-0.3 1.6-0.1 0.3-0.6 0.8-1.3 0.6-0.1 0-1.2-1-1.3-1-0.6-1.2-1.6-1.3-2-2.1-0.4-0.7-0.6-0.9-0.8-1.3-0.1-0.2-0.2-0.4 0.1-0.6" fill="#5b2b2f"/>
    <path d="m398 446c2 0.6 2.9-0.3 5-1.7 0.4-0.3 0.7-0.9 0.1-1.3-0.2-0.1-0.6-0.1-0.7 0-1.9 1.8-2.5 1.8-4.5 2.2-0.1 0-0.4 0.6 0.1 0.8M386 426 386 426"/>
    <path d="m386 426c-0.3-0.9-0.6-1.7-1-2.5-0.4-0.9-0.2-1.9-0.8-2.7-0.3-0.3-1-0.2-1.1 0.2-0.4 1.5-0.2 3.2 0.5 4.6 0.4 0.7 1.4 1.1 2.2 0.8-0.1-0.2 0.2-0.3 0.1-0.5v0.1"/>
    <path d="m367 436c-0.6 0.2-1 0.8-0.9 1.5 0.2-0.1 0 0.2 0.2 0.2 1.4-0.1 2.6-0.6 4-0.7 1.5 0 3.1 0.3 4.5 0.9 1.7 0.8 3.2 1.7 4.9 2.8 0.7 0.5 1.8 0.8 2.8 1 1.5 0.3 1.4 1.2 2.5 1.8 1.6 0.9 1.5 1.6 2.4 1.3 0.3-0.1-0.3-0.7-0.5-0.9-0.6-0.5-1.4-1.1-1.9-2-0.1-0.2-0.9-1.1-1.1-1.2-1.8-1.4-2.2-2.5-3.6-4.2-0.8-0.9-1-2.2-1.5-3.3-0.3-0.6-0.5-1.3-0.9-1.9-0.2-0.2-0.8-0.1-1-0.3-1.1-1.1-2.2-2.1-3-3.5-0.1-0.2-0.6-0.2-0.7-0.1-0.7 1.4-1.7 2.4-3.4 2.5-0.3 0-0.6 0.7-0.6 1.3 0 0.1-0.1 0.4-0.3 0.4-0.3 0.1-0.4 0.3-0.7 0.3-0.3 0-0.5 0.5-0.6 0.7-0.3 1.1-0.2 2.3-0.4 3.5h0.1"/>
    <path d="m342 405c-0.3 1.1-2.1 1-3.4 0.9-2-0.2-3.8-0.5-5.7-1.6 1.3 1.9 2.8 2 5.8 3.2 0.7 0.3 0.5 1.4 0.1 2.1-0.5 0.8-1.1 0.8-1.4 0.9-2.4 0.5-3.2-0.1-4.5-0.4-4.5-1.1-8.9-4.5-11.3-7.8-0.7-0.9-0.5-1.9-0.3-2.1 0.4-0.6 1.2-2.3 1.4-2.1 1.8 2 4 3.8 6.4 3.2-1-0.3-4.6-2.1-5.7-4.8-0.1-0.2 0.5-1.1 1.1-1.6 0.9-1.5 1.2-2.1 1.8-2.4 0.3 0 1 0.7 1.2 1 2.5 3.3 5 5.3 11.9 6.3 2 0.3 3.1 0.9 3.3 2.7 0 0 0.4 0.9-0.4 2.7M334 394 334 394" fill="#fff"/>
    <path d="m334 394c0.1-1.7-0.1-2.5 0.3-3.6 0.5-1 1.4-1.9 1.8-3 0.3-0.8 1.3-1.9 1.3-2.4 0.5-0.5 0.5-0.9 0.5-0.9 0.6-0.8 2.4-1.7 1.8-2.2-0.7-0.6-2.9-0.2-4.3 0.1-1.7 0.3-0.7-1.3-0.3-1.4 1.7-0.7 5.4-1 6.5-1.6 0.7-0.4 1.7-1 2-1.7 0.2-0.5 0.6-1 1-1.4 1.2-1.5 1.6-2.2 2.7-3.2 0.6-0.5 1.3-1.3 1.1-2-0.2-0.9-0.8-1-1.6-0.9-0.3 0-1.1 0.3-1.9 0.6-1.6 0.5-1.9 1.1-3 0.5-0.6-0.3 0.3-1.4 1-1.7 2.8-1.5 6.3-1.5 9-3.1 2.4-1.4 3.8-3 3.7-6.5 0-0.1 0.8-0.5 0.9-0.5 0.8 1.3 2.9-0.3 3.8 0 0.1 0 0.1 0.6 0 0.8-0.5 0.7-1.5 0.7-1.9 1.4-0.5 0.7 0.2 1.5 0 2.1-0.2 0.6-1.3-0.5-1.7 0-1.8 1.9-3 4.1-5.4 5.2 1 2.8 1.5 6 1.2 7.5-0.7 0.6-1-0.3-1.1-0.5-0.6-0.5-0.3-1.7-1-2.6-0.1-0.1-1 0-1.2 0.2-1.7 1.4-3.2 3.1-4 5.1 0 0.1-0.4 0.5-0.4 0.6-1.2 1.7-1.1 4.1 0.3 5.8 0.2 0.2 0.4 1.2 0.2 1.4-0.2 0.2-0.8-0.2-1-0.4-0.8-0.8-1.4-2.4-2.7-2.2-1.5 0.2-2 1.6-2.9 2.6-0.3 1-0.8 1.6-0.7 1.7-1.2 1.8-1.3 3.3-2.5 5.5-0.3 0.5-0.6 0.8-1.1 0.9" fill="#fff"/>
    <path d="m342 364c1.5-0.7-0.2 1-0.2 1-0.6 0.4-1.9 2.5-2.2 2.9-0.6 1.1-1.1 2-1.4 2.8-0.6 1.4-1.7 2.3-3.5 4.1-0.9 0.9-2.3 2.4-2.9 3.6-0.9 1.8-1.4 4.9-3.5 6.4-1.6 1.2-1.2 2.5-2.7 4.7-0.5 0.9-1.7 0.9-2.5 1.8-2.1 2.1-0.8 2.9-2.6 4.8-0.8 0.8-1.1 1-1.8 2.3-0.9 1.6-0.2 3.8-1.7 4.5-1.3 0.7-2.4 0.9-3.3 1.2-1.4 0.5-3.7 1.6-5 2.6-1.3 1-4.1 3.3-7 5.9 1.8-13.9-0.7-25.7-14.4-38.1 25.5 4.7 36.7-1.2 54.8-10.5" fill="#5b2b2f"/>
    <path d="m352 382c0.1-1.1 0.5-0.9 1.1-2.5 0.3-0.8 1.2-2.1 1.7-2.5 2.6-2.2 4.4-5.6 4.2-9 0.1-1.7 0.2-1.6 1.9-2.8 0.3-0.2 0.4-0.2 1.3-1.1 0.3-0.3 2.8-2.9 3.1-3.2-0.1 1 0.1 2.7 0.1 3.3-0.2 5.3 0.9 10.8-0.9 15.5-1.3 3.5-4.4 7.4-5.6 11l-0.6 2c-0.6 2.8-0.7 5.8-0.7 5.8l-3.8 1.8c-3 1.2-6.3 2.3-9.3 3.4 0-1.6 0.2-2.7-1-4.3 0.8-1.9 1.5-6.1 2.4-7.2 2-1.9 3.6-3.3 4.9-7.8 0.3-1.1 1.2-1.6 1.2-2.4" fill="#5b2b2f"/>
    <path d="m306 502s-2.3 0.2-7.6-3.8c-5.9-3.6-13.6-8.8-19.3-15.7-4.1-4.1-9.9-10.4-12.1-14.8 0 0-3.5-5.5-5.7-14.6 0 0 0.8-2.9 3.1 0.9 3.9 6.7 18.9 29.3 40.4 45.7l1 0.1c-10.6-9.1-24.4-21.4-37.7-42.4-0.5-0.8-1.1-2.2-1.2-2.3-0.6-1.1 0.9-1.3 0.2-1.1 1.2-0.3 1.7 1.4 2.5 1.7 0.5 0.2 0.7-1.2 1.5-0.9 2.7 1.3 4.8 4.1 5.9 5.8 0.1-0.5 0.7-1.9 0.7-1.9 1.2-0.3 5.1 5 7.1 8.6 0.6-0.7-0.1-2.3 0.6-1.6 2.3 2.2 4.4 4.5 5.6 6.7 1.4 2.5 3 3.6 3.6 8 0.9-0.6 0.9-0.8 1.1-1 0.6 0.7 0.6 1.4 1.5 2.4 1 1.1 1.2 2 2.4 2.7 0.4 0.3 1.4 2 1.6 3 0.2 0.9 2.1 3.7 2.3 4.7 1.6 2.9 4.3 4.5 6.2 6.8 1.8 1.6 0.5 4.4-3.4 2.9" fill="#fff"/>
    <path d="m286 414c0.8-0.9 1.5 0.3 1.5 0.3 1.3 2 1.6 2.5 2.5 5.1 0.6 1.8 1.2 2.4 1.8 9.7 1.6-2.4 1.8-6.9 1.8-6.9l0.5 0.1s1.5 4.2 4 5.5c0 0 0.2 2.8 2.7 5.6-0.3 1.7-0.6 3.1-0.9 5.8-1 4.5-1.6 12.1-0.6 17.3 2-10.8 3.2-12.4 3.2-12.4l0.5-0.2c0.8 1.3 1.1 3.6 1.3 5.6 1 4.3 2.8 3.8 2.8 4.7-0.6 3.5-1.5 9-0.9 13.8 1.1-5.2 1.7-4.8 2.5-6.8 1-2.4 1.1 0.6 1.1 0.6-0.2 3 1.9 6.1-0.1 13.2-0.8 4.9-3 15.2-2.1 17.6 0.6 2.9-0.5 1.9-0.5 1.9s-2.9-0.7-7.3-13.1c-6.4-20.6-12-42.6-17.9-60.5 1.8 9.4 11.4 42.4 14.2 54.4 0 0-0.4 0.8-1-0.1-0.7-0.8-1.5-1.9-1.9-2.6 0.1 0-0.3-0.1-0.8-0.3l-1.4-2.1s-2.8-3.9-10.5-12c-1.3-2-1.8-3-3.3-6.2-0.5-1.2 0.3-1.3 1.1-0.7 2.1 2 2.2 2 5.1 4.2 0.1 0.1 2.5 0.9 2.5 1-0.4-0.5-0.8-0.8-1-0.9-0.8-0.8-2.7-3-3.3-3.9-1.3-2.3-2.7-5.1-4.6-8.5-2.4-4.3-4.2-9.2-4.2-9.2-1.2-3.5-0.9-3.8-0.9-3.8 1.7-0.7 0.8-1.5 0.8-1.5-0.8-1.4-1.1-2.5 0.2-2 0.8 0.2 1.3 0.6 1.7 1 0.7 0.8 1.2 1.4 1.7 2 0.8 0.9 0.6 1.2 1.4 2.2 1.1 1.2 1.7 2.2 2.8 2.7-1.9-2.5-2-4.3-2-4.3l0.5-0.6 0.3-0.2s-1.9-2.4-2.8-7.7c-0.4-2.5-0.3-2.9-0.7-4.3 0.2 0.2 1.3 0 2.3 1-0.4-1.6-0.5-2.4-0.5-2.4-0.2-1.3-0.2-1.1-0.2-2.5 0-1.4 0-0.8 0.5-2.4 2 0.9 2.5 0.8 4.4 3 0.9 0.9 1.6 2.9 1.9 2.8 0.5-0.2 0.1-1.4-0.1-1.9-0.3-0.7-0.6-1.2-0.7-1.7-0.1-0.3-0.3-0.6 0.1-1 0.2-0.2 0.1-0.1 0.6-0.1 0.3 0 0.7 0.5 0.7 0.5s0.2 0 0.4 0.4c0.1 0.3 0.4 0.5 0.6 0.7 0 0 0.3 0.3 0.7 0.2" fill="#fff"/>
    <path d="m220 468c-3.7-5.3-6.4-13.6-7.8-19.6 1.7 0.9 1.8 0.8 3.4 1.4 0.6 2.8 5 19.1 4.4 18.3zm21.9-184c2.3-5.5 2.6-10.8 0.6-21.1-2.2 2.1-2.4 4.1-4.1 5.1-0.2-5.9-0.4-7.7-1.6-10.3-2.4-4.6-3-7-3.2-11.5-3.9 3.3-5 7.8-7.7 10.4-1.9 1.9-5.7 5.5-7.1 7.9-0.2-2.8 0-3.8-1.1-6.5-0.9 3.1-1 4.1-3.2 6.7-2.8 4-9.1 12.7-10.6 22.1-0.3 1.6-1.2 6.2-2.2 12.5-0.8-2.1-2.1-3.8-3.5-4.2-0.7-0.3-0.7 0.6-0.7 0.6 0.6 2 0.8 4.3 0.6 6-0.3 2.5-1 8-2.2 9.4h-0.6c0.1-3.7-1.3-5.4-2.3-6.7-0.1 2.9 0 5.2-0.7 6.7-0.3 1-1.1 1.9-1.3 0.9-0.6-2.9-0.8-3.5-0.8-6.2-0.2-4.1-0.2-5.4-0.7-8.8-0.2-2.5-1-5.5-3.3-8.6-0.4 2.7-2.1 4.9-2.1 4.9 0-3.3 0.7-8.1-1.3-10.7-2.5-3.4-2.8-5.1-3.6-7.6-0.3 2.9-1.2 2-1.7 3.6-1.8-7.7-7.4-13.5-9.5-14.9 1.4 3.2 2.5 6.8 2.7 9 0 0-0.3 8.4-1.6 13.1-3.1 14.8-4.6 48.9-2.2 61.8 5.6 46.2 29.4 88.5 49.7 127h-2.5v8.9h2.7l3.7 8.2 2.4-1.9 5 15.3 2.2-11.2 9.6 7.5-7.8-17.7h2.7c-0.4-0.9-0.9-1.8-1.3-2.8l-16.4 0v-3.6h15c-0.3-0.9-0.6-1.8-1-2.7h-5.3l4.4-2.8c-0.3-0.9-0.6-1.8-0.8-2.6l-1.9 1.3c-0.8-3.6-3.4-15.9-2.8-23.2 6.9-6.7 12-13.1 11.2-27.5 0 0 0.5-0.3-2.5 0.6 1.5-1.6 1.9-2.8 3.2-5.5 0.6-4.4 0.9-8.3 0.6-12.4 0 0 0.3-10 0.7-13.2 1.4-0.5 0.6-4.1 0.7-8.8 0 0-0.1-2.9-0.6-5.2-2.8 2.3-2.6 2.1-3.4 1.9 0.7-2.3 1.1-2.3 2.5-4.1 0-13.4 0.5-27.3 1.4-33.4 0.4-4.4 1.2-9.5 1.6-11.1 0.7-2 0.7-3.8 2.7-8.1-0.7 0-2.6-0.1-3.8 1.6 1.8-3.4 1.8-2.7 2.9-3.8l1.6-11.7-1.8-2 2.5-1.6s-0.6-5.3 0.1-10.2c0.3-2.3 1-4.5 2.6-7.7-3.3-0.1-3.8 2.6-3.8 2.6-0.9 1-2.5 3.3-2.9 3.3-0.2-3.3 1.6-4.5 2.4-6.4"/>
    <g fill="#fff">
      <path d="m193 330c-0.2 4.8-0.9 9.4-1.4 12.4-0.5 1.2 0 1.5 0.7 1.7 0.2 0.1 2.7 3.3 2.7 5-2.1-1.5-2.7-1.8-4.7-3.2-0.2 4.9-2.4 12.5-4.7 18.5 2.5-2.3 4.1-4.8 4.9-7 0.9 5 1.2 7.9 1.4 10.3-1.2 4.4-3.6 14-3.4 21.1 1.5-5.2 2.8-10.8 4.3-14.2 0.7 2.5 1.2 6.9 2.1 10.6 1.2 0.9 2.7 1.8 3.2 2.6-0.5 0.8-2.4-0.7-2.7-0.8 0.2 3.5 0.8 10.3-1.6 21.3l0.3 0.3c1-0.5 2.3-2.5 2.7-4.6 2 2.4 3.4 14.1 4 18.7-2.1 0-3.2-2.4-4.6-2.1 0.2 1.5 0.3 0.8 0.9 2.1 0.6 1.6 1.9 3.2 2.5 5.3 1.2 1.8 1.2 4 1.4 6 0 1.9-0.2 4.7 1.4 7.2 0.3-1 0.1-1.7 0.9-3.8 0 0 3.2 6.9 4.9 8.5 2.3 9.8 7.7 20.9 12.7 28.1h-2.4c-2.8-3.8-22.2-40.4-24.1-47-14.9-29.9-24.5-59.7-26.3-89.1 0.1-1 0.1-0.4 0.6-1.2 0.4-0.8 0.2-1.8 0.5-2.7 0.3 0.4 0.9 0.6 0.9 1.1 0.4-1.8-0.8-3.4-0.2-5.2 0.7 0.6 1.7 0.8 2.3 1.6-0.1-0.7-0.2-1.4-0.3-2-0.2-1.2 0.3-2.4 0.4-3.6 0.2-1.5 2.1-2.7 1.6-4.2-0.9-2.5-1.4-5.1-0.6-7.4 0.2-0.5 0.4-1.3 1-1.6 0.4-0.2 1.1-0.2 1.5 0 0.2 0.1 0.4 0.5 0.5 0.8 0.2 1.1-0.3 2.1-0.1 3.1 0.3 1.4 0.5 2.7 1.3 3.8 0.2 0.2 0.8 0.1 1-0.2 0.6-1.3 0.3-2.8 1.1-3.9 0.3-0.4 1.2-0.7 1.6-0.2 1.1 1 0.7 2.5 0.8 3.8 0.2 2.1-0.8 3.3-1 5.4-0.3 2 0.1 2.3 0.8 3.2 0.7-1.9 0.7-3.9 2.1-5.6 0.3-0.4 0.8-0.4 1.1-0.2 1 0.9 0.8 2.7 0.1 3.9-1.1 1.8-2 4.7 0 6.4-0.1-0.9-0.1-2 0.4-2.7 0.7-0.9 1.9-2.9 2-4.8 0.1-0.7 1-0.9 1.6-0.4 0.1 0.1 0 0.5 0.3 0.6 1 0.1 1.4-1 1.4-1.8 0.4 0 0.9-0.1 1.1 0.1 0.9 0.9 0.7 3.2 0.7 4.5 0.1 2.4 0.6 1.5 1 1.7M234 319 234 319"/>
      <path d="m234 319c0.6-0.6 2.2 0.2 2.7-0.5-0.1 0.4-0.2 0.8-0.4 1.1-4.2 5-8.1 10.2-7.9 14.1 2.8-4.1 5.2-6.5 7.4-8.1l0.1 0.8c-1.6 10.2-1.6 14.7-2.4 24.3-2.5 2-8.1 8.1-7 13.3 1.9-3.6 4.1-6.4 6.1-7.6l0.8-0.6c-0.2 1.8 0.1 12.1 0.1 15.2-1.4 1.9-3 4.2-4.2 6.4-1.1 2.3-2.4 4.5-5.5 8.2-2.6 3.9-6.6 7.3-6.6 7.3s0.8-0.1 1.2-0.1c1.2-0.4 2.7-0.9 4.9-2.4 0.8-0.3 2-1.9 4-3.8 1.4-1.3 1.5-2.2 2.2-2.6 1.2-1.1 2.8-2.5 4.3-3.6h0.5c0.3-1.3 0.2 8.4 0.2 8.4-1.7 2.8-3 6.1-4.5 9.9-0.2 1.4 0.8-0.8 2.7-1.8 0.6 2-0.5 12-0.6 18.8-0.6 2.1-8.5 13.2-8.9 16 2.7-4.4 6.3-5 7.7-6.7 0.3-0.3 0.4-0.4 0.8-0.2-0.2 11.4-5.3 16.9-10 21-0.7 10.5 2.8 25.5 2.8 25.5l-1.9 1.2c-8.8-36.5-12.9-58.2-13.8-85.3-1-27.9 1.6-55.4 8.3-81.1 0.3-1 0.6-2 0.9-3 0.2-0.3 0.5-0.6 0.9-0.4 0.5 0.2 0.6 0.8 0.6 1.2 0.3 1.8 0.5 3.7 1.3 5.2 0.1 0.1 0.4 0.5 0.6 0.7 0.6 0.8 0.8 1.7 1 2.8 0 0.3 0.3 0.5 0.4 0.7 0.6 0.5 1.2-0.2 1.5-0.7 0.6-0.8 0.3-1.8 0.8-2.6 1.3-2.1 2.8-3.8 4.4-5.6 0.4-0.4 1.1-1 1.9-0.7 0.2 0.1 0.5 0.3 0.5 0.4 0.3 0.8-0.4 1.6-0.7 2.3-0.5 1-1.5 2.3-0.9 3.4 0.2 0.3 1-0.6 1.4-0.2 0.4 0.4 0.4 1.1 0.3 1.7-0.2 0.7-0.5 1.4-0.8 2-1.1 2.4-2.4 4.6-3.1 7-0.1 0.3-0.2 0.7-0.2 1.1 0.4-0.9 1.4-1.5 1.8-2.3 0.1-0.2 0.4-0.4 0.5-0.6 0.6-0.8 1.6-1.1 2-1.9 0.5-1.1 0.6-3.5 2.2-3.2 0.5 0.1 1.4 0.6 1 1.4-0.3 0.7-0.4 1.4-0.9 1.9-0.4 0.5-1.1 0.8-1.4 1.3-0.5 0.9-0.9 2.1-0.4 3.1 0.1-0.9 0.8-1.4 1.4-2"/>
      <path d="m201 308c0.9 3.9 1.7 7.5 3.9 10.9 0.2 0.4 0.6 0.5 0.9 0.8 0.2-2.2-0.1-4.4 1.3-6.4 0.6-0.9 1.5-0.7 2.5-0.7 0.6-2.1 2.1-3.7 2.7-5.8 0.1-0.4 0.6-0.7 1.1-0.5 0.8 0.3 1.6 0.7 2 1.5 0 0 0.1 0.1 0.1 0.2-7.3 24.2-9.2 57-8 84.9 1.4 20.5 2.9 35.6 7.5 54 0 0-1.5-0.6-2.3-0.9-1.6-0.8-2.2-1.6-3.9-3.7-0.7-1.5-1.6-2.1-2.1-3.8-2-4.1-2.4-7.2-3.4-10.1l0.7 0.1c2.2 2.9 5.6 5.5 6.4 6.3l1.1 0.6c-1.6-4.1-3.7-5.1-5.9-8.8-2.9-6.1-5.8-28.9-7.1-35.2l1.4 0.5c0.9 0.5 2.4 2 6.8 3.6 2.3 1.8-7.4-8.3-8.7-11.7-1.2-8.8-3-23.3-3.3-29.8l0.5 0.1c0.7 0.5 6 6.9 8.1 7.7l0.7 0.7c-1.1-1.7-4.9-9-5.6-11.4-0.8-2.3-1.8-4.7-2.7-6.9-0.3-0.7-0.7-1.2-0.5-2 0-4.6 0.5-9 0.9-11.3l0.6-0.8c0.5 1.2 2.7 3.5 4.1 4.2l0.1-0.7c-1.2-2.9-2.8-5.6-3.4-7.1 0-5.6 0.7-12.5 1.9-18 0.1-0.8 1.1-0.7 1.6-0.3l0.3 0.2"/>
    </g>
    <path d="m239 281c-1.6 3.6-4.2 8.6-2.4 15.9 1.1-2.6 1.9-2.5 3.7-2.9 0.3 2.7-0.1 6.5 0 7-0.7 1.2-2.3 2.7-2.3 2.7l1.7 3.3c0.8 3.3-0.8 5.9-0.6 6.4-0.8 1.9-1.4 3.5-1.8 4.7-0.3 1-2.1 0-2.8 0.6-0.6 0.6-1.3 1.1-1.4 2-0.5-1.1-0.1-2.2 0.4-3.1 0.3-0.5 0.9-0.8 1.4-1.3 0.5-0.5 0.6-1.2 0.9-1.9 0.4-0.9-0.5-1.3-1-1.4-1.6-0.3-1.7 2.1-2.2 3.2-0.4 0.8-1.4 1.1-2 1.9-0.1 0.2-0.4 0.4-0.5 0.6-0.5 0.8-1.4 1.4-1.8 2.3-0.1-0.4 0.1-0.8 0.2-1.1 0.8-2.5 2.1-4.7 3.1-7 0.3-0.7 0.6-1.3 0.8-2 0.2-0.6 0.1-1.3-0.3-1.7-0.4-0.4-1.2 0.5-1.3 0.2-0.6-1.1 0.3-2.3 0.9-3.3 0.4-0.7 1.1-1.5 0.7-2.3-0.1-0.2-0.3-0.4-0.5-0.4-0.8-0.2-1.5 0.3-1.9 0.7-1.7 1.8-3.1 3.5-4.4 5.6-0.5 0.8-0.2 1.8-0.8 2.6-0.3 0.5-0.9 1.2-1.5 0.7-0.2-0.2-0.4-0.4-0.4-0.7-0.2-1-0.4-2-1-2.8-0.2-0.2-0.5-0.6-0.6-0.7-0.9-1.6-1-3.4-1.3-5.2-0.1-0.4-0.2-1-0.6-1.2-0.4-0.2-0.7 0.1-0.9 0.4 0.2-0.7 0.4-1.4 0.6-2 0-0.1 0-0.2 0.1-0.2 0.2-0.6 0.3-1.2 0.5-1.8 0-0.1 0.1-0.2 0.1-0.3 0.2-0.6 0.3-1.1 0.4-1.5 0-0.1 0-0.1 0-0.2 0.1-0.5 0.2-0.9 0.2-1.1-0.2 0.3-0.3 0.7-0.5 1.1-0.1 0.1-0.1 0.3-0.2 0.5-0.1 0.3-0.2 0.6-0.4 0.9-0.1 0.2-0.1 0.4-0.2 0.6-0.1 0.2-0.2 0.4-0.2 0.7-1 2.6-2 5.3-2.8 8.2 0-0.1-0.1-0.1-0.1-0.2-0.5-0.8-1.2-1.1-2-1.5-0.4-0.2-0.9 0.2-1 0.5-0.5 2.2-2.1 3.8-2.7 5.9-0.9 0-1.8-0.2-2.5 0.7-1.3 2-1.1 4.2-1.3 6.4-0.3-0.3-0.7-0.4-0.9-0.8-2.1-3.4-3-7-3.9-10.9-0.2-0.8-0.3-1.1-0.5-1.8-0.5-1.5 0.3-1.7 1.1-0.7 1.4 1.8 1.1 0.3 1.2-0.1 0.3-2.6 1.7-5.2 2.3-9.6 0.5-4.3 1.4-8.6 1.8-10.7 1.2-7 5.9-14.2 8.7-16-0.3 2.9 0.7 4 0.5 6.3l0.6 0.1c0.1-3.9 3.1-9 6.4-11.8 2.7-3.2 4.2-3.8 6.5-7.1 0.7-1.1 1.2-1.6 1.8-2.5 1.2 2.6 3.5 7.1 3.5 12 0 3.8-0.1 8.1-1.1 11.5 2-0.9 4.3-4.2 6-7 1 2.2 0.5 8.1-1.1 11.1M168 338 168 338" fill="#ffb612"/>
    <path d="m168 338c0.1-1 0.1-0.4 0.6-1.2 0.4-0.8 0.2-1.8 0.5-2.7 0.3 0.4 0.9 0.6 0.9 1.1 0.4-1.8-0.8-3.4-0.2-5.2 0.7 0.6 1.7 0.8 2.3 1.6-0.1-0.7-0.2-1.4-0.3-2-0.2-1.2 0.3-2.4 0.4-3.6 0.2-1.5 2.1-2.7 1.6-4.2-0.9-2.5-1.4-5.1-0.6-7.4 0.2-0.5 0.4-1.3 1-1.6 0.4-0.2 1.1-0.2 1.5 0 0.2 0.1 0.4 0.5 0.5 0.8 0.2 1.1-0.3 2.1-0.1 3.1 0.3 1.4 0.5 2.7 1.3 3.8 0.2 0.2 0.8 0.1 1-0.2 0.6-1.3 0.3-2.8 1.1-3.9 0.3-0.4 1.2-0.7 1.6-0.2 1.1 1 0.7 2.5 0.8 3.8 0.2 2.1-0.8 3.3-1 5.4-0.3 2 0.1 2.3 0.8 3.2 0.7-1.9 0.7-3.9 2.1-5.6 0.3-0.4 0.8-0.4 1.1-0.2 1 0.9 0.8 2.7 0.1 3.9-1.1 1.8-2 4.7 0 6.4-0.1-0.9-0.1-2 0.4-2.7 0.7-0.9 1.9-2.9 2-4.8 0.1-0.7 1-0.9 1.6-0.4 0.1 0.1 0 0.5 0.3 0.6 1 0.1 1.4-1 1.4-1.8 0.4 0 0.9-0.1 1.1 0.1 0.9 0.9 0.7 3.2 0.7 4.5 0.1 2.4 0.7 1.5 1.1 1.7 0 0 0.2-1.1-0.1-4.4 0.3-4.1-0.1-9.4-1.2-10.6-1 1-1.1 1.9-2.5 2.3-3.6-1.7-3.4-17.1-3.2-19.5-0.1-0.6-0.9 0-0.9 0-2 2-2.9 4.5-3.5 5.9 0 0-0.8 0.9-0.8 0-1-3.3-0.7-12.2-0.2-14.3 0.5-2.6 0.1-4.1-1.1-6.5-0.2-0.7-0.7-0.8-0.7 0.1-0.1 1-0.8 1.5-1.1 2.5 0 0-0.8 1.5-1 0-0.7-3.8-2.8-8.5-3.6-9.9l-0.6-0.3c0.2 3.6-0.9 9.3-1.7 13.4-1.8 10.8-3.6 21-3.6 35.8 0 6.7 0.4 13.8 0.4 13.8l0.2-0.2" fill="#ffb612"/>
    <g fill="#fff">
      <path d="m230 490 0.6-2.6 2.9 5.7-3.5-3M220 483l1.6 3.9 4.5-3.9M220 483l1.6 3.9 4.5-3.9"/>
      <path d="m220 483 1.6 3.9 4.5-3.9h-6.1"/>
      <path d="m225 487 2.1 7.4 1.5-10.5-3.5 3.1"/>
      <path d="m339 501c-0.3 0.4-1.6 0.2-1.8 0.7-0.1 0.3-0.3 0.8-0.5 0.9-0.4 0.3-0.9-0.1-1.4-0.2-0.7-0.1-1.4 0-2.1 0.3-1.2-1.4-4.4-0.5-6-0.6-0.2 0 1-0.7 1.2-0.8 1.1-0.9 2.8-0.8 4.1-0.9 0.2 0 0.6 0.2 0.8 0.2 1.4 0.2 2.8-0.3 4.3-0.5 0.5-0.1 1.9 0.4 1.5 0.9"/>
      <path d="m361 499-3.3 1.9c-0.2 0.3-0.5 0.7-0.8 1-0.8 0.7-1.1 1.5-2 2.1-1.1 0.7-2.1 1.7-3.4 2.2-0.1 0-0.3 0-0.4 0-0.1 0-0.1 0.1-0.1 0.2-0.1 0-0.3 0-0.3 0-0.2 0.2-0.4 0.3-0.6 0.4-0.7 0.2-1.4-0.2-2 0.3-0.3 0.3-0.7 0.5-1.1 0.7-1 0.6-2.1 0.3-3.2 0.1-0.2 0-0.5-0.3-0.8-0.5-0.4-0.3-1.1 0.3-1.6 0.1-0.5-0.2-1-0.7-0.5-1.2 0.5-0.5 1.1-0.8 1.8-1 2-0.5 4 0 5.8-0.8 0.5-0.2 1.2-0.5 1.4-1.2-0.2 0-0.4-0.2-0.5-0.1-0.4 0.3-0.9 0.3-1.4 0.4-3.1 0.3-6.2 0.5-9.2 0.1 0-0.8 0.3-1.6 1-1.7 1-0.1 2 0.2 2.9 0.1 1-0.1 2.1-0.7 3.1-1.3 0.1-0.1 0.4-0.1 0.5 0 0.5 0.2 0.8 0.8 1.3 0.6 0.3-0.1 0.6-0.3 1-0.3 0.7-0.1 1.2 0 1.9-0.1 1.4-0.2 2.6-1.2 4.1-1 1.1 0.2 1.5-0.2 2.1-0.7-0.3 0.3 2-1.3 2.2-0.9 0.1 0.2 2.3 0.3 2.4 0.6"/>
      <path d="m369 500c-0.9 0.6-1 1.7-1.5 2.5-0.4 0.6-0.9 1.2-1.4 1.5-2.6 1.4-5.7 3.8-7.7 3.6-0.6-0.1-0.9-0.7-0.5-1.1 0.7-0.7 1.9-0.9 2-2 2.6-1.3 7.3-2.2 7.1-5.1 0-0.3 1.7 0.6 2.1 0.5"/>
    </g>
    <g fill="#ffb612">
      <path d="m182 339c0.1-0.3 0.6-0.1 0.3-0.5 0.7 0 1.4-0.1 2 0.1 0.3 0.1 0.5 0.6 0.6 0.9 0.2 1 0.6 2.1-0.2 2.8-0.8 0.6-0.6 1.6-1.1 2-0.2 0.2-0.8 0.4-1.1 0.7-0.3 0.3-0.7-0.3-0.7-0.6 0-0.7 0.5-1.5 0.5-2.3 0-1.2-0.6-1.5-0.2-3.1M174 349 174 349"/>
      <path d="m174 349c-0.1 1.3-0.5 3.2 1.4 2.6 0.6-0.2 0.8-1.1 0.8-1.5 0-1.2 0.3-2.1 0.8-3.2 0.3-0.6-0.2-1.1-0.5-1.5-0.8-1.1-2.3-1.7-3.2-0.6-0.5 0.7-1.2 1.7-0.7 2.6 0.4 0.7 0.7 1.1 1.3 1.7"/>
      <path d="m176 336c-1 1.5-0.5 2.8 0.7 3.7 0.8 0.6 1.7 0.2 1.9-0.5 0.4-1.3 1-2.5 1.4-3.8 0.4-1.4-1.3-2.7-2.5-2.1-0.9 0.4-0.8 1.9-1.4 2.7"/>
      <path d="m177 330c-0.5 0.2-0.5-0.3-0.8-0.5-0.5-0.4-0.5-1.4-0.9-1.9-0.8-1.1-0.6-2.7-0.3-3.7 0.2-0.7 1.3-1.8 2.2-1.7 1.5 0.1 2.5 2.8 1.4 3.5-1.4 0.9-0.9 3-1.5 4.2 0 0.1-0.4 0-0.6 0"/>
      <path d="m187 333c-0.4 0.5-0.4 1.2 0 1.5 0.4 0.3 1.1 0.2 1.5-0.2 0.1-0.1 0.5-0.4 0.6-0.5 1.2-1 2-2.3 1.3-3.7-0.2-0.4-0.9-0.8-1.4-0.4-0.4 0.3-0.9 0.3-1.2 0.8-0.4 0.8-0.3 1.7-0.9 2.5"/>
      <path d="m173 342c-0.2 0.7-0.8 0.4-1.2-0.2-0.8-1.2-1.2-2.4-1.3-4.2 0.2-1 1.7-1.2 2.4-0.8 1.6 1 0.5 4.9 0.4 4.4 0.1 0.3-0.3 0.9-0.3 0.8"/>
      <path d="m205 331c-0.3 0.3-0.9 0-0.9-0.4-0.1-1.2-0.1-3.3 1.6-3 0.6 0.1 1 0.8 0.9 1.4-0.2 0.9-0.9 1.5-1.6 2"/>
      <path d="m209 327c-0.4 0.4-1.2 0.4-1.5 0.1-0.6-0.5-0.9-1.5-0.7-2.3 0.3-0.9 0.5-1.8 1.2-2.5 0.4-0.4 1.3-0.9 1.5-0.6 0.5 0.7 1 1.8 0.8 2.8-0.2 1-0.6 1.8-1.3 2.5"/>
      <path d="m225 328c-0.3 0-0.7-0.1-0.8-0.3-0.6-1 0.1-2.1 0.9-2.6 0.9-0.4 2 1 1.3 1.9-0.4 0.5-1.1 1-1.8 1"/>
      <path d="m217 318c-0.3 0.2-0.8 1.2-0.6 1.9 0.2 0.6 0.9 0.9 1.6 0.8 0.7-0.1 1.1-0.6 1.5-1.1 1-1.3 1.3-3.4 0-4.5-0.5-0.5-1.5-0.3-1.9 0.3-0.5 0.8-0.1 1.5-0.5 2.3 0.1 0-0.1 0.3-0.1 0.3"/>
      <path d="m227 317c-0.9 0.7-0.5 2.2-1.5 2.8-0.6 0.4-1.3 0.5-1.8 0-0.5-0.5-0.5-1.2-0.7-1.9-0.1-0.4 0.2-0.8 0.3-1.1 0.7-1.5 2.6-1.6 4-2.4 0.2-0.1 0.6 0.3 0.7 0.5 0.4 0.8-0.3 1.6-0.9 2.1"/>
      <path d="m212 319c-0.5 0.6-1.3 0.4-1.8 0.1-0.2-0.1-0.3-0.4-0.3-0.6 0-1.5-0.5-3 0-4.4 0.3-0.8 1.1-1.8 2-1.4 0.7 0.3 1.1 1.1 0.9 2-0.4 1.5 0.2 3.2-0.8 4.4"/>
      <path d="m218 336c-0.2 0.7-0.9 1.2-0.6 1.9 0.1 0.2 0.5 0.1 0.7 0.2 0.8 0.2 1.8 0.1 2.3-0.5 0.4-0.4 0.7-1 1.1-1.5 0.4-0.6 0.4-1.3 0.7-1.9 0.3-0.7 0-1.5-0.6-1.8-0.6-0.4-0.9-0.7-1.8-0.3-0.4 0.2-0.6 0.9-0.7 1.2-0.2 0.4-0.2 1.5-0.5 1.9-0.3 0.3-0.4 0.4-0.6 0.8"/>
      <path d="m217 333c-0.3 0.3-0.6 0.3-0.9 0.3-0.1 0-0.5 0-0.5-0.3 0.1-1.4-1.5-2-2-3.1-0.5-1.1 0.5-2.2 1.3-2.9 0.7-0.6 1.7-0.2 2.5 0.1 1.3 0.4 1.5 2.2 1.2 3.5-0.2 0.9-0.8 1.8-1.6 2.5"/>
    </g>
  </g>
</svg>
