<?xml version="1.0" encoding="UTF-8" standalone="no"?>
<svg xmlns:rdf="http://www.w3.org/1999/02/22-rdf-syntax-ns#" xmlns="http://www.w3.org/2000/svg" xml:space="preserve" height="117.37" viewBox="0 0 95.24488 117.36647" width="95.245" version="1.1" xmlns:cc="http://creativecommons.org/ns#" xmlns:dc="http://purl.org/dc/elements/1.1/"><g transform="matrix(1.25 0 0 -1.25 -333.36 552.76)"><g style="" transform="matrix(.125 0 0 .125 266.69 345.85)"><path d="m308.56 252.56c4.909 19.305 18.209 34.962 21.35 37.449 0 0-20.647-27.548-14.683-70.87 0 0 5.6903 35.493 32.446 70.328 26.756 34.827 52.458 51.124 73.747 77.138 11.834 14.467 18.545 28.347 22.537 40.816 3.2658 9.3232 4.7267 18.436 5.3882 25.147-5.7632-0.5104-11.253-1.2161-16.766-1.7604-0.039-0.2084-0.0859-0.4219-0.125-0.5782-5.56-18.58-16.3-31.94-33.37-39.75-22.29-22.73-55.55-38.54-74.11-50.43-32.74-20.99-38.12-62.39-38.12-62.39 3.6017 63.533 42.556 71.737 85.123 102.97 0.8907 0.6458 3.0288 1.8698 3.8908 2.5261l-1.3178-0.5547c-5.3205 0-16.191 0.9974-21.199 2.1798-4.6538-3.2007-9.1904-6.0159-13.376-8.2998-22.277-12.151-37.733-31.991-37.733-31.991 6.021 20.113 20.113 28.59 41.236 43.465-7.8961 3.2501-16.724 8.7581-22.826 14.771-12.443-6.4273-39.949-23.126-58.265-40.434-14.644-13.849-41.814-33.486-73.93-48.629 25.24 16.698 67.802 54.213 82.737 68.44 0 0-55.965-32.329-71.992-43.181 0 0 20.826 22.99 46.585 37.171 0 0-56.96-23.337-89.732-45.712-16.954-11.578-42.923-35.176-57.932-51.231 6.1643 1.336 29.566 6.0601 35.803 6.7007 42.121 4.3309 88.157 1.0547 128.5 49.622 0.6615 0.7839 1.3386 1.5834 1.9167 2.2839-3.5131-12.008-5.021-28.84-4.3386-47.603 1.4662-40.553 32.962-56.567 45.152-65.075-0.3047 4.9872-1.0625 9.9587 3.3986 27.48" fill="#ffc62f"/><path d="m214.55 288.97-0.8178-0.0807s11.946-6.2528 21.847-6.2528c9.9014 0 18.024 3.2058 18.024 3.2058s-1.6407 23.235 0.5599 30.842c0 0-18.803-22.503-39.613-27.714" fill="#ffc62f"/><path d="m312.72 462.99c0-0.0235 0.0208 0.0651 0.0208 0.0651s20.261-5.9377 32.488-15.368c0 0-13.284 2.6954-26.842 4.3933 9.7478-14.516 26.285-24.076 45.088-24.076 14.238 0 27.165 5.5158 36.858 14.474-2.3308-1.6276-4.5001-2.8698-6.2189-3.7006-4.6408-2.2449-9.2139-3.0183-12.657-3.2605-7.7607-2.4715-15.545-1.4011-17.55-1.0443 0.1615 0.0364 0.3203 0.0963 0.487 0.1198 23.352 4.0287 45.124 21.876 42.673 49.106-1.0599 11.62-4.6069 24.045-11.935 31.881 9.1488-7.7919 15.378-18.943 16.54-31.767 0.5807-6.3336-0.1459-12.48-1.922-18.209 2.9663 6.3935 4.6955 13.459 4.7945 20.946 1.7214-7.9925 1.0963-14.847-0.7943-20.701 2.3177 5.7789 3.6537 12.058 3.7475 18.641 0.1667-0.7657 0.2344-1.4949 0.362-2.2423 0 0.0495 0.005 0.0938 0.005 0.1433 0 3.935-0.4167 7.7606-1.2214 11.454l-0.013 0.5443c-3.1043 20.324-17.982 39.65-36.957 48.174-5.6851 2.9506-22.972 9.3206-41.671 11.008-8.4769 0.9609-17.563 0.8594-28.673-0.3151-4.9611-0.5235-9.7894-1.1433-14.524-1.7527-25.378-3.2527-49.345-6.3257-75.026 8.0758-31.821 16.037-55.369 51.848-59.843 91.152l-0.4922 4.2814c-0.6406 5.4143-0.8776 11.157-1.1901 16.693-0.4558 4.8986-1.349 7.5654-1.4558 6.9482-0.0625-0.3594 0.0495-0.8126 0.0495-1.1772 0.0312-4.1876-0.9948-8.3518-1.6329-12.456-0.7552-4.8804-1.7683-14.141-1.8334-13.823-0.0833 0.3854-0.2005 0.7761-0.2474 1.1354-0.2187 1.3569-0.2604 2.7033-0.276 4.0731-0.0339 2.7423-0.0834 5.4872-0.224 8.232-0.3464 6.8727-1.5105 26.944-2.0548 29.496-0.1406 0.6511-0.4166 2.9429-1.0963 3.3465 0.0677-2.362-0.0365-4.7345-0.1433-7.094-0.263-6.1408-1.6459-13.448-2.2553-19.566-0.6042-6.1461-1.6511-12.196-2.5678-18.3-0.25-1.6849-0.625-5.0444-0.6771-4.4975-0.005 0.112-0.0156 0.2344-0.026 0.3698-0.3308 3.7475-1.2735 15.803-1.2006 29.498l-0.0364 2.8178c-0.0834-0.5339-0.1719-1.0703-0.2631-1.6068-2.2422-13.18-4.9012-31.504-5.159-51.288-0.005-0.5651 0.0469-2.2162 0.0365-3.0965-0.125-6.1486 0.1198-31.73 11.12-59.955 16.722-42.931 49.148-71.406 96.368-84.636 23.389-6.6435 49.72-11.597 68.041-17.136" fill="#fff"/><g fill="#ffc62f"><path d="m349.88 185.47c-5.6512 4.2892-21.97 16.451-31.967 22.003-12.248 6.7919-25.621 14.276-30.834 18.886 0 0-0.1068-21.506 10.427-37.928 7.8519-12.243 29.274-23.41 43.233-31.78 1.2083 4.547 4.448 16.222 9.1409 28.819"/><path d="m323.75 212.49c10.138-6.3049 22.391-13.954 29.152-19.316 1.6381 3.9402 3.3986 7.8518 5.2632 11.534 10.834 21.365 21.467 28.98 25.678 51.241 4.2111 22.274-6.37 39.361-14.441 47.726 0 0-24.251-26.516-33.756-48.127-8.4742-19.282-11.44-34.808-11.896-43.059"/><path d="m276.92 463.75c-1.8855 0.474-3.7762 0.9532-5.6929 1.4323-3.8283 0.9636-7.7112 1.8699-11.584 2.7684-4.2945 0.9974-8.5837 1.9818-12.805 3.0105-0.2291-1.06-0.4427-2.1147-0.6354-3.1616-0.6146-3.7683-1.1303-7.6122-1.56-11.44 9.6514 2.5053 21.058 5.1851 32.048 7.1253 0.2604 0.0416 0.5104 0.0859 0.7683 0.1276-0.1823 0.0495-0.362 0.0937-0.5391 0.138"/></g><path d="m304.46 604.16c-35.816 22.121-44.726 43.124-50.145 73.214-0.8647 4.8465-2.0209 9.4482-3.3257 13.823 1.0079-11.399 0.1068-22.068 0.1068-22.068-1.3829 11.016-8.2633 30.303-8.2633 30.303 2.7579-12.399 3.4376-32.371 3.4376-32.371-0.8151 7.0315-3.8699 18.011-6.1929 25.681 0.8386-5.5523 1.5105-10.769 2.0417-15.034 1.8308-14.836-1.7032-41.353 8.8076-69.148 6.8023-17.982 21.582-31.165 30.436-37.816 7.3388 10.342 16.735 23.639 23.097 33.418" fill="#fff"/><path d="m523.12 406.56c1.8907-2.2604 5.2658-7.1434 5.4533-8.8388 0.0234-0.2109 0.003-0.6693-0.0365-1.2917v-0.003s-0.0182-0.1797-0.039-0.4453c0-0.0313-0.008-0.0495-0.008-0.073-0.237-2.599-1.4871-14.698-4.2762-18.071-0.4115-0.6719-0.8751-1.3203-1.4584-1.9063-3.2006-2.9949-8.7998-5.8413-19.373-13.175-11.657-8.0914-20.868-24.634-20.868-24.634s3.3126 15.631 10.519 24.563c8.93 11.065 20.566 18.378 27.746 22.199l3.2266 14.417c-2.4714 1.6511-5.5809 3.3412-8.5888 3.8803-6.2424 1.099-16.761 0.9558-23.201 3.0574 0.0312 0.0495 0.0781 0.1302 0.0781 0.1302 7.7086 0.9402 12.222 3.1955 23.686 5.0809 11.466 1.8777 20.305-1.5078 20.305-1.5078-7.7112-0.3776-13.164-3.383-13.164-3.383zm37.296 6.2086c-10.956-4.3335-36.525 3.422-52.499 4.5679-15.98 1.1406-27.165-6.3883-27.165-6.3883-4.3386 10.956 0.685 25.785 0.685 25.785-3.3335-0.0598-15.35-1.526-18.735-1.7214-0.0495-0.1927-1.2735-0.388-3.1434-0.5911 0.005-0.3672 0.005-0.7344 0.0156-1.1016 0 0-5.0444-38.741-23.402-64.023 4.8075-2.6668 16.936-6.2945 21.217-10.201 7.9351-7.2398 8.3701-17.693 7.9846-21.826-0.3698-4.1459-0.9792-11.537-4.7866-26.183 0 0-0.9323 21.058-2.8152 27.267-1.8777 6.2007-8.9326 11.928-15.706 13.993-3.073 0.9401-8.706 2.4506-14.972 3.8438-12.099-13.849-24.298-23.42-35.762-33.61 1.2162-1.8829 2.9298-3.4741 5.3466-4.1043 6.8908-1.7969 15.6 2.3126 15.6 2.3126s-5.5289-25.616 9.1774-47.457c10.966-16.287 32.152-12.115 32.152-12.115s4.547 32.188 24.634 57.973c18.514 23.777 41.082 36.087 56.84 40.728-0.5651 2.9194-1.5261 8.9587-0.4114 11.894 1.5026 3.9454 5.8309 7.5211 11.097 7.5211 5.2684 0 11.274-2.8205 11.274-2.8205-2.8152 0.5652-10.146 0.935-13.909-3.0001-2.8881-3.0391-1.56-9.1747-0.7917-11.857 14.498 2.6641 27.85 0.8542 30.402 0.2213 2.737-0.6849 5.2449-0.2265 6.1642 3.1955 0.9167 3.4193 0.9167 7.5289-0.9193 8.8935-1.8256 1.3776-4.7918 1.836-7.7633 4.1147-2.9688 2.2813-5.4689 7.7581-5.2449 15.745 0.2291 7.9899-4.5627 18.946-4.5627 18.946" fill="#e9bf9b"/><g fill="#ffc62f"><path d="m492.56 436.3c-5.6356-3.7553-4.3204-15.042-4.3204-15.042s4.5131 4.698 15.602 7.5211c11.092 2.8178 25.764 0.7474 25.764 0.7474-8.4639-1.685-13.162-4.508-13.162-4.508 15.792-2.0678 18.61-7.1461 39.668-5.6408s23.691 21.43 23.691 21.43-4.896-2.2553-15.79-4.6981c-10.907-2.4428-32.902 0.9402-39.491 1.6928-6.5784 0.75-26.316 2.2527-31.962-1.5027"/><path d="m283.47 558.56c3.3647 0.3907 6.7789 0.823 10.263 1.2709 4.797 0.612 9.6852 1.2422 14.714 1.7735 11.732 1.2422 21.402 1.3438 30.402 0.3151 17.803-1.6016 34.86-7.2685 42.962-11.042 22.55-9.5342 40.316-32.493 43.46-56.51l-0.0365-0.008c0.1276-0.6641 0.2579-1.3308 0.362-2.0027 0.0391-0.25 0.0729-0.5026 0.1094-0.7474 0.1276-0.8542 0.2448-1.711 0.3333-2.5808 0-0.008 0.003-0.013 0.003-0.026 5.5888 0.6614 35.004 3.9871 59.533 3.8178 21.876-0.1458 41.283-2.435 50.619-3.9533-9.5888 21.378-24.42 46.457-46.838 67.695-50.671 48.002-113.3 70.942-165.57 73.341 0 0-0.7969-9.3753-6.456-21.363-2.0105-4.2528-4.6199-8.8336-8.0419-13.446-4.9169-6.6122-14.766-20.212-23.824-33.907-0.3021-0.4635-1.9975-2.6277-1.9975-2.6277"/><path d="m349.7 112.87s5.3153 9.3414 11.216 19.803c-3.7084 3.1564-8.7034 6.9299-14.857 10.745-5.5992 3.4767-15.186 8.2424-23.55 13.063-0.0547-4.56 0.5234-16.089 7.0263-25.475 8.2945-11.969 20.165-18.136 20.165-18.136"/><path d="m315.45 409.92c-0.8437 1.1485-1.6719 2.31-2.4506 3.5158l-1.7162 1.487c-5.797-1.1693-83.547-11.383-177.59-74.588-31.15-20.938-69.359-58.093-88.219-78.831 8.081 3.534 25.49 10.834 39.272 15.089 14.073 14.451 37.178 37.868 58.351 52.7 49.059 34.358 132.97 69.888 172.35 80.628"/><path d="m543.76 308.19c24.256 15.974 45.233 21.305 45.233 21.305s-0.8203 13.112-14.097 25.566c0 0-20.105 5.6486-45.291-5.8231-25.196-11.466-49.205-34.348-59.549-58.038-10.334-23.691-11.149-48.749-12.279-67.179-1.1198-18.428 1.9506-45.965-5.2814-70.763 0 0 11.881 17.566 16.193 67.192 3.9064 45.002 15.04 75.961 35.72 90.44 0 0-16.545-22.941-22.186-60.544-5.6408-37.608-4.5131-52.275-11.466-83.482l-1.7266-5.8544s16.555 22.16 25.524 79.917c7.8518 50.494 22.639 73.154 42.944 85 0 0-27.178-29.54-33.405-71.831 0 0 15.409 38.108 39.665 54.093"/></g><path d="m408.99 271.7c-7.581 11.133-12.805 33.42-12.805 33.42s-9.4717 0.2188-15.066 7.8336c-0.9427-0.9558-1.8802-1.8959-2.8178-2.8933 0 0 8.5342-11.852 13.75-34.137 3.9689-16.967-6.6408-44.561-6.6408-44.561s5.4975-13.849 7.9325-30.707c0.3282 0.2005 0.6875 0.4193 1.0079 0.6068 0 0 29.571 15.672 45.46 22.308 2.5105 1.0547 5.6669 2.198 9.2165 3.3803 0.3281 6.6304 0.9896 15.766 2.3334 24.243-3.0574-0.0781-5.8674-0.1198-8.2346-0.1198-16.357 0-26.543 9.4795-34.137 20.626" fill="#e9bf9b"/><path d="m571.31 251.43c-8.0654 0.2318-39.707 1.2422-59.382 1.2422-0.0781 0-0.1641-0.003-0.2396-0.003-1.9662-3.0886-3.5496-6.383-5.2528-10.987 5.4872 1.0781 10.782 2.0261 15.633 2.75 26.795 4.034 48.835 4.745 52.39 5.219 3.5574 0.4739 9.9586 0.2396 12.326 2.1355 0 0-7.4143-0.5964-15.474-0.3568" fill="#e9bf9b"/><path d="m332.03 101.26c1.5261-5.1408 5.3518-7.7893 9.1227-9.7634 2.4324 7.7138 5.581 16.256 5.581 16.256-5.7555 2.9298-11.321 7.8388-11.321 7.8388-2.1251-2.7579-5.8726-5.9481-3.383-14.331" fill="#ffc62f"/><path d="m580.75 284.01c-5.6434 2.2579-15.232 1.6902-15.232 1.6902s7.3362 17.865 6.581 27.636c0 0-42.546-18.344-54.747-52.108 0 0 25.524-0.6641 39.814-2.3517 14.292-1.6953 23.584-1.7552 26.777-1.9453 3.1955-0.1797 9.7764-0.56 7.7086 11.099-2.0677 11.659-5.2658 13.722-10.901 15.98" fill="#e9bf9b"/><g fill="#ffc62f"><path d="m328.72 52.77c-3.3516-4.1538-4.8777-12.529-2.7501-15.024 2.1199-2.5001 5.0757-2.2006 6.9169-0.10938 1.8412 2.0808 2.3881 5.3726-0.1744 8.8388-2.0678 2.8074-3.9924 6.2945-3.9924 6.2945"/><path d="m378.56 219.65c-1.7996-2.8855-4.6591-7.3413-6.3362-9.6044-5.2997-7.167-18.381-35.644-23.959-57.96 1.6693-1.0391 3.1824-2.013 4.4584-2.8985 6.1357-4.2944 9.7712-7.7346 11.834-10.032 2.6719 4.7502 7.9117 9.5785 10 13.365 7.6748 13.94 13.56 30.402 11.652 45.392-1.3074 10.295-5.9273 18.49-7.6487 21.738"/><path d="m337.5 65.793c-4.4585 3.0131-7.331 6.3726-7.331 6.3726-5.9403-10.219-3.0626-12.592 5.1278-18.665 5.6069-4.146 4.534-9.5654 4.534-9.5654s7.6903 3.8986 7.1773 8.8388c-0.3385 3.2736-5.0523 10.008-9.5081 13.019"/><path d="m357.48 114.66c-4.7449-8.5446-9.0029-19.774-11.136-25.774 0.4506-0.25782 0.8855-0.52085 1.2787-0.78909 4.4585-3.0053 10.162-11.006 10.162-11.006s12.217 13.607 17.178 29.024c4.9663 15.415-0.9766 33.868-0.9766 33.868s-9.7035-13.079-16.506-25.324"/><path d="m341.6 84.443c-6.094 2.9142-9.3024 6.9794-9.3024 6.9794s-3.646-4.9194-2.3048-10.748c1.3464-5.8335 6.7737-8.3518 12.534-11.282 5.7632-2.9298 7.9378-8.7816 7.9378-8.7816 4.0938 2.8777 6.12 7.2763 3.8569 12.063-2.2683 4.7918-6.6227 8.8571-12.722 11.769"/></g><path d="m540.44 480.48c-6.7398 1.2553-28.209 4.4976-54.864 4.6773-24.222 0.164-53.432-2.8647-59.192-3.5054 0-0.0312-0.005-0.0651-0.005-0.1015-0.0339-36.032-31.048-61.752-59.932-62.182-43.621-0.6511-59.679 34.506-60.012 36.582-3.1095 0.9062-6.4299 1.8125-9.8727 2.7344-5.7945-0.7083-11.99-1.5964-18.493-2.7449-12.019-2.1172-24.436-5.0809-34.54-7.7112-0.4818-5.3361-1.2526-13.92-1.2839-14.652-1.4375-30.34 0.474-28.222 0.474-28.222 8.7972 3.4402 41.246 11.763 41.246 11.763 9.5029 2.211 20.787 4.5861 33.998 7.0263 9.2894-18.722 28.579-31.595 50.892-31.595 27.863 0 51.017 20.063 55.866 46.517 60.898 6.6122 89.683 6.7997 127.29 1.7969-3.9455 20.959-11.573 39.616-11.573 39.616" stroke="#000" fill="#4f2683"/><path d="m536.28 409.93s-8.8284 3.3855-20.287 1.5104c-11.485-1.875-15.99-4.1407-23.699-5.0783 0 0-0.0495-0.0781-0.0781-0.1302 6.4325-2.1094 16.956-1.9532 23.204-3.047 3.0183-0.5468 6.1226-2.2396 8.594-3.8803l-3.2292-14.428c-7.1878-3.8282-18.829-11.123-27.738-22.191-0.6771-0.8308-1.3281-1.7449-1.9245-2.7059-0.2865-0.3906-0.5469-0.8073-0.7813-1.25-0.3411-0.5469-0.6511-1.0938-0.9375-1.6407-0.3646-0.651-0.7058-1.3281-1.0417-2.0313-0.3386-0.6771-0.6511-1.3542-0.9376-2.0313-1.276-2.8621-2.2917-5.7294-3.0469-8.1539-0.1042-0.2839-0.1823-0.5678-0.2605-0.8308-0.5729-1.8985-0.987-3.4637-1.25-4.5314-0.0521-0.1563-0.0781-0.2865-0.1042-0.4141-0.026-0.1067-0.0521-0.2083-0.0781-0.3151-0.0547-0.2083-0.0807-0.3906-0.1042-0.4948-0.026-0.0495-0.026-0.1042-0.026-0.1328 0.1562 0.263 0.9636 1.7214 2.3204 3.8308 0.3099 0.4688 0.6224 0.9636 0.9844 1.5105 2.6042 3.9064 6.5653 9.3232 11.279 13.959 0.6511 0.6511 1.3256 1.3021 2.0053 1.9011 1.3803 1.2266 2.7839 2.3699 4.2449 3.3856 10.573 7.344 16.172 10.183 19.373 13.175 0.5755 0.6016 1.0443 1.2526 1.461 1.9037 2.7865 3.3881 4.0366 15.495 4.2736 18.074v0.0782c0.0234 0.2604 0.0494 0.4427 0.0494 0.4427 0.0261 0.4427 0.0261 0.8073 0.0261 1.0417v0.2604c-0.1823 1.6928-3.5678 6.5888-5.4429 8.8284 0 0 5.4429 3.021 13.152 3.3856zs-8.8284 3.3855-20.287 1.5104c-11.485-1.875-15.99-4.1407-23.699-5.0783 0 0-0.0495-0.0781-0.0781-0.1302 6.4325-2.1094 16.956-1.9532 23.204-3.047 3.0183-0.5468 6.1226-2.2396 8.594-3.8803l-3.2292-14.428c-7.1878-3.8282-18.829-11.123-27.738-22.191-0.6771-0.8308-1.3281-1.7449-1.9245-2.7059-0.2865-0.3906-0.5469-0.8073-0.7813-1.25-0.3411-0.5469-0.6511-1.0938-0.9375-1.6407-0.3646-0.651-0.7058-1.3281-1.0417-2.0313-0.3386-0.6771-0.6511-1.3542-0.9376-2.0313-1.276-2.8621-2.2917-5.7294-3.0469-8.1539-0.1042-0.2839-0.1823-0.5678-0.2605-0.8308-0.5729-1.8985-0.987-3.4637-1.25-4.5314-0.0521-0.1563-0.0781-0.2865-0.1042-0.4141-0.026-0.1067-0.0521-0.2083-0.0781-0.3151-0.0547-0.2083-0.0807-0.3906-0.1042-0.4948-0.026-0.0495-0.026-0.1042-0.026-0.1328 0.1562 0.263 0.9636 1.7214 2.3204 3.8308 0.3099 0.4688 0.6224 0.9636 0.9844 1.5105 2.6042 3.9064 6.5653 9.3232 11.279 13.959 0.6511 0.6511 1.3256 1.3021 2.0053 1.9011 1.3803 1.2266 2.7839 2.3699 4.2449 3.3856 10.573 7.344 16.172 10.183 19.373 13.175 0.5755 0.6016 1.0443 1.2526 1.461 1.9037 2.7865 3.3881 4.0366 15.495 4.2736 18.074v0.0782c0.0234 0.2604 0.0494 0.4427 0.0494 0.4427 0.0261 0.4427 0.0261 0.8073 0.0261 1.0417v0.2604c-0.1823 1.6928-3.5678 6.5888-5.4429 8.8284 0 0 5.4429 3.021 13.152 3.3856zs-8.8284 3.3855-20.287 1.5104c-11.485-1.875-15.99-4.1407-23.699-5.0783 0 0-0.0495-0.0781-0.0781-0.1302 6.4325-2.1094 16.956-1.9532 23.204-3.047 3.0183-0.5468 6.1226-2.2396 8.594-3.8803l-3.2292-14.428c-7.1878-3.8282-18.829-11.123-27.738-22.191-0.6771-0.8308-1.3281-1.7449-1.9245-2.7059-0.2865-0.3906-0.5469-0.8073-0.7813-1.25-0.3411-0.5469-0.6511-1.0938-0.9375-1.6407-0.3646-0.651-0.7058-1.3281-1.0417-2.0313-0.3386-0.6771-0.6511-1.3542-0.9376-2.0313-1.276-2.8621-2.2917-5.7294-3.0469-8.1539-0.1042-0.2839-0.1823-0.5678-0.2605-0.8308-0.5729-1.8985-0.987-3.4637-1.25-4.5314-0.0521-0.1563-0.0781-0.2865-0.1042-0.4141-0.026-0.1067-0.0521-0.2083-0.0781-0.3151-0.0547-0.2083-0.0807-0.3906-0.1042-0.4948-0.026-0.0495-0.026-0.1042-0.026-0.1328 0.1562 0.263 0.9636 1.7214 2.3204 3.8308 0.3099 0.4688 0.6224 0.9636 0.9844 1.5105 2.6042 3.9064 6.5653 9.3232 11.279 13.959 0.6511 0.6511 1.3256 1.3021 2.0053 1.9011 1.3803 1.2266 2.7839 2.3699 4.2449 3.3856 10.573 7.344 16.172 10.183 19.373 13.175 0.5755 0.6016 1.0443 1.2526 1.461 1.9037 2.7865 3.3881 4.0366 15.495 4.2736 18.074v0.0782c0.0234 0.2604 0.0494 0.4427 0.0494 0.4427 0.0261 0.4427 0.0261 0.8073 0.0261 1.0417v0.2604c-0.1823 1.6928-3.5678 6.5888-5.4429 8.8284 0 0 5.4429 3.021 13.152 3.3856zs-8.8284 3.3855-20.287 1.5104c-11.485-1.875-15.99-4.1407-23.699-5.0783 0 0-0.0495-0.0781-0.0781-0.1302 6.4325-2.1094 16.956-1.9532 23.204-3.047 3.0183-0.5468 6.1226-2.2396 8.594-3.8803l-3.2292-14.428c-7.1878-3.8282-18.829-11.123-27.738-22.191-0.6771-0.8308-1.3281-1.7449-1.9245-2.7059-0.2865-0.3906-0.5469-0.8073-0.7813-1.25-0.3411-0.5469-0.6511-1.0938-0.9375-1.6407-0.3646-0.651-0.7058-1.3281-1.0417-2.0313-0.3386-0.6771-0.6511-1.3542-0.9376-2.0313-1.276-2.8621-2.2917-5.7294-3.0469-8.1539-0.1042-0.2839-0.1823-0.5678-0.2605-0.8308-0.5729-1.8985-0.987-3.4637-1.25-4.5314-0.0521-0.1563-0.0781-0.2865-0.1042-0.4141-0.026-0.1067-0.0521-0.2083-0.0781-0.3151-0.0547-0.2083-0.0807-0.3906-0.1042-0.4948-0.026-0.0495-0.026-0.1042-0.026-0.1328 0.1562 0.263 0.9636 1.7214 2.3204 3.8308 0.3099 0.4688 0.6224 0.9636 0.9844 1.5105 2.6042 3.9064 6.5653 9.3232 11.279 13.959 0.6511 0.6511 1.3256 1.3021 2.0053 1.9011 1.3803 1.2266 2.7839 2.3699 4.2449 3.3856 10.573 7.344 16.172 10.183 19.373 13.175 0.5755 0.6016 1.0443 1.2526 1.461 1.9037 2.7865 3.3881 4.0366 15.495 4.2736 18.074v0.0782c0.0234 0.2604 0.0494 0.4427 0.0494 0.4427 0.0261 0.4427 0.0261 0.8073 0.0261 1.0417v0.2604c-0.1823 1.6928-3.5678 6.5888-5.4429 8.8284 0 0 5.4429 3.021 13.152 3.3856zm-20.287 1.5104c-11.485-1.875-15.99-4.1407-23.699-5.0783 0 0-0.0495-0.0781-0.0781-0.1302 6.4325-2.1094 16.956-1.9532 23.204-3.047 3.0183-0.5468 6.1226-2.2396 8.594-3.8803l-3.2292-14.428c-7.1878-3.8282-18.829-11.123-27.738-22.191-0.6771-0.8308-1.3281-1.7449-1.9245-2.7059-0.2865-0.3906-0.5469-0.8073-0.7813-1.25-0.3411-0.5469-0.6511-1.0938-0.9375-1.6407-0.3646-0.651-0.7058-1.3281-1.0417-2.0313-0.3386-0.6771-0.6511-1.3542-0.9376-2.0313-1.276-2.8621-2.2917-5.7294-3.0469-8.1539-0.1042-0.2839-0.1823-0.5678-0.2605-0.8308-0.5729-1.8985-0.987-3.4637-1.25-4.5314-0.0521-0.1563-0.0781-0.2865-0.1042-0.4141-0.026-0.1067-0.0521-0.2083-0.0781-0.3151-0.0547-0.2083-0.0807-0.3906-0.1042-0.4948-0.026-0.0495-0.026-0.1042-0.026-0.1328 0.1562 0.263 0.9636 1.7214 2.3204 3.8308 0.3099 0.4688 0.6224 0.9636 0.9844 1.5105 2.6042 3.9064 6.5653 9.3232 11.279 13.959 0.6511 0.6511 1.3256 1.3021 2.0053 1.9011 1.3803 1.2266 2.7839 2.3699 4.2449 3.3856 10.573 7.344 16.172 10.183 19.373 13.175 0.5755 0.6016 1.0443 1.2526 1.461 1.9037 2.7865 3.3881 4.0366 15.495 4.2736 18.074v0.0782c0.0234 0.2604 0.0494 0.4427 0.0494 0.4427 0.0261 0.4427 0.0261 0.8073 0.0261 1.0417v0.2604c-0.1823 1.6928-3.5678 6.5888-5.4429 8.8284 0 0 5.4429 3.021 13.152 3.3856 0 0-8.8284 3.3855-20.287 1.5104zm67.945-154.51c-3.2032 0.1823-12.472 0.2343-26.772 1.9532-14.297 1.6693-39.822 2.3438-39.822 2.3438 12.191 33.748 54.744 52.111 54.744 52.111 0.7552-9.7659-6.5653-27.628-6.5653-27.628s9.5862 0.5443 15.211-1.6954c5.6512-2.2657 8.8545-4.323 10.914-15.99 2.0548-11.667-4.5079-11.276-7.7112-11.094zm-9.4794-7.2659c-3.5679-0.4974-25.6-1.198-52.398-5.2346-4.8439-0.7292-10.133-1.6667-15.626-2.7344 1.6928 4.5835 3.2814 7.8909 5.258 10.961 0.0547 0 0.1589 0.0286 0.2344 0.0286 19.665 0 51.306-1.0156 59.38-1.2474 8.0472-0.2344 15.467 0.362 15.467 0.362-2.3699-1.8985-8.7477-1.6641-12.316-2.1355zm-79.9-8.72c-8.9821-57.76-25.519-79.922-25.519-79.922l1.7214 5.8596c6.9534 31.199 5.8309 45.861 11.456 83.469 5.6513 37.603 22.191 60.549 22.191 60.549-20.68-14.482-31.827-45.449-35.733-90.448-4.1668-48.048-15.443-66.07-16.144-67.138 7.1852 24.769 4.1121 52.294 5.258 70.703 1.1199 18.438 1.9272 43.494 12.266 67.192 10.339 23.699 34.353 46.564 59.559 58.049 25.183 11.459 45.288 5.8075 45.288 5.8075 13.256-12.448 14.089-25.548 14.089-25.548s-20.964-5.3388-45.236-21.329c-24.248-15.962-39.665-54.09-39.665-54.09 6.2268 42.293 33.415 71.851 33.415 71.851-20.313-11.849-35.105-34.506-42.947-85.006zm-45.52-13.982c-3.5678-1.1719-6.719-2.3178-9.219-3.3881-15.886-6.6357-45.47-22.316-45.47-22.316-0.3125-0.1797-0.6771-0.388-1.0157-0.5964-2.422 16.873-7.9169 30.702-7.9169 30.702s10.597 27.605 6.6408 44.559c-5.2085 22.292-13.748 34.142-13.748 34.142 0.9349 1.0156 1.8698 1.9532 2.8099 2.8907 5.5992-7.6044 15.053-7.8388 15.053-7.8388s5.2346-22.266 12.813-33.413c7.6044-11.144 17.787-20.626 34.139-20.626 2.3698 0 5.185 0.0495 8.2294 0.1328-1.3256-8.4925-2.0027-17.607-2.3152-24.248zm-74.484-74.43c-2.0808-3.8022-7.3414-8.6201-10-13.36-2.0548 2.2918-5.7007 5.7294-11.821 10.026-1.2761 0.8881-2.8126 1.849-4.4794 2.8907 5.5992 22.318 18.673 50.783 23.959 57.971 1.6902 2.2657 4.5574 6.7189 6.3544 9.5836 1.7188-3.2319 6.3283-11.433 7.6304-21.72 1.9272-15-3.9584-31.459-11.644-45.392zm0.3933-46.408c-4.95-15.417-17.16-29.04-17.16-29.04s-5.7033 7.9977-10.159 11.019c-0.388 0.25782-0.8307 0.52085-1.2735 0.78388 2.1095 6.0132 6.3805 17.238 11.123 25.78 6.7945 12.24 16.508 25.313 16.508 25.313s5.9377-18.438 0.9636-33.855zm-24.48-45.496s-2.159 5.8309-7.9404 8.7763c-5.758 2.9142-11.175 5.4429-12.526 11.276-1.3542 5.8335 2.2918 10.756 2.2918 10.756s3.2292-4.0887 9.3232-6.982c6.0966-2.9142 10.446-6.9768 12.709-11.769 2.2657-4.7918 0.2343-9.1904-3.8569-12.058zm-10.63-16.693s1.0651 5.4168-4.5574 9.5576c-8.1774 6.0966-11.068 8.4638-5.1044 18.675 0 0 2.8647-3.3621 7.318-6.3596 4.4532-3.0183 9.1669-9.766 9.5055-13.021 0.5209-4.9455-7.1617-8.8519-7.1617-8.8519zm-6.956-6.3023c-1.8464-2.0834-4.7918-2.3959-6.9247 0.10417-2.1094 2.5001-0.5964 10.886 2.7605 15.027 0 0 1.9272-3.4897 3.9845-6.2789 2.5783-3.4637 2.0314-6.7685 0.1797-8.8519zm13.831 70.135s-3.1225-8.5471-5.5731-16.253c-3.7761 1.9532-7.5784 4.6095-9.1149 9.7425-2.5001 8.3805 1.2501 11.586 3.3856 14.347 0 0 5.547-4.922 11.302-7.8362zm-24.22 48.723c8.3596-4.8178 17.967-9.5836 23.568-13.073 6.146-3.8022 11.146-7.5784 14.844-10.73-5.8882-10.472-11.224-19.818-11.224-19.818s-11.849 6.1747-20.157 18.152c-6.5106 9.3753-7.0861 20.912-7.0314 25.47zm-25.001 31.954c-10.521 16.407-10.417 37.918-10.417 37.918 5.2085-4.6095 18.594-12.084 30.832-18.881 10.003-5.5471 26.306-17.709 31.957-22.006-4.6877-12.602-7.917-24.272-9.141-28.803-13.935 8.3597-35.366 19.532-43.231 31.772zm86.331 67.502c-4.1929-22.266-14.842-29.871-25.678-51.226-1.8516-3.698-3.6199-7.6044-5.2606-11.539-6.745 5.3674-19.011 12.998-29.144 19.3 0.4427 8.2555 3.4142 23.777 11.904 43.077 9.5056 21.587 33.751 48.124 33.751 48.124 8.0732-8.3596 18.646-25.47 14.428-47.736zm-123.81 34.22c-0.7032 18.751 0.8073 35.574 4.323 47.606-0.5729-0.7058-1.25-1.5105-1.9011-2.2918-40.366-48.569-86.383-45.291-128.52-49.637-6.2241-0.6276-29.636-5.3648-35.808-6.6929 15.027 16.068 40.991 39.663 57.945 51.226 31.746 21.665 86.175 44.272 89.56 45.653-25.678-14.222-46.408-37.111-46.408-37.111 15.521 10.519 68.544 41.173 71.825 43.072-15.053-14.347-57.424-51.666-82.581-68.333 32.11 15.157 59.299 34.796 73.935 48.648 18.308 17.292 45.809 33.986 58.257 40.418 6.094-6.0159 14.948-11.511 22.839-14.766-21.121-14.87-35.21-23.36-41.251-43.465 0 0 15.469 19.844 37.736 32.006 4.1903 2.2657 8.7243 5.0757 13.388 8.2816 4.9976-1.1694 15.883-2.1876 21.193-2.1876l1.3021 0.5755c-0.8568-0.651-2.9922-1.8776-3.8777-2.5287-42.499-31.202-81.409-39.402-85.107-102.71 0.5469 3.5678 6.9013 42.137 38.126 62.138 18.542 11.875 51.801 27.686 74.091 50.418 17.058 7.8127 27.814 21.173 33.36 39.741 0.0495 0.1563 0.1042 0.3907 0.1302 0.573 5.5211 0.5468 11.016 1.25 16.771 1.7708-0.651-6.7189-2.1355-15.834-5.3908-25.131-3.9845-12.474-10.704-26.355-22.529-40.837-21.3-26.014-47.004-42.29-73.75-77.136-26.772-34.819-32.449-70.315-32.449-70.315-5.8101 42.137 13.568 69.351 14.636 70.81-3.2293-2.5808-16.433-18.206-21.305-37.397-4.4507-17.527-3.6981-22.501-3.409-27.478-12.188 8.5185-43.673 24.509-45.132 65.083zm-6.4065-4.3231s-8.1253-3.2032-18.021-3.2032c-9.9223 0-21.85 6.2476-21.85 6.2476l0.8073 0.0833c20.808 5.2085 39.611 27.704 39.611 27.704-2.1876-7.6044-0.5469-30.832-0.5469-30.832zm-168.84-9.23c-13.776-4.25-31.198-11.57-39.272-15.08 18.855 20.732 57.059 57.893 88.206 78.831 94.04 63.205 171.8 73.414 177.61 74.586l1.6953-1.4844c0.7761-1.224 1.6121-2.3699 2.4454-3.5157-39.39-10.76-123.29-46.28-172.36-80.64-21.17-14.84-44.272-38.25-58.335-52.7zm63.544 288.16c-10.99 28.23-11.224 53.804-11.12 59.95 0.0261 0.8854-0.026 2.5522-0.026 3.0991 0.2604 19.792 2.9168 38.126 5.1564 51.304 0.1042 0.5208 0.1823 1.0677 0.2605 1.5886l0.052-2.8126c-0.0781-13.698 0.8594-25.756 1.198-29.506 0-0.1302 0.026-0.2344 0.026-0.3646 0.0521-0.5469 0.4167 2.8126 0.6771 4.5053 0.9115 6.094 1.9532 12.162 2.5522 18.308 0.625 6.12 2.0053 13.412 2.2657 19.558 0.1042 2.3699 0.2084 4.7398 0.1302 7.0836 0.7032-0.3906 0.9636-2.6824 1.1199-3.3335 0.5208-2.5521 1.6927-22.631 2.0313-29.506 0.1562-2.7344 0.2083-5.4689 0.2344-8.2294 0.026-1.3542 0.0521-2.7084 0.2864-4.0626 0.0261-0.3646 0.1563-0.7553 0.2344-1.1459 0.1042 0 1.0678 9.0367 1.823 13.829 0.6511 4.1147 1.6667 8.2815 1.6407 12.448 0 0.3646-0.1042 0.8334-0.0521 1.1719 0.1042 0.6251 1.0157-2.0313 1.4584-6.9273 0.3125-5.5471 0.5469-11.276 1.1979-16.693l0.4948-4.297c4.4794-39.298 28.022-75.107 59.846-91.149 25.678-14.402 49.637-11.328 75.029-8.0732 4.7137 0.599 9.5576 1.224 14.506 1.7448 11.12 1.172 20.209 1.2761 28.673 0.3386 18.698-1.6928 35.991-8.0732 41.668-11.016 18.982-8.5159 33.855-27.866 36.978-48.179v-0.5469c0.8099-3.6981 1.2266-7.5263 1.2266-11.459v-0.1302c-0.1328 0.7553-0.2084 1.4584-0.3672 2.2397-0.1016-6.5888-1.4271-12.865-3.7475-18.646 1.875 5.8596 2.5 12.709 0.7812 20.704-0.0781-7.5003-1.8229-14.558-4.7918-20.938 1.7735 5.7294 2.5001 11.875 1.9246 18.204-1.1694 12.813-7.3961 23.959-16.534 31.772 7.318-7.8388 10.883-20.261 11.928-31.902 2.448-27.214-19.324-45.054-42.658-49.09-0.1823-0.0261-0.3385-0.0782-0.4974-0.1302 2.0079-0.3386 9.7946-1.4324 17.555 1.0417 3.4376 0.2604 8.0211 1.0156 12.657 3.2813 1.7188 0.8073 3.8777 2.0574 6.2241 3.6981-9.6878-8.9587-22.631-14.48-36.879-14.48-18.8 0-35.337 9.5576-45.077 24.063 13.568-1.6927 26.847-4.3751 26.847-4.3751-12.237 9.4274-32.498 15.365-32.498 15.365v-0.0782c-18.334 5.5471-44.663 10.495-68.049 17.136-47.215 13.23-79.638 41.72-96.384 84.638zm102.63 43.804c-10.521 27.787-6.9794 54.299-8.8024 69.143-0.5469 4.271-1.224 9.4795-2.0573 15.053 2.3438-7.6826 5.3908-18.672 6.1981-25.704 0 0-0.6771 19.922-3.4116 32.319 0.3907-1.1459 6.9013-19.558 8.2295-30.235 0 0 0.9115 10.677-0.1042 22.058 1.3021-4.3751 2.474-8.9846 3.3335-13.829 5.4168-30.079 14.323-51.095 50.158-73.206-6.3804-9.7659-15.782-23.074-23.1-33.413-8.8545 6.6409-23.647 19.818-30.444 37.814zm66.408-0.026c5.6513 11.98 6.4586 21.381 6.4586 21.381 52.265-2.4219 114.9-25.339 165.55-73.362 22.428-21.225 37.27-46.304 46.853-67.685-9.3492 1.5105-28.751 3.8023-50.627 3.9585-24.532 0.1563-53.934-3.1511-59.533-3.8282v0.026c-0.1041 0.8594-0.2057 1.7188-0.3385 2.5782-0.026 0.2604-0.0755 0.4948-0.1042 0.7552-0.1041 0.6772-0.2344 1.3282-0.3646 2.0053h0.0261c-3.1251 24.011-20.91 46.981-43.439 56.512-8.0992 3.7761-25.157 9.4534-42.97 11.042-9.0133 1.0417-18.672 0.9375-30.392-0.3125-5.0522-0.5209-9.9222-1.1719-14.714-1.7709-3.4897-0.4427-6.9013-0.8854-10.287-1.2761 0 0 1.7188 2.1615 2.0052 2.6303 9.0629 13.698 18.907 27.293 23.832 33.907 3.4064 4.6096 6.0393 9.193 8.0445 13.438zm-72.68-152.16c0.4166 3.8283 0.9375 7.6565 1.5365 11.433 0.2083 1.0417 0.4167 2.1095 0.651 3.1512 4.2189-1.0157 8.516-2.0053 12.813-2.9949 3.8543-0.9115 7.7346-1.823 11.563-2.7866 1.9271-0.4687 3.8282-0.9375 5.7033-1.4323 0.1823-0.0261 0.3646-0.0781 0.5469-0.1302-0.2604-0.0521-0.5209-0.0782-0.7813-0.1302-10.99-1.9272-22.397-4.6096-32.032-7.1097zm307.35-15.5c-37.606 5.0002-66.382 4.8179-127.3-1.7969-4.8439-26.459-27.996-46.538-55.861-46.538-22.321 0-41.59 12.891-50.887 31.616-13.204-2.448-24.506-4.8179-34.012-7.0315 0 0-32.449-8.3336-41.225-11.771 0 0-1.9271-2.1095-0.4948 28.23 0.0521 0.7292 0.8073 9.3232 1.3021 14.636 10.104 2.6303 22.527 5.5992 34.532 7.7347 6.5106 1.1458 12.709 2.0313 18.49 2.7344 3.4376-0.9115 6.771-1.823 9.8701-2.7344 0.3386-2.0834 16.407-37.241 60.028-36.59 28.881 0.4427 59.898 26.147 59.924 62.19v0.1042c5.758 0.625 34.972 3.672 59.195 3.4897 26.668-0.1823 48.129-3.4116 54.872-4.6617 0 0 7.6305-18.672 11.563-39.611zm12.003-4.7658c10.888 2.448 15.784 4.6877 15.784 4.6877s-2.6303-19.923-23.699-21.407c-21.042-1.5105-23.855 3.5678-39.663 5.6252 0 0 4.7137 2.8386 13.178 4.5054 0 0-14.688 2.0834-25.782-0.7292-11.068-2.8387-15.6-7.5263-15.6-7.5263s-1.3022 11.276 4.323 15.026c5.6513 3.7762 25.392 2.2657 31.952 1.5105 6.594-0.7552 28.597-4.1408 39.507-1.6928zm6.2268-58.025c2.9688-2.2865 5.9377-2.7579 7.7606-4.1147 1.823-1.3777 1.823-5.4924 0.9115-8.9066-0.9115-3.4089-3.4376-3.8777-6.172-3.2006-2.5522 0.6511-15.889 2.448-30.392-0.2083-0.7813 2.6824-2.1095 8.8024 0.7813 11.849 3.7501 3.9064 10.966 3.5679 13.829 3.021-0.6771 0.3125-6.2502 2.8126-11.201 2.8126-5.258 0-9.5811-3.5939-11.092-7.5289-1.1198-2.9402-0.1562-8.9821 0.4167-11.899-15.756-4.6356-38.335-16.954-56.851-40.73-20.079-25.782-24.608-57.968-24.608-57.968s-21.201-4.1694-32.165 12.107c-14.712 21.85-9.1696 47.473-9.1696 47.473s-8.7217-4.1147-15.6-2.3152c-2.4194 0.625-4.1408 2.2136-5.3596 4.1147 11.482 10.183 23.67 19.74 35.78 33.592 6.2476-1.3776 11.873-2.8881 14.948-3.8517 6.7711-2.0573 13.829-7.7841 15.73-13.985 1.8751-6.1981 2.8126-27.267 2.8126-27.267 3.7996 14.662 4.4012 22.032 4.7658 26.199 0.3906 4.1148-0.0521 14.584-7.969 21.824-4.2996 3.9064-16.407 7.5263-21.227 10.185 18.363 25.285 23.415 64.036 23.415 64.036-0.0261 0.3646-0.0261 0.7292-0.0261 1.0938 1.8777 0.2083 3.0965 0.3906 3.1512 0.5989 3.3855 0.1823 15.391 1.6668 18.725 1.7189 0 0-5.0236-14.818-0.6771-25.782 0 0 11.172 7.5263 27.162 6.3805 15.964-1.1459 41.535-8.9066 52.502-4.5575 0 0 4.7919-10.964 4.5575-18.959-0.2084-7.969 2.2891-13.461 5.2606-15.732zm28.05-102.76c-1.0391 6.3804-7.4456 12.084-10.649 12.79-3.2032 0.7006-11.381 2.836-11.381 2.836 6.0419 17.055 6.0419 27.735 6.0419 27.735 5.3387 2.8412 15.988 7.107 15.988 7.107-3.5392 18.857-16.352 33.441-16.352 33.441 1.0677 3.9064 3.5652 10.651 3.5652 13.152 0 2.5001-4.633 6.745-9.6071 9.9483-4.9741 3.2032-5.6773 8.8805-5.6773 15.652 0 6.7451-2.8386 15.287-3.9064 15.652-1.0677 0.3386 12.68 4.6877 16.954 16.798 4.271 12.084 4.3752 21.902 4.3752 21.902-5.6773-8.2815-27.918-11.693-27.918-11.693-1.7709 18.855-16.899 79.664-78.05 134.77-61.148 55.106-165.34 65.08-165.34 65.08 0.1562-3.073-0.2344-6.719-1.1459-10.73-0.8594-5.1825-2.3699-11.302-5.0002-16.251-0.1562-0.2865-0.3646-0.6511-0.5729-0.9896-14.376 7.7867-29.48 18.256-36.408 30.496-13.412 23.699-11.745 44.09-18.855 60.809-11.641 27.371-28.438 42.241-33.439 46.59-2.8647 2.5001-3.8283 3.3335-5.3127 2.1355-1.4584-1.1719-0.4948-2.8647 0.7031-4.6356 1.1199-1.6667 11.589-21.85 15.495-49.246 3.9064-27.371-1.276-70.575 11.537-98.311 7.969-17.266 21.146-30.938 29.975-38.803 0.3125-0.2604 0.625-0.5469 0.9115-0.8073l2.8646-2.8386c-18.282-1.7189-35.288-1.0678-53.361 9.0888-29.064 14.636-51.356 48.674-55.445 84.69l-0.4949 4.3231c-1.1458 9.8701-0.6771 19.74-1.1198 29.636-0.3906 8.9847-1.3802 17.943-2.9428 26.798-0.6771 3.9063-1.4844 7.7606-2.4219 11.615-0.0261 0.0521-0.0261 0.0782-0.0261 0.1303-0.3906 2.3438-1.0677 4.6616-1.7448 6.9533-0.4428 1.5105-0.9376 3.021-1.4324 4.5575-1.1459 3.3595-2.6303 6.5887-4.5314 9.6618-2.2917 3.698-4.8179 7.2919-7.7607 10.495-1.7448 1.9011-3.6199 3.698-5.7293 5.1825 0 0-1.9532 1.224-3.2814 0.5208 0 0-1.7448-1.224 0.1042-5.0262 0 0 0.4687-0.7552 1.0156-2.0574 0.3126-0.7291 0.6511-1.6406 0.9636-2.6823 0.2865-0.9376 0.5209-1.9532 0.7032-3.047 1.4583-7.8128 2.5-24.636-3.672-56.747l-0.0521-0.1042c-0.5469-4.6616-1.1459-9.3232-1.9532-13.959-2.5522-15.027-5.0262-32.084-5.4429-49.793 0-0.7813 0.1042-3.073 0.0781-3.5418-0.1823-15.756 2.8387-119.04 109.64-151.57-0.4948-2.2136-0.9636-4.3491-1.3022-6.4065-7.2137-45.548-4.5574-64.742-4.5574-64.742s0.026-0.1823 0.0521-0.4687c-21.85-8.2295-46.564-19.324-72.607-34.22-29.142-15.964-60.757-37.684-91.696-67.32-5.8075-5.5991-11.25-11.094-16.407-16.563-1.25-1.3022-2.5001-2.6303-3.7501-3.9611-0.05209-0.1016-0.15626-0.1797-0.23439-0.2578-16.329-17.579-28.647-33.777-37.579-46.955 48.257 34.842 123.65 45.288 146.7 46.645 24.168 1.4037 48.648 5.5418 48.648 5.5418s9.5576-5.1017 20.964-7.6018c12.943-2.8647 26.485 1.25 26.485 1.25 4.87-25.053 22.475-41.147 27.084-44.764-1.198-7.5289 0.026-32.374 8.4898-46.176 9.1149-14.87 24.168-24.897 24.168-24.897s-1.0417-13.464 2.5001-23.1c3.5418-9.6357 11.771-18.412 11.771-18.412s-3.7501-6.3023-4.2449-14.219c-0.4948-7.9169 4.2449-12.316 4.2449-12.316s-4.297-5.5236-5.0262-9.8206c-0.7057-4.3231 1.9532-10.805 1.9532-10.805s-2.6042-4.7424-3.3595-8.3883c-0.7812-3.672 1.4063-8.18 1.4063-8.18-1.7448-3.409-6.9247-19.425 0.7032-25.858 7.6044-6.4325 17.084 5.5731 17.084 5.5731 2.9168 0.8594 8.4091 4.4793 11.013 8.542 3.2058 4.9741 3.2058 9.6097 3.2058 9.6097s4.0887 2.6589 7.6279 9.4274c2.922 5.495 2.5027 9.1149 2.5027 9.1149s16.537 17.37 19.975 39.064c2.9402 18.49-1.4089 35.551-1.4089 35.551s12.425 18.904 11.852 40.52c8.4638 5.9142 28.881 19.167 54.299 29.061 0.7292-14.581 3.0209-27.212-1.5365-50.65-5.7033-29.168-31.668-50.499-31.668-50.499 36.275 3.9063 60.471 35.915 70.054 59.038 7.8388 18.857 14.974 45.525 18.282 57.609 35.389 6.8752 67.711 8.6982 78.44 10.31 14.219 2.1381 17.787 5.3153 18.126 10.651 0.3646 5.3413-1.0678 14.951-2.1381 21.358zm-62.005 134.61s-8.8284 3.3855-20.287 1.5104c-11.485-1.875-15.99-4.1407-23.699-5.0783 0 0-0.0495-0.0781-0.0781-0.1302 6.4325-2.1094 16.956-1.9532 23.204-3.047 3.0183-0.5468 6.1226-2.2396 8.594-3.8803l-3.2292-14.428c-7.1878-3.8282-18.829-11.123-27.738-22.191-0.6771-0.8308-1.3281-1.7449-1.9245-2.7059-0.2865-0.3906-0.5469-0.8073-0.7813-1.25-0.3411-0.5469-0.6511-1.0938-0.9375-1.6407-0.3646-0.651-0.7058-1.3281-1.0417-2.0313-0.3386-0.6771-0.6511-1.3542-0.9376-2.0313-1.276-2.8621-2.2917-5.7294-3.0469-8.1539-0.1042-0.2839-0.1823-0.5678-0.2605-0.8308-0.5729-1.8985-0.987-3.4637-1.25-4.5314-0.0521-0.1563-0.0781-0.2865-0.1042-0.4141-0.026-0.1067-0.0521-0.2083-0.0781-0.3151-0.0547-0.2083-0.0807-0.3906-0.1042-0.4948-0.026-0.0495-0.026-0.1042-0.026-0.1328 0.1562 0.263 0.9636 1.7214 2.3204 3.8308 0.3099 0.4688 0.6224 0.9636 0.9844 1.5105 2.6042 3.9064 6.5653 9.3232 11.279 13.959 0.6511 0.6511 1.3256 1.3021 2.0053 1.9011 1.3803 1.2266 2.7839 2.3699 4.2449 3.3856 10.573 7.344 16.172 10.183 19.373 13.175 0.5755 0.6016 1.0443 1.2526 1.461 1.9037 2.7865 3.3881 4.0366 15.495 4.2736 18.074v0.0782c0.0234 0.2604 0.0494 0.4427 0.0494 0.4427 0.0261 0.4427 0.0261 0.8073 0.0261 1.0417v0.2604c-0.1823 1.6928-3.5678 6.5888-5.4429 8.8284 0 0 5.4429 3.021 13.152 3.3856zs-8.8284 3.3855-20.287 1.5104c-11.485-1.875-15.99-4.1407-23.699-5.0783 0 0-0.0495-0.0781-0.0781-0.1302 6.4325-2.1094 16.956-1.9532 23.204-3.047 3.0183-0.5468 6.1226-2.2396 8.594-3.8803l-3.2292-14.428c-7.1878-3.8282-18.829-11.123-27.738-22.191-0.6771-0.8308-1.3281-1.7449-1.9245-2.7059-0.2865-0.3906-0.5469-0.8073-0.7813-1.25-0.3411-0.5469-0.6511-1.0938-0.9375-1.6407-0.3646-0.651-0.7058-1.3281-1.0417-2.0313-0.3386-0.6771-0.6511-1.3542-0.9376-2.0313-1.276-2.8621-2.2917-5.7294-3.0469-8.1539-0.1042-0.2839-0.1823-0.5678-0.2605-0.8308-0.5729-1.8985-0.987-3.4637-1.25-4.5314-0.0521-0.1563-0.0781-0.2865-0.1042-0.4141-0.026-0.1067-0.0521-0.2083-0.0781-0.3151-0.0547-0.2083-0.0807-0.3906-0.1042-0.4948-0.026-0.0495-0.026-0.1042-0.026-0.1328 0.1562 0.263 0.9636 1.7214 2.3204 3.8308 0.3099 0.4688 0.6224 0.9636 0.9844 1.5105 2.6042 3.9064 6.5653 9.3232 11.279 13.959 0.6511 0.6511 1.3256 1.3021 2.0053 1.9011 1.3803 1.2266 2.7839 2.3699 4.2449 3.3856 10.573 7.344 16.172 10.183 19.373 13.175 0.5755 0.6016 1.0443 1.2526 1.461 1.9037 2.7865 3.3881 4.0366 15.495 4.2736 18.074v0.0782c0.0234 0.2604 0.0494 0.4427 0.0494 0.4427 0.0261 0.4427 0.0261 0.8073 0.0261 1.0417v0.2604c-0.1823 1.6928-3.5678 6.5888-5.4429 8.8284 0 0 5.4429 3.021 13.152 3.3856zs-8.8284 3.3855-20.287 1.5104c-11.485-1.875-15.99-4.1407-23.699-5.0783 0 0-0.0495-0.0781-0.0781-0.1302 6.4325-2.1094 16.956-1.9532 23.204-3.047 3.0183-0.5468 6.1226-2.2396 8.594-3.8803l-3.2292-14.428c-7.1878-3.8282-18.829-11.123-27.738-22.191-0.6771-0.8308-1.3281-1.7449-1.9245-2.7059-0.2865-0.3906-0.5469-0.8073-0.7813-1.25-0.3411-0.5469-0.6511-1.0938-0.9375-1.6407-0.3646-0.651-0.7058-1.3281-1.0417-2.0313-0.3386-0.6771-0.6511-1.3542-0.9376-2.0313-1.276-2.8621-2.2917-5.7294-3.0469-8.1539-0.1042-0.2839-0.1823-0.5678-0.2605-0.8308-0.5729-1.8985-0.987-3.4637-1.25-4.5314-0.0521-0.1563-0.0781-0.2865-0.1042-0.4141-0.026-0.1067-0.0521-0.2083-0.0781-0.3151-0.0547-0.2083-0.0807-0.3906-0.1042-0.4948-0.026-0.0495-0.026-0.1042-0.026-0.1328 0.1562 0.263 0.9636 1.7214 2.3204 3.8308 0.3099 0.4688 0.6224 0.9636 0.9844 1.5105 2.6042 3.9064 6.5653 9.3232 11.279 13.959 0.6511 0.6511 1.3256 1.3021 2.0053 1.9011 1.3803 1.2266 2.7839 2.3699 4.2449 3.3856 10.573 7.344 16.172 10.183 19.373 13.175 0.5755 0.6016 1.0443 1.2526 1.461 1.9037 2.7865 3.3881 4.0366 15.495 4.2736 18.074v0.0782c0.0234 0.2604 0.0494 0.4427 0.0494 0.4427 0.0261 0.4427 0.0261 0.8073 0.0261 1.0417v0.2604c-0.1823 1.6928-3.5678 6.5888-5.4429 8.8284 0 0 5.4429 3.021 13.152 3.3856zs-8.8284 3.3855-20.287 1.5104c-11.485-1.875-15.99-4.1407-23.699-5.0783 0 0-0.0495-0.0781-0.0781-0.1302 6.4325-2.1094 16.956-1.9532 23.204-3.047 3.0183-0.5468 6.1226-2.2396 8.594-3.8803l-3.2292-14.428c-7.1878-3.8282-18.829-11.123-27.738-22.191-0.6771-0.8308-1.3281-1.7449-1.9245-2.7059-0.2865-0.3906-0.5469-0.8073-0.7813-1.25-0.3411-0.5469-0.6511-1.0938-0.9375-1.6407-0.3646-0.651-0.7058-1.3281-1.0417-2.0313-0.3386-0.6771-0.6511-1.3542-0.9376-2.0313-1.276-2.8621-2.2917-5.7294-3.0469-8.1539-0.1042-0.2839-0.1823-0.5678-0.2605-0.8308-0.5729-1.8985-0.987-3.4637-1.25-4.5314-0.0521-0.1563-0.0781-0.2865-0.1042-0.4141-0.026-0.1067-0.0521-0.2083-0.0781-0.3151-0.0547-0.2083-0.0807-0.3906-0.1042-0.4948-0.026-0.0495-0.026-0.1042-0.026-0.1328 0.1562 0.263 0.9636 1.7214 2.3204 3.8308 0.3099 0.4688 0.6224 0.9636 0.9844 1.5105 2.6042 3.9064 6.5653 9.3232 11.279 13.959 0.6511 0.6511 1.3256 1.3021 2.0053 1.9011 1.3803 1.2266 2.7839 2.3699 4.2449 3.3856 10.573 7.344 16.172 10.183 19.373 13.175 0.5755 0.6016 1.0443 1.2526 1.461 1.9037 2.7865 3.3881 4.0366 15.495 4.2736 18.074v0.0782c0.0234 0.2604 0.0494 0.4427 0.0494 0.4427 0.0261 0.4427 0.0261 0.8073 0.0261 1.0417v0.2604c-0.1823 1.6928-3.5678 6.5888-5.4429 8.8284 0 0 5.4429 3.021 13.152 3.3856zs-8.8284 3.3855-20.287 1.5104c-11.485-1.875-15.99-4.1407-23.699-5.0783 0 0-0.0495-0.0781-0.0781-0.1302 6.4325-2.1094 16.956-1.9532 23.204-3.047 3.0183-0.5468 6.1226-2.2396 8.594-3.8803l-3.2292-14.428c-7.1878-3.8282-18.829-11.123-27.738-22.191-0.6771-0.8308-1.3281-1.7449-1.9245-2.7059-0.2865-0.3906-0.5469-0.8073-0.7813-1.25-0.3411-0.5469-0.6511-1.0938-0.9375-1.6407-0.3646-0.651-0.7058-1.3281-1.0417-2.0313-0.3386-0.6771-0.6511-1.3542-0.9376-2.0313-1.276-2.8621-2.2917-5.7294-3.0469-8.1539-0.1042-0.2839-0.1823-0.5678-0.2605-0.8308-0.5729-1.8985-0.987-3.4637-1.25-4.5314-0.0521-0.1563-0.0781-0.2865-0.1042-0.4141-0.026-0.1067-0.0521-0.2083-0.0781-0.3151-0.0547-0.2083-0.0807-0.3906-0.1042-0.4948-0.026-0.0495-0.026-0.1042-0.026-0.1328 0.1562 0.263 0.9636 1.7214 2.3204 3.8308 0.3099 0.4688 0.6224 0.9636 0.9844 1.5105 2.6042 3.9064 6.5653 9.3232 11.279 13.959 0.6511 0.6511 1.3256 1.3021 2.0053 1.9011 1.3803 1.2266 2.7839 2.3699 4.2449 3.3856 10.573 7.344 16.172 10.183 19.373 13.175 0.5755 0.6016 1.0443 1.2526 1.461 1.9037 2.7865 3.3881 4.0366 15.495 4.2736 18.074v0.0782c0.0234 0.2604 0.0494 0.4427 0.0494 0.4427 0.0261 0.4427 0.0261 0.8073 0.0261 1.0417v0.2604c-0.1823 1.6928-3.5678 6.5888-5.4429 8.8284 0 0 5.4429 3.021 13.152 3.3856zs-8.8284 3.3855-20.287 1.5104c-11.485-1.875-15.99-4.1407-23.699-5.0783 0 0-0.0495-0.0781-0.0781-0.1302 6.4325-2.1094 16.956-1.9532 23.204-3.047 3.0183-0.5468 6.1226-2.2396 8.594-3.8803l-3.2292-14.428c-7.1878-3.8282-18.829-11.123-27.738-22.191-0.6771-0.8308-1.3281-1.7449-1.9245-2.7059-0.2865-0.3906-0.5469-0.8073-0.7813-1.25-0.3411-0.5469-0.6511-1.0938-0.9375-1.6407-0.3646-0.651-0.7058-1.3281-1.0417-2.0313-0.3386-0.6771-0.6511-1.3542-0.9376-2.0313-1.276-2.8621-2.2917-5.7294-3.0469-8.1539-0.1042-0.2839-0.1823-0.5678-0.2605-0.8308-0.5729-1.8985-0.987-3.4637-1.25-4.5314-0.0521-0.1563-0.0781-0.2865-0.1042-0.4141-0.026-0.1067-0.0521-0.2083-0.0781-0.3151-0.0547-0.2083-0.0807-0.3906-0.1042-0.4948-0.026-0.0495-0.026-0.1042-0.026-0.1328 0.1562 0.263 0.9636 1.7214 2.3204 3.8308 0.3099 0.4688 0.6224 0.9636 0.9844 1.5105 2.6042 3.9064 6.5653 9.3232 11.279 13.959 0.6511 0.6511 1.3256 1.3021 2.0053 1.9011 1.3803 1.2266 2.7839 2.3699 4.2449 3.3856 10.573 7.344 16.172 10.183 19.373 13.175 0.5755 0.6016 1.0443 1.2526 1.461 1.9037 2.7865 3.3881 4.0366 15.495 4.2736 18.074v0.0782c0.0234 0.2604 0.0494 0.4427 0.0494 0.4427 0.0261 0.4427 0.0261 0.8073 0.0261 1.0417v0.2604c-0.1823 1.6928-3.5678 6.5888-5.4429 8.8284 0 0 5.4429 3.021 13.152 3.3856"/><path d="m600.42 253.96c-0.3386-5.3361-3.9064-8.5133-18.126-10.651-10.73-1.612-43.051-3.435-78.44-10.31-3.3074-12.084-10.443-38.751-18.282-57.609-9.5836-23.123-33.78-55.132-70.054-59.038 0 0 25.964 21.331 31.668 50.499 4.5574 23.438 2.2657 36.069 1.5365 50.65-25.418-9.8935-45.835-23.147-54.299-29.061 0.5729-21.615-11.852-40.52-11.852-40.52s4.3491-17.06 1.4089-35.551c-3.4376-21.693-19.975-39.064-19.975-39.064s0.4193-3.6199-2.5027-9.1149c-3.5392-6.7685-7.6279-9.4274-7.6279-9.4274s0-4.6356-3.2058-9.6097c-2.6043-4.0626-8.0966-7.6826-11.013-8.542 0 0-9.4795-12.006-17.084-5.5731-7.6279 6.4325-2.448 22.449-0.7032 25.858 0 0-2.1875 4.508-1.4063 8.18 0.7553 3.646 3.3595 8.3883 3.3595 8.3883s-2.6589 6.482-1.9532 10.805c0.7292 4.297 5.0262 9.8206 5.0262 9.8206s-4.7397 4.3986-4.2449 12.316c0.4948 7.9169 4.2449 14.219 4.2449 14.219s-8.2294 8.7764-11.771 18.412c-3.5418 9.6358-2.5001 23.1-2.5001 23.1s-15.053 10.026-24.168 24.897c-8.4638 13.802-9.6878 38.647-8.4898 46.176-4.6096 3.6173-22.214 19.712-27.084 44.764 0 0-13.542-4.1147-26.485-1.25-11.407 2.5001-20.964 7.6018-20.964 7.6018s-24.48-4.1381-48.648-5.5418c-23.048-1.3568-98.441-11.802-146.7-46.645 8.9326 13.178 21.251 29.376 37.579 46.955 0.07813 0.0781 0.1823 0.1562 0.23439 0.2578 1.25 1.3308 2.5001 2.6589 3.7501 3.9611 5.1564 5.4689 10.599 10.964 16.407 16.563 30.939 29.636 62.554 51.356 91.696 67.32 26.043 14.896 50.757 25.99 72.607 34.22-0.0261 0.2864-0.0521 0.4687-0.0521 0.4687s-2.6563 19.193 4.5574 64.742c0.3386 2.0574 0.8074 4.1929 1.3022 6.4065-106.8 32.527-109.82 135.81-109.64 151.57 0.0261 0.4688-0.0781 2.7605-0.0781 3.5418 0.4167 17.709 2.8907 34.767 5.4429 49.793 0.8073 4.6356 1.4063 9.2972 1.9532 13.959l0.0521 0.1042c6.172 32.11 5.1303 48.934 3.672 56.747-0.1823 1.0938-0.4167 2.1094-0.7032 3.047-0.3125 1.0417-0.651 1.9532-0.9636 2.6823-0.5469 1.3022-1.0156 2.0574-1.0156 2.0574-1.849 3.8022-0.1042 5.0262-0.1042 5.0262 1.3282 0.7032 3.2814-0.5208 3.2814-0.5208 2.1094-1.4845 3.9845-3.2814 5.7293-5.1825 2.9428-3.2032 5.469-6.7971 7.7607-10.495 1.9011-3.0731 3.3855-6.3023 4.5314-9.6618 0.4948-1.5365 0.9896-3.047 1.4324-4.5575 0.6771-2.2917 1.3542-4.6095 1.7448-6.9533 0-0.0521 0-0.0782 0.0261-0.1303 0.9375-3.8543 1.7448-7.7086 2.4219-11.615 1.5626-8.8545 2.5522-17.813 2.9428-26.798 0.4427-9.8962-0.026-19.766 1.1198-29.636l0.4949-4.3231c4.0886-36.017 26.381-70.054 55.445-84.69 18.074-10.157 35.079-10.808 53.361-9.0888l-2.8646 2.8386c-0.2865 0.2604-0.599 0.5469-0.9115 0.8073-8.8285 7.8649-22.006 21.537-29.975 38.803-12.813 27.735-7.6305 70.94-11.537 98.311-3.9063 27.397-14.375 47.58-15.495 49.246-1.1979 1.7709-2.1615 3.4637-0.7031 4.6356 1.4844 1.198 2.448 0.3646 5.3127-2.1355 5.0001-4.3491 21.798-19.219 33.439-46.59 7.1096-16.719 5.4429-37.111 18.855-60.809 6.9273-12.24 22.032-22.709 36.408-30.496 0.2083 0.3385 0.4167 0.7031 0.5729 0.9896 2.6303 4.9481 4.1408 11.068 5.0002 16.251 0.9115 4.0105 1.3021 7.6565 1.1459 10.73 0 0 104.2-9.9743 165.34-65.08 61.151-55.106 76.279-115.92 78.05-134.77 0 0 22.24 3.4116 27.918 11.693 0 0-0.1042-9.818-4.3752-21.902-4.2735-12.11-18.021-16.459-16.954-16.798 1.0678-0.3646 3.9064-8.9065 3.9064-15.652 0-6.771 0.7032-12.448 5.6773-15.652 4.9741-3.2033 9.6071-7.4482 9.6071-9.9483s-2.4975-9.2451-3.5652-13.152c0 0 12.813-14.584 16.352-33.441 0 0-10.649-4.2658-15.988-7.107 0 0 0-10.68-6.0419-27.735 0 0 8.1774-2.1354 11.381-2.836 3.2032-0.7057 9.6097-6.4091 10.649-12.79 1.0703-6.4065 2.5027-16.016 2.1381-21.358zm6.8231 22.608c-1.6406 9.9222-10.625 18.594-17.633 20.157-0.4922 0.1042-1.1432 0.2344-1.8464 0.4141 1.823 6.5653 2.7058 11.802 3.1485 15.472 4.0392 1.8491 8.7556 3.7762 10.784 4.5861l6.9012 2.784-1.3802 7.2919c-2.8413 15.053-10.73 27.501-15.238 33.647 1.6198 5.1304 2.5808 8.4638 2.5808 11.3 0 5.7841-4.6356 11.696-13.75 17.555-0.7291 0.4662-1.5625 1.797-1.5625 8.0732 0 0.1042-0.1042 5.9898-1.6407 11.98 4.9481 3.3595 11.144 8.8805 14.193 17.474 3.047 8.6462 4.1929 16.303 4.6356 20.756 0.2344 2.4219-0.1068 8.2294-0.1068 8.2294l-0.9349 11.198s-5.6252-4.4793-8.7477-6.8752c-0.836-0.625-1.461-1.0938-1.8022-1.3022-0.4427-0.3385-0.9349-0.651-1.4037-0.9375-2.2943-1.3802-4.8439-2.474-5.9377-3.047-2.4506-1.3281-6.172-2.7344-10.263-3.8803-5.883 30.444-27.446 83.701-79.584 130.68-62.71 56.512-166.28 66.982-170.66 67.424l-9.7139 0.9115s-0.2083-14.558-1.1224-18.699l-0.1016-0.4687c-0.3385-2.0053-0.7292-3.9064-1.2006-5.6773-11.795 7.37-20.024 14.844-24.009 21.902-7.37 13.021-9.7659 24.975-12.058 36.512-1.6146 8.1774-3.1772 15.938-6.3544 23.438-8.3857 19.688-20.443 36.486-35.834 49.898-2.7866 2.3959-5.6252 4.896-10 4.896-1.7448 0-4.3491-0.4428-6.9794-2.5522-1.875-1.5365-7.5002-7.2138-1.224-16.511 0.1042-0.1562 10.339-18.881 14.167-45.705 1.2761-8.8284 1.5365-19.714 1.823-31.225 0.5729-23.308 1.25-49.689 10.469-69.69 4.0626-8.7763 9.2972-16.667 14.766-23.516 0.5469-0.6771 2.6303-2.8647 2.9949-3.3074 0.9375-1.0938 1.9011-2.1876 2.8386-3.2293-10.078 0.8594-18.725 3.5158-27.319 8.3337l-0.3646 0.2083c-26.459 13.334-46.772 44.533-50.523 77.659l-0.4948 4.3231c-0.7031 5.8595-0.7552 11.797-0.8333 18.074-0.0261 3.5678-0.0782 7.2398-0.2344 10.938-0.4167 9.2711-1.4324 18.672-3.073 27.944-0.6771 3.9064-1.5105 7.8388-2.422 11.693l-0.0781 0.2865c-0.4948 2.8386-1.2761 5.521-1.9272 7.6825-0.4687 1.6407-0.9896 3.2554-1.5365 4.87-1.3542 4.0626-3.1511 7.943-5.3908 11.563-2.9688 4.8179-5.7814 8.594-8.8284 11.901-2.3959 2.6043-4.7398 4.7137-7.1357 6.4065l-0.3646 0.2344c-1.0156 0.6771-3.7761 2.1876-7.2138 2.1876-1.8229 0-3.5678-0.4167-5.1564-1.2501l-1.0156-0.625c-3.9846-2.8126-6.3805-8.9847-2.7866-16.381l0.3386-0.625c0.0781-0.1302 0.2604-0.4948 0.4948-1.0156 0.2083-0.4949 0.4166-1.0938 0.625-1.7449 0.1823-0.5729 0.3125-1.224 0.4688-2.1094 1.1979-6.4326 2.3177-21.772-3.5158-52.554l-0.3125-1.5886c-0.6511-5.4689-1.224-9.6097-1.8751-13.464-2.5001-14.74-5.1303-32.319-5.5731-51.122 0-0.573 0.0261-1.7709 0.0521-2.7606l0.0261-0.8854c-0.1303-12.448 1.7708-120.34 108.26-157.77l0.0782-0.026-0.3386-0.1302c-4.8439-31.017-5.1824-50.132-4.8699-59.455-23.1-9.0628-45.835-19.949-67.528-32.371-33.96-18.594-65.471-41.746-93.675-68.778-5.7033-5.4923-11.172-10.992-16.693-16.824-1.3021-1.3542-2.5782-2.7084-3.698-3.935l-0.36459-0.388c-13.968-15.03-26.573-30.7-37.485-46.59-0.3383-0.49-1.328-2.08-1.7186-3.02-1.25-2.86-2.5782-8.36 0.026-11.25 1.5626-1.74 4.6356-3.23 10.444-0.75 0.28647 0.0781 1.4063 0.5209 1.823 0.7552 1.1198 0.6251 2.7866 1.6668 3.3334 2.086 35.262 26.978 116.25 41.876 139.9 43.254 19.818 1.1719 39.48 4.0653 46.772 5.2085 3.9584-1.8776 11.693-5.133 20.417-7.0575 3.6981-0.8073 7.6826-1.224 11.875-1.224 3.646 0 7.0576 0.3099 9.9743 0.7292 6.0419-19.089 18.074-32.189 24.324-38.048-0.3907-11.511 1.5625-33.103 10.183-47.111 7.0315-11.485 17.084-20.261 22.683-24.639 0-5.4924 0.4687-14.323 3.2292-21.795 2.448-6.693 6.5888-12.761 9.6618-16.743-1.1979-3.2058-2.3959-7.4534-2.6824-12.217-0.3385-5.3621 0.9115-9.6878 2.4741-12.917-1.3542-2.448-2.6303-5.3908-3.1251-8.3336-0.6771-4.0366 0.1562-8.4378 1.0938-11.664-0.9376-2.06-1.9272-4.6903-2.4767-7.1904-0.7266-3.5939-0.1276-7.1878 0.625-9.8701-2.7839-8.0992-5.8335-24.22 4.508-32.946 3.1251-2.6277 6.8779-4.008 10.834-4.008 7.943 0 14.399 5.6512 17.501 8.9326 4.6095 2.1615 10.128 6.3804 13.258 11.227 2.3672 3.672 3.5131 7.2112 4.0861 9.891 2.0834 2.086 4.7371 5.2632 7.133 9.8206 2.0339 3.8517 2.9454 7.1617 3.3361 9.6618 4.5053 5.3908 14.48 18.62 18.8 35.105l1.0182 4.5575c0.1042 0.5442 0.2084 1.1198 0.2839 1.7188 2.3699 14.951 0.4453 28.907-0.7787 35.418 3.5158 6.3023 10.417 20.652 11.25 37.293 7.6305 5.0783 20.938 13.282 37.189 20.652 0.625-9.9482 0.8099-20.183-2.2136-35.704-3.7241-18.959-17.553-34.637-24.506-41.512-2.4193-2.3698-8.3857-9.1409-8.3857-9.1409s-2.2891-1.9271-1.8464-5.8596c0.0234-0.2344 0.2083-0.9115 0.388-1.4063 0.0782-0.1797 0.4948-0.7812 0.6771-0.9375 3.3074-3.2032 12.396-2.0313 12.396-2.0313 39.142 4.1928 65.651 37.085 76.93 64.247 7.0315 16.928 13.386 39.506 17.159 53.283 22.686 4.1147 43.676 6.1721 57.921 7.5758 6.3544 0.6276 11.381 1.1224 14.688 1.6433 8.6722 1.2761 24.818 3.698 25.834 19.011 0.3385 4.8699-0.3906 12.316-2.2397 23.438" fill="#fff"/></g></g></svg>
