<?xml version="1.0" encoding="UTF-8" standalone="no"?>
<svg xmlns:rdf="http://www.w3.org/1999/02/22-rdf-syntax-ns#" xmlns="http://www.w3.org/2000/svg" xml:space="preserve" height="201.68" viewBox="0 0 189.84514 201.68324" width="189.85" version="1.1" xmlns:cc="http://creativecommons.org/ns#" xmlns:dc="http://purl.org/dc/elements/1.1/"><g transform="matrix(1.25 0 0 -1.25 -284.77 594.21)"><g style=""><path d="m306.03 370.49c0.072-0.0396-0.009-0.1134 0.0252-0.1386 0.0378-0.0288 0.0972-0.0234 0.1422 0.0126-0.0684 0.0126-0.004 0.0612-0.0234 0.09-0.0396 0.063-0.099 0.0162-0.144 0.036"/><path d="m303.91 475.37c-20.619-18.688-47.542-18.128-75.191-14.65-5.9634-67.736 17.237-134.59 74.752-146.7 58.066 11.641 80.996 78.367 75.397 146.13-25.736-2.5938-52.411-3.6468-74.957 15.215" fill="#fff"/><path d="m303.82 468.76c-17.188-13.979-44.296-17.447-70.184-13.664-3.861-61.769 16.286-122.12 69.66-136.05 53.447 13.637 74.156 73.726 70.632 135.51-26.411-2.9736-52.997 0.1296-70.108 14.2"/><g fill="#fff"><path d="m324.37 362.3c-0.6246-1.899-1.602-3.7818-2.1744-4.6296 0 0 0.801-1.449 1.08-2.8692 4.149-3.195 8.7282-6.1938 20.381-3.3534-2.0754 0.6372-15.089 7.119-18.437 10.28l-0.8496 0.5724"/><path d="m281.44 360.51s1.9458-3.087 2.6298-3.4776c0 0 0.8388-0.7452 0.5256-3.3642-4.6836-3.5046-16.13-4.9248-21.935-2.6442 0 0 14.004 5.5206 17.878 9.0072l0.9018 0.4788"/><path d="m317.73 361.62c-0.2718-0.2916-0.5058-0.5976-0.801-0.8712-0.1044-0.099-0.1926-0.2736-0.3276-0.3762-0.3258-0.2466-0.6156-0.4752-0.9666-0.7002-0.36-0.2286-0.6138-0.8496-0.3078-1.125 0.261-0.234 0.7668-0.4878 1.0944 0.007 0.1782 0.2664 0.558 0.3204 0.7704 0.5094 0.603 0.5382 1.0386 1.2564 1.1952 2.0862 0.0558 0.2916-0.1908 0.4284-0.3852 0.6318 0.0486-0.2322-0.261-0.162-0.2808-0.3366 0.004 0.0594 0.007 0.1152 0.009 0.1746"/><path d="m288.03 360.77c0.333-0.9288 1.1142-1.3266 1.3482-1.6992 0.369-0.594 0.54-1.2204 0.9-1.7856-0.6102-0.3474-1.0782-1.332-1.6776-1.0332-0.3024 0.1476-0.3942 0.7938-0.5742 1.2474-0.459 1.1502 0.1818 2.1006 0.004 3.2706 0.0288 0-0.0288 0.004 0 0"/></g><path d="m299.19 426.5c-7.02 0-14.272-1.755-16.454-8.4672 0 0-3.6954-13.514-3.4578-15.633-1.962-0.5976-5.9292-2.5002-4.7376-13.282 0 0 4.2534-19.375 6.1614-23.164l1.2276-0.0684s1.116 1.1718 0.9126-2.682c0 0-0.6462-2.25 1.3932-3.5892 0 0 0.792 3.249 1.3194-1.6488 0.1008-4.7502 1.5948-9.7488 8.541-14.681 0 0 3.2742 2.1114 3.6324 2.268 0 0-4.8222 1.8342-7.3116 4.6008 0 0 0.7002-3.375-2.0844 0.4608 0 0-1.3374 1.3014-2.1042 10.127 0.0648 1.2258-0.1026 1.4112-1.089 2.6928-3.8322 7.8066-6.8724 25.816 0.3222 32.483 7.5798 0.4824 25.673 0.8856 32.461-0.351 2.7774-0.6714 4.1418-1.5642 4.77-6.3432 1.3518-6.0426 0.4518-18.122-2.691-27.796 0 0-0.4608-2.0844-1.5678-3.0816-0.9054-0.4788-4.1868-2.7666-5.7726-6.1974-0.5904-1.1988-1.8828-2.3598-4.0392-3.3012-2.1762-1.2906-10.192-3.33-7.0362-6.8346 0 0-0.9108-0.4122-2.5164-0.855 0 0 0.4266-1.9548 1.3212-1.6506 0 0 1.6128 0.6174 2.1942 1.6416 4.7142-0.5994 10.744 0.4914 14.432 3.8088 1.458 0.9774 4.1634 2.2572 4.4784 4.7952 0 0 1.5606 2.9052-0.9954 7.7814 0.9684 1.7082 2.5452 4.9644 2.3238 7.4358 0.0918 0.1368 8.2512 9.4842 9.2394 22.342 0 0-1.143 7.5726-0.8208 0.351 0 0-0.099-1.2618-0.819-4.914 0 0-1.5246-5.6034-0.7002-0.234 0 0 0.3042 8.5338-0.702 16.144 0 0-0.2538 2.835 1.287-1.2852 0.207-0.7596-0.234 0.9342-0.234 0.9342s0.7416-5.202 0.936-1.5228c-0.936 4.329-1.1718 5.3838-2.4588 5.85-0.7992 6.3648-3.1572 12.519-3.1572 12.519l-0.585-0.702c2.16-6.0084 3.5676-25.974 3.042-31.703 0 0-1.3842-11.293-2.574-10.53 0 0 1.9152 19.055 1.0566 26.129-0.4068 8.982-1.6974 11.158-2.2158 14.701 0 0-2.8458 7.4124 0.1062 3.3912l0.351 0.234c-2.5182 6.453-6.3162 9.594-17.78 9.828l1.566-28.039-10.312-0.0342 1.1412 28.073" fill="#a5acaf"/><path d="m286.14 389.9c-0.0522 0.004 2.2986 0.3906 2.2644 0.3906 2.538-0.0108 8.514 0.0288 9.8064-0.4806 0.6624-0.261 1.8252 0.3474 2.4012 0.576 2.1546 0.8532 2.4246 1.0386 4.6944 2.3904 0.3708 0.2214 3.0456 1.8324 2.5596 1.8846-6.2028 0.6786-18.853 0.6012-21.352-0.144 0 0-1.053-0.1764-1.35-0.5076-1.1808-1.3176-0.9324-1.4238-1.7532-3.2454 0.5346 1.1862-0.2808-1.4994-0.3528-1.7388-0.2124-0.693 0.972-0.657 1.2114-0.3276 0.4356 0.603 0.5202 1.2942 1.8702 1.2024" fill="#fff"/><path d="m320.75 370.7c-0.2826-1.3338-0.4518-2.7162-0.9108-3.9942-0.4284-1.1772-0.6336-1.9854-2.1042-3.2256-0.3042 2.5614-1.0296 3.8304-0.891 4.7916-0.9864-0.387-0.8532-1.8576-0.9594-3.2022-0.1674-2.142 0.414-3.7152 0.279-3.0888 0.0648-0.297-0.747-0.8892-1.0386-1.3518-0.9162-1.4526-1.9314-2.8062-3.177-3.9798-0.1872-0.1764-0.2322-0.531-0.4284-0.6156-0.6858-0.2952-0.8658-0.7416-1.269-1.2096-0.3276-0.3834-1.2006-0.6858-1.6524-0.9324-0.2844-0.1584-1.1466-0.3888-1.3806-0.4392-0.522-0.1044-0.9972-0.0882-1.7838-0.045-0.7614 0.0378-1.8 0.9756-2.619 1.1736-2.3868 0.5832-2.943-1.575-6.6528-0.7758-1.5282 0.3276-1.836 1.3518-2.7936 2.4318-0.1854 0.2106-1.098 1.3194-1.2402 1.4724 0.387-0.414-2.5434 2.3418-3.105 4.4658-0.6246 2.376-0.3042 2.5668-0.0216 4.5702 0.1044 0.7524-0.0378 2.6406-0.7344 2.763-0.6498-0.6678-0.18-1.125-0.3744-2.088-0.1854-0.9396 0.6804-0.9774 0.0144-3.0762-0.189-0.6012-0.5166-0.4536-0.7038-0.0504-0.6948 1.4922-0.3366 4.7268-1.9062 5.9886-0.3618 0.288-0.3834 1.1628-0.0792 1.3914 0.4806 0.3618 0.9558-0.2106 1.5786-0.0666 0.1098 0.0252 0.0432 0.7812-0.0414 0.8784-0.5148 0.6048-1.656 0.3582-1.6452 0.441 0.1512 1.2186 0.1278 2.3166-0.288 2.9142-0.5724 0.819-1.4112 0.9594-1.7514 1.7604-0.7236 1.6956-0.4752 2.6622-0.54 3.105-0.0882 0.5976-0.2322 1.5678-0.0594 2.1978-0.1746-0.0396-0.108 1.4058-0.099 1.5012 0.108 1.0566 0.2952 0.9972 0.4572 1.9962 0.0324 0.612 1.5444 0.972 1.5588-0.4356-0.3708-1.8558 0.1818-3.3156 0.2304-5.1894 0.005-0.225 0.3744-0.441 0.6246-0.513 4.0824-1.1718 7.1406-0.7218 11.2-0.6408 1.0872 0.0216 1.7406 1.3788 1.9728 2.4444 0.3852 1.7532 0.387 2.3508 0.4014 4.284 0.2034 0.5148 0.6786 0.3744 1.0512-0.0558 0.6966-0.801 0.1566-1.0998 0.3276-2.1258 0.135-0.7992-0.8946-1.9728-0.8946-1.9728 0.117-0.007-0.3474-2.7072-0.2304-2.7126 0.2106-0.0126-0.1566-2.4246-0.2124-2.3598-0.1566-1.3122 0.747-0.8298 0.6102-1.791-0.0234-0.4392-0.2484-1.0476-0.2358-1.1268 0.1314-0.8874-1.8468-0.6966-1.53-0.7128-0.4392 0.0234-0.7794 0.216-0.7614 0.567 0.0252 0.5004-0.1116 0.8748-0.1062 1.323-0.9648 0.0522-0.5652-0.7254-0.6192-1.7226-0.0216-0.4392 0.2664-0.8082 1.0062-0.9324 0.7848-0.1296 0.8676-0.2214 1.233 0.0216 0.189 0.1296 0.8118 0.2664 0.909 0.5688 0.3636-1.4274 0.792-1.6236 1.8468-1.5912 0.4518 0.0126 1.485-0.1656 1.8918 0.8676 0.1008 0.261 0.8028 0.2214 0.9036 0.4788 1.8252-0.36 0.7074-1.1052 2.9232-0.3924 0.6678 0.2124 1.2132 1.1736 0.6354 1.935-0.0684 0.0918-0.4266 0.0846-0.4338 0.036-0.243-1.9062-0.99-1.3428-1.7046-1.3014-2.3508 0.1368-1.0836 1.1106-3.0762-0.0144-0.2358-0.1332-0.936-1.0926-1.863-0.3402-1.26 1.1214 0.1008 1.926 0.2538 3.15 0.1368 1.1106 0.0846 4.6044 0.0324 5.6214-0.1242 2.394 0.4878 0.9378 0.8946 1.971-0.3438-0.0828-0.1602 2.9322-0.1908 3.087-0.207 1.0656-1.4616 0.6534-1.7892 1.0584 0 0-0.1458 0.8406 0.0468 0.8784 1.4202 0.2754 3.2184 1.0584 4.5108 1.6956 2.9898 1.4688 4.671 2.3832 6.1182 3.2796 0.4284 0.2664 0.6048 0.8334 0.8352 0.837 2.7234 0.0324 5.3514 0.5814 7.7742-0.7632 1.6938-0.9378 2.1024-1.8666 2.5452-3.4704-0.1944-0.0306 0.162-1.7118 0.1674-1.8558 0.0324-1.0548-0.0234-2.9808-0.0108-3.5118 0.0828-3.4812 0.2808-4.6728-0.1926-7.0182-0.004-0.0216-0.3672-0.8604-0.4842-0.8532-0.2862-0.4248-0.7812-1.0548-1.3662-1.5462-0.1836-0.1548-0.1044-0.6696 0.0252-0.5814 0.3636 0.2466 1.0746 0.3834 1.6128 0.6192-0.0162-1.4904-0.1692-3.2418-0.5202-4.8942" fill="#fff"/><g><path d="m316 387.38c0.063-0.002-0.9288 0.7524-1.782 1.2366-0.3906 0.2214-2.0214-0.8856-2.4192-0.927-1.6794-0.1764-2.6442-0.261-4.4154-0.306-0.4356-0.0108-1.062-0.018-1.323 0.387-0.162 0.2484-0.135 0.7308 0.0522 0.9702 0.5346 0.6858 1.584-0.4842 2.2302 1.2546-0.004-0.007 2.0016 0.0828 2.6154 0.1116 2.097 0.0954 5.1876 0.0792 4.9104-0.171 0.2538 0.2286 0.6588-0.9072 1.08-1.1988 0.7884-0.5454 0.5634 0.1764 0.918-0.927-0.243 0.2304 0.2196-0.666-0.0234-0.4374-0.007-0.117-0.1494-0.6372-0.2124-0.693s-0.837 0.2214-0.954 0.225c0.0594 0-0.738 0.4788-0.6768 0.4752"/><path d="m305.91 385.97c1.224 0.7128-0.918 0.927-0.54-1.179-0.0324 0.198 0.3996 0.063 0.4374 0.1584 0.0558 0.144 0.0828 0.6714 0.1026 1.0206"/><path d="m304.7 381.21c0.279-1.4202 0.0252-1.2294-0.1332-2.5398-0.1404-1.1862 0.873-1.4598 0.873-0.1332 0 5.0076-0.3384 3.6198-0.7398 2.673"/><path d="m318.64 374.04c-0.117-0.2754-0.2988-0.2916-0.5274-0.441-0.1728-0.1152-0.3672-0.3636-0.279-0.5526 0.0468-0.0972 0.2538-0.1908 0.3924-0.1872 0.1494 0.002 0.2898 0.1818 0.3402 0.315 0.1008 0.261 0.0612 0.5742 0.0738 0.8658"/><path d="m306.04 375.86c0.171-0.009 0.3186 0.1224 0.3276 0.2916 0.009 0.1728-0.1224 0.3168-0.2934 0.3276-0.1728 0.0108-0.3186-0.1224-0.3276-0.2952-0.007-0.1692 0.1242-0.3168 0.2934-0.324"/><path d="m317.11 384.2c-0.4518-0.2268-0.8478-0.1764-1.2798-0.4194 0.675 0.3762-3.6486 0.6156-2.016 0.4644-1.1628 0.108-2.1114 0.3582-3.321 0.351 0.004 0.0594-0.2286-0.18-0.225-0.1188-0.6012-0.1422-0.9162 0.3222-1.3662 0.6138-0.3132 0.2016-0.594-0.009-0.8838 0.0306 0.0612 0.1134-0.1044 0.189-0.0594 0.2592 0.0738 0.1188 0.279 0.1818 0.3564 0.1926 0.5202 0.0666 1.1268 0.0216 1.6236 0.1926 1.7514 0.6084 3.1176-0.225 4.9122-0.1674 0.5634 0.0162 1.341 0.1296 1.8702-0.243 0.108-0.0774 0.1062-0.261 0.1854-0.3204 0.234-0.1764 0.657-0.0684 0.7938-0.2142 0.2808-0.2988-0.2772-0.4644-0.5904-0.621"/><path d="m315.39 381.66c-0.1134 0.0252-0.1566 0.1728-0.2538 0.1728-1.0206 0-1.9332 0.2628-2.8746 0.666-0.3222 0.1386-0.6336-0.1134-0.9702-0.1566-0.4428-0.0594-0.9072 0.1224-1.2906-0.0144-0.2808-0.0972-0.522-0.5184-0.2862-0.6498 0.3618-0.1998 0.9486-0.1692 1.4202 0.1494 0.5508 0.369 1.2456 0.2484 1.89 0.0972 0.1728-0.0396 0.3456-0.1584 0.5238-0.1512 0.6282 0.0234 1.224-0.1548 1.8414-0.1134"/><path d="m308.89 383.32c0.0216 0.1404-0.2412 0.1026-0.162 0.27-0.4284 0.1242-0.8208-0.2592-1.2294-0.09-0.2304 0.09-0.3708 0.333-0.5976 0.4518-0.018-0.333-0.1404-0.7938 0.1476-0.9198 0.5796-0.2538 1.2132 0.4806 1.8306 0.1116 0.004 0.0594 0.002 0.117 0.0108 0.1764"/></g><path d="m274.18 409.08-3.7998-3.753s3.33-5.184 3.7584-5.3838c0.6822 1.2834 1.8306 3.0654 3.3282 3.1644l0.2772 1.9206-3.564 4.0518" fill="#fff"/><path d="m260.12 424.05 2.0196-0.018c2.6568-2.9502 9.234-11.556 9.234-11.556l-1.0062-2.4066c2.5722 2.151 4.0518 3.5658 5.0022 4.9212 1.8648 2.0106 3.537 0.4284 2.0628-0.8982-0.9774-1.8828-5.6592-5.6772-8.6958-8.3304-8.6688-7.8012-25.06 4.6566-11.336 16.673l2.7198 1.6146" fill="#fff"/><path d="m257.51 419.45c1.503 1.854 2.853 0.8154 1.656-0.2628-0.9054-0.8154 0.7956-2.6514 1.9026-2.2086 0.8802 0.351 1.9314-1.0548 1.6758-1.5822-0.6822-1.395 0.6246-2.853 1.6326-2.3688 0.5562 0.2646 1.7208-0.657 1.3266-1.476-0.5976-1.242 0.6318-2.6442 2.007-1.9512 1.4706 0.7452 0.6372-1.2636 0.6372-1.2636-7.4484-6.2856-18.328 5.706-10.838 11.113"/><path d="m258.29 422.17c1.3194-0.0702 2.4426 0.9414 2.511 2.2608 0.0702 1.3158-0.9432 2.4408-2.259 2.5092-1.3194 0.0702-2.4426-0.9432-2.5128-2.2608-0.0684-1.3158 0.945-2.439 2.2608-2.5092" fill="#fff"/><path d="m259.08 426.04c1.4508-0.7794 0.198-2.9088-0.756-2.6838-1.0296 0.243-0.2412 0.4536-0.2412 0.4536 0.9594-0.1404 1.8306 1.3968 0.6282 1.899-0.4572 0.1908 0.369 0.3312 0.369 0.3312"/><path d="m345.32 423.97-2.0178-0.081c-2.5632-3.0348-8.8668-11.837-8.8668-11.837l1.0782-2.376c-2.637 2.0664-4.1616 3.4362-5.1552 4.761-1.9224 1.953-3.546 0.3186-2.0322-0.9612 1.0386-1.8522 5.8338-5.499 8.955-8.055 8.9064-7.5258 24.932 6.2064 10.838 17.789l-2.799 0.7596" fill="#fff"/><path d="m348.37 420.43c-1.2492 1.2978-2.2554 0.5598-1.9026-0.5238 0.396-1.2132-1.1124-3.5154-1.8666-3.0366-0.9954 0.6318-1.998-1.0386-1.6236-1.6326 0.6246-0.9936-0.576-2.9556-1.557-2.421-0.5418 0.2952-1.6524-0.7884-1.2816-1.5156 0.621-1.2168-0.7092-2.3274-1.944-2.0124-1.5966 0.4086-0.5958-1.2816-0.5958-1.2816 7.6392-6.0498 18.425 7.2558 10.771 12.424"/><path d="m347.25 422.92c-1.314-0.1098-2.502 0.099-2.6118 1.4112-0.1098 1.314 0.8982 3.2382 2.2122 3.3498 1.314 0.1098 2.4696-0.8676 2.5794-2.1816s-0.8658-2.4678-2.1798-2.5794" fill="#fff"/><path d="m346.33 426.76c-1.8702-1.08-0.5274-3.0276 0.8406-2.6586 1.0206 0.2754 0.225 0.4572 0.225 0.4572-1.3392-0.2358-2.313 1.1394-0.6858 1.8792 0.4518 0.207-0.3798 0.3222-0.3798 0.3222"/><path d="m332.08 408.44c0.5112-0.2916 3.6144-3.0906 4.3812-3.5676-0.4518-1.9098-3.4866-7.812-4.1544-8.8326-0.0792 3.519-0.5724 7.497-2.5038 7.5096l-0.3636 1.4274 2.6406 3.4632" fill="#fff"/><path d="m319.6 352.48c0.1548 1.0656-0.7758 2.061-1.431 1.2204-0.3582-0.4572-0.3888-1.3014-0.819-1.7352-1.1646-1.1754-1.8954-1.3968-2.574-2.1222-0.7362-0.7794-0.963-1.2888-0.2664-2.3328 0.0576-0.0882 0.1692-1.1538 0.936-1.728 0.936-0.702 2.2734 0.036 3.6864 1.8036 0.315 0.3942 0.2574 0.954 0.3294 1.4004 0.1836 1.143-0.0306 2.3274 0.1386 3.4938"/><path d="m313.58 345.84c-0.0918-2.9124-4.3434-4.0788-6.0498-3.1086-0.2862 0.162-1.1898 0.9702-1.0044 1.53 0.1836 0.5454 0.8136 0.8964 1.2744 1.0728 0.5202 0.1998 0.972 0.0234 1.4724 0.4662 0.6966 0.6174 1.1772 0.729 1.989 1.5012 0.4644 0.4428 1.3626 0.3726 1.791 0.036 0.432-0.342 0.6966-0.6192 0.4896-1.4382 0.0666 0.1152 0 0 0.0378-0.0594"/><path d="m318.34 350.2c-1.8108-1.206-4.0068-2.25-1.9314-3.3642 0.477-0.2538 1.8054 0.6876 2.1366 1.7856-0.0198-0.0648-0.117 1.638-0.2052 1.5786" fill="#fff"/><path d="m312.14 344.52c-0.3204-0.261-1.4796-0.8496-1.3194-0.7632-0.7668-0.4284-1.6578-0.6678-2.5398-0.5238-0.7902 0.1494-0.4644 0.8262-0.2934 0.8496 2.223 0.2934 2.6496 1.5516 4.0662 2.106 0.4122-0.1008 0.495-0.7254 0.4374-0.9072-0.0396-0.135-0.135-0.4968-0.351-0.7614" fill="#fff"/><g><path d="m295.46 370.89c-0.558-0.7074 0.007-0.8172-1.341-2.124-0.387-0.3762-1.089-0.6462-1.4346-1.1322-0.0594-0.081-0.0522-0.3996-0.063-0.6354 0.8568-0.2826 2.4192 0.396 4.0662 0.4176 0.9936 0.0144 1.9656-0.3132 2.97-0.5166 1.7676-0.3618 3.4002 0.0252 5.5278 0.1404 2.5506 0.1404 3.0384-0.468 3.8466-0.3762 1.5768 0.18 2.538 0.9594 1.8576 0.7632 0.1674 0.0486-1.314-0.144-1.1988 0.081-0.4374 0.0774-0.7092-0.162-1.08-0.2034-0.8622-0.1008-1.7226-0.0504-2.6442 0.2628-1.332 0.4464-2.8044-0.2142-4.1976-0.216-2.268-0.005-4.7826 0.8244-7.6086 0.5328-0.2736-0.0288 2.3112 2.0628 2.1168 1.8216 0.7524 0.927 0.909 2.2032 1.0602 1.7892-0.0468 0.126-0.747 0.8298-1.8774-0.6048"/><path d="m298.5 363.61c1.9422 0.162 5.5818-0.8226 7.2828-0.2088-0.0108-0.1746 1.4292 0.45 1.3914-0.2484-0.0504-0.963-2.3994-0.774-3.0186-0.6336-1.6938 0.3834-2.2968-0.1512-5.8032-0.045-0.1494 0.004-1.7694-0.2592-2.2302 0.9954-0.1242 0.3312 0.8982 0.3924 2.3778 0.1404"/><path d="m310.01 369.68c-0.1818-0.4518 0.2808-0.7398 0.5256-0.5004 0.1908 0.1854 0.1548 0.6948-0.2502 0.8388 0.0432-0.2286-0.2196-0.1998-0.2754-0.3384"/><path d="m309.25 370.61c-0.1782 0.1134-0.3636 0.2826-0.5202 0.3204-0.603 0.144-1.089 0.4788-1.71 0.576-0.1512 0.0252-0.2214 0.2934 0.0324 0.4158 0.387 0.189 0.8046-0.007 1.2006-0.1368 0.5184-0.1728 0.5976-0.7992 1.0206-1.0566 0.126-0.0756 0.4608-0.1206 0.369-0.297-0.0936-0.18-0.4428-0.1026-0.4806 0.1818 0.0306 0 0.0594-0.004 0.0882-0.004"/></g><g fill="#fff"><path d="m311.06 368.03c0.1368 0 0.2466 0.1476 0.2466 0.3294 0 0.1836-0.1098 0.3312-0.2466 0.3312-0.1386 0-0.2484-0.1476-0.2484-0.3312 0-0.1818 0.1098-0.3294 0.2484-0.3294"/><path d="m349.62 439.89c1.368-0.9324 2.4804-1.4688 3.5532-1.4688 0.7344 0 1.1322 0.279 1.1322 0.7344 0 0.6552-0.7146 0.7344-1.8864 0.9936-2.4246 0.5148-3.654 1.8468-3.654 3.9132 0 2.9772 2.3238 5.1624 5.9382 5.1624 1.6272 0 3.1572-0.4176 4.7862-1.2924l-1.5516-3.7116c-0.9918 0.7344-2.025 1.1124-2.9178 1.1124-0.7146 0-1.1124-0.2592-1.1124-0.6768 0-0.6948 0.954-0.7938 2.6424-1.1718 1.8864-0.4158 3.1572-1.827 3.1572-3.8124 0-3.0384-2.4228-5.3424-6.1362-5.3424-1.8666 0-3.753 0.5364-5.5818 1.5894l1.6308 3.9708"/><path d="m253.57 442.48h0.7956c0.972 0 1.5084 0.495 1.5084 1.368 0 0.8748-0.5166 1.4112-1.5084 1.4112h-0.7956v-2.7792zm-5.004 6.4332h6.4134c3.7944 0 5.7402-1.7478 5.7402-4.7862 0-2.025-1.0926-3.4344-2.7414-3.6342l3.7944-5.778h-5.7204l-2.4822 4.6872v-4.6872h-5.004v14.198"/><path d="m274.39 439.99-0.4374 1.6092c-0.198 0.7542-0.4968 1.7478-0.576 3.1176h-0.099c-0.081-1.3698-0.378-2.3634-0.576-3.1176l-0.4374-1.6092h2.1258zm-3.8322 9.036h5.679l4.9644-14.198h-5.481l-0.4572 1.7874h-3.852l-0.4374-1.7874h-5.481l5.0652 14.198"/><path d="m285.77 434.71h5.184v14.198h-5.184v-14.198z"/><path d="m304.63 441.8c0 1.8666-1.0332 2.7396-3.0978 2.7396h-0.2178v-5.5008c2.2626 0.0396 3.3156 0.8334 3.3156 2.7612zm-7.6932 7.1082h4.131c2.4606 0 4.3074-0.2376 5.6196-0.8928 2.4408-1.233 3.8124-3.5154 3.8124-6.2154 0-2.3436-1.053-4.3902-2.9394-5.6808-1.8468-1.2708-4.032-1.4094-6.8706-1.4094h-3.753v14.198"/><path d="m315.33 448.91h9.4914v-3.8538h-4.4874v-1.368h4.0716v-3.6342h-4.0716v-1.4904h4.608v-3.852h-9.612v14.198"/><path d="m335.69 442.48h0.7956c0.9738 0 1.5084 0.495 1.5084 1.368 0 0.8748-0.5166 1.4112-1.5084 1.4112h-0.7956v-2.7792zm-5.004 6.4332h6.4134c3.7944 0 5.7402-1.7478 5.7402-4.7862 0-2.025-1.0926-3.4344-2.7414-3.6342l3.7944-5.778h-5.7186l-2.484 4.6872v-4.6872h-5.004v14.198"/></g></g></g></svg>
