<?xml version="1.0" encoding="UTF-8" standalone="no"?>
<svg xmlns:rdf="http://www.w3.org/1999/02/22-rdf-syntax-ns#" xmlns="http://www.w3.org/2000/svg" xml:space="preserve" height="103" viewBox="0 0 190.17619 102.86165" width="190" version="1.1" xmlns:cc="http://creativecommons.org/ns#" xmlns:dc="http://purl.org/dc/elements/1.1/"><g transform="matrix(1.25 0 0 -1.25 -285 542)"><g style="" transform="matrix(.25 0 0 .25 228 294)"><path d="m558 424c44.3-56.8 54.5-133 49.8-196-23 55.8-70.2 128-124 171 5.42-11.2 9.42-22.9 13.9-38.8-86.5 53-187 85.1-297 77.4 0 0 13.4-14.5 17.6-22.5-61-25-144-56-216-187-18.4 91 44.5 180 64.4 202-10.6 0.428-12.9-0.191-24.5 0.229 65.7 91.9 191 111 257 105l-17.1 21.3c92 3.86 136-23.2 153-30.3 71.3-35.2 107-80.3 122-102" fill="#024"/><path d="m311 546-7.02-0.138s9.84-14.1 14.2-20.4c-33.5 2.74-162 6.92-249-79.2l-6.13-6.12s22.2-0.711 24.8-0.78c-2.13-2.64-4.28-5.29-4.28-5.29-25-32-60.6-75-72.8-158l-2.34-16 9.16 13.5c46.7 68.6 107 117 180 143l4.64 1.7-2.88 4c-7.6 10.5-15 17.3-21.8 23.1 127 12.9 219-21.6 293-57.6l8.9-4.38-3.81 9.16c-7.09 17.1-13.6 28.7-20.3 39.4 55-32.7 93.7-80.6 133-142l8.19-12.6-1.32 15c-14 167-177 256-284 254" fill="#0073cf"/><path d="m329 523s-6.3 9.07-10.6 15.2c51.7-0.994 113-23.5 162-60 41.8-31.2 92.7-85.6 105-171-40.6 60.9-81.3 108-141 139l-12.8 6.69 8-12.1c8.43-12.8 15.9-24.5 24-42.1-70.9 33.8-167 68.3-296 53.1l-8.55-1.01 10.2-8.68c6.35-5.36 13.4-11.5 20.7-20.7-67-25-124-69-169-131 13.5 72 45.4 110 69.1 139l13.9 17.1-7.67 0.184s-14 0.459-14.5 0.474c97 89.4 242 70.3 244 70.1l8.65-1.32-5 7.15" fill="#ffb612"/></g></g></svg>
